<?xml version="1.0" encoding="utf-8"?>
<!-- Generator: Adobe Illustrator 23.0.5, SVG Export Plug-In . SVG Version: 6.00 Build 0)  -->
<svg version="1.1" id="Layer_1" xmlns="http://www.w3.org/2000/svg" xmlns:xlink="http://www.w3.org/1999/xlink" x="0px" y="0px"
	 viewBox="0 0 1342 133.5" style="enable-background:new 0 0 1342 133.5;" xml:space="preserve">
<style type="text/css">
	.st0{fill:url(#SVGID_1_);}
	.st1{fill:#FBA088;}
	.st2{fill:#759AFC;}
	.st3{fill:url(#Ellipse_50-2_1_);}
	.st4{enable-background:new    ;}
	.st5{fill:#FFFFFF;}
	.st6{fill:url(#Ellipse_52-2_1_);}
	.st7{fill:url(#Ellipse_51-2_1_);}
	.st8{fill:url(#Ellipse_53-2_1_);}
</style>
<g>
	<linearGradient id="SVGID_1_" gradientUnits="userSpaceOnUse" x1="86.809" y1="24.2446" x2="402.0779" y2="24.2446">
		<stop  offset="0" style="stop-color:#9DF3A7"/>
		<stop  offset="1" style="stop-color:#57D464"/>
	</linearGradient>
	<path class="st0" d="M400.1,48.5c-0.3,0-0.7-0.1-1-0.3c-3.7-2.2-7.5-4.4-11.2-6.4c-1-0.5-1.3-1.7-0.8-2.7c0.5-1,1.7-1.3,2.7-0.8
		c3.8,2.1,7.6,4.3,11.4,6.5c0.9,0.6,1.3,1.8,0.7,2.7C401.4,48.1,400.8,48.5,400.1,48.5z M88.8,40.1c-0.7,0-1.4-0.4-1.7-1
		c-0.5-1-0.2-2.2,0.8-2.7c0.2-0.1,4.3-2.4,11.8-5.9c1-0.5,2.2,0,2.7,1c0.5,1,0,2.2-1,2.7c-7.4,3.4-11.5,5.7-11.5,5.7
		C89.5,40,89.1,40.1,88.8,40.1z M377.3,36c-0.3,0-0.6-0.1-0.9-0.2c-3.9-1.9-7.8-3.8-11.7-5.5c-1-0.4-1.5-1.6-1-2.6
		c0.4-1,1.6-1.5,2.6-1c4,1.8,7.9,3.6,11.8,5.6c1,0.5,1.4,1.7,0.9,2.7C378.7,35.6,378,36,377.3,36z M112.4,29.1
		c-0.8,0-1.5-0.5-1.9-1.2c-0.4-1,0.1-2.2,1.1-2.6c4-1.6,8.1-3.2,12.2-4.7c1-0.4,2.2,0.2,2.6,1.2c0.4,1-0.2,2.2-1.2,2.6
		c-4.1,1.5-8.2,3-12.1,4.6C112.9,29.1,112.7,29.1,112.4,29.1z M353.5,25.5c-0.2,0-0.5,0-0.7-0.1c-4-1.6-8.1-3.1-12.1-4.5
		c-1-0.4-1.6-1.5-1.2-2.5c0.4-1,1.5-1.6,2.5-1.2c4.1,1.4,8.2,3,12.3,4.6c1,0.4,1.5,1.6,1.1,2.6C355.1,25,354.3,25.5,353.5,25.5z
		 M136.9,20.3c-0.8,0-1.6-0.5-1.9-1.4c-0.3-1.1,0.2-2.2,1.3-2.5c4.1-1.3,8.3-2.6,12.5-3.7c1.1-0.3,2.2,0.3,2.5,1.4
		c0.3,1.1-0.3,2.2-1.4,2.5c-4.1,1.2-8.3,2.4-12.4,3.7C137.3,20.3,137.1,20.3,136.9,20.3z M329,16.9c-0.2,0-0.4,0-0.6-0.1
		c-4.1-1.2-8.3-2.4-12.4-3.5c-1.1-0.3-1.7-1.4-1.4-2.4c0.3-1.1,1.4-1.7,2.4-1.4c4.2,1.1,8.4,2.2,12.6,3.5c1.1,0.3,1.7,1.4,1.3,2.5
		C330.6,16.4,329.8,16.9,329,16.9z M161.9,13.4c-0.9,0-1.7-0.6-1.9-1.5c-0.3-1.1,0.4-2.2,1.5-2.4c4.2-1,8.5-2,12.8-2.8
		c1.1-0.2,2.1,0.5,2.4,1.6c0.2,1.1-0.5,2.1-1.6,2.4c-4.2,0.8-8.4,1.8-12.6,2.8C162.3,13.3,162.1,13.4,161.9,13.4z M303.8,10.5
		c-0.1,0-0.3,0-0.4,0c-4.2-0.9-8.5-1.7-12.7-2.4c-1.1-0.2-1.8-1.2-1.6-2.3c0.2-1.1,1.2-1.8,2.3-1.6c4.3,0.7,8.6,1.5,12.9,2.4
		c1.1,0.2,1.8,1.3,1.5,2.4C305.5,9.9,304.7,10.5,303.8,10.5z M187.4,8.3c-1,0-1.8-0.7-2-1.7c-0.2-1.1,0.6-2.1,1.7-2.3
		c4.3-0.7,8.7-1.3,12.9-1.8c1.1-0.1,2.1,0.6,2.2,1.7c0.1,1.1-0.6,2.1-1.7,2.2c-4.2,0.5-8.6,1.1-12.8,1.8
		C187.7,8.3,187.6,8.3,187.4,8.3z M278.1,6.3c-0.1,0-0.2,0-0.2,0c-4.2-0.5-8.6-1-12.9-1.3c-1.1-0.1-1.9-1.1-1.8-2.2s1-1.9,2.2-1.8
		c4.3,0.3,8.7,0.8,13,1.3c1.1,0.1,1.9,1.1,1.7,2.2C280,5.5,279.1,6.3,278.1,6.3z M213.3,5.1c-1,0-1.9-0.8-2-1.8
		c-0.1-1.1,0.7-2.1,1.8-2.2c4.3-0.4,8.7-0.6,13.1-0.8c1.1-0.1,2,0.8,2.1,1.9c0,1.1-0.8,2-1.9,2.1c-4.3,0.2-8.6,0.5-12.9,0.8
		C213.4,5.1,213.3,5.1,213.3,5.1z M252.2,4.2C252.2,4.2,252.2,4.2,252.2,4.2c-4-0.2-8-0.2-12-0.2l-1,0c0,0,0,0,0,0c-1.1,0-2-0.9-2-2
		c0-1.1,0.9-2,2-2l1,0c4,0,8.1,0.1,12.1,0.2c1.1,0,2,1,1.9,2.1C254.2,3.4,253.3,4.2,252.2,4.2z"/>
	<g>
		<path class="st1" d="M925.6,48.6c0.3,0,0.7-0.1,1-0.3c3.7-2.1,7.5-4.3,11.3-6.2c1-0.5,1.4-1.7,0.8-2.7c-0.5-1-1.7-1.4-2.7-0.8
			c-3.8,2-7.7,4.1-11.4,6.3c-1,0.6-1.3,1.8-0.7,2.7C924.3,48.2,924.9,48.6,925.6,48.6z M1237,44.7c0.7,0,1.4-0.4,1.7-1
			c0.6-1,0.2-2.2-0.7-2.7c-0.2-0.1-4.2-2.5-11.7-6.1c-1-0.5-2.2-0.1-2.7,0.9c-0.5,1-0.1,2.2,0.9,2.7c7.3,3.5,11.4,5.9,11.4,5.9
			C1236.3,44.6,1236.7,44.7,1237,44.7z M948.6,36.5c0.3,0,0.6-0.1,0.9-0.2c3.9-1.9,7.8-3.6,11.8-5.3c1-0.4,1.5-1.6,1.1-2.6
			c-0.4-1-1.6-1.5-2.6-1.1c-4,1.7-8,3.5-11.9,5.4c-1,0.5-1.4,1.7-0.9,2.7C947.2,36,947.9,36.5,948.6,36.5z M1213.5,33.4
			c0.8,0,1.5-0.5,1.8-1.2c0.4-1,0-2.2-1.1-2.6c-3.9-1.7-8-3.3-12.2-4.9c-1-0.4-2.2,0.1-2.6,1.2c-0.4,1,0.1,2.2,1.2,2.6
			c4.1,1.5,8.1,3.2,12,4.8C1213,33.4,1213.3,33.4,1213.5,33.4z M972.5,26.2c0.2,0,0.5,0,0.7-0.1c4-1.5,8.1-3,12.2-4.3
			c1-0.3,1.6-1.5,1.3-2.5c-0.3-1-1.5-1.6-2.5-1.3c-4.1,1.4-8.3,2.8-12.3,4.4c-1,0.4-1.6,1.5-1.2,2.6C971,25.8,971.7,26.2,972.5,26.2
			z M1189.2,24.2c0.8,0,1.6-0.5,1.9-1.4c0.4-1-0.2-2.2-1.3-2.5c-4.1-1.4-8.3-2.7-12.5-3.9c-1.1-0.3-2.2,0.3-2.5,1.4
			c-0.3,1.1,0.3,2.2,1.4,2.5c4.1,1.2,8.3,2.5,12.3,3.9C1188.8,24.2,1189,24.2,1189.2,24.2z M997.2,18.1c0.2,0,0.4,0,0.5-0.1
			c4.1-1.2,8.3-2.3,12.5-3.3c1.1-0.3,1.7-1.3,1.5-2.4c-0.3-1.1-1.3-1.7-2.4-1.5c-4.2,1-8.5,2.1-12.7,3.3c-1.1,0.3-1.7,1.4-1.4,2.5
			C995.5,17.5,996.3,18.1,997.2,18.1z M1164.3,16.9c0.9,0,1.7-0.6,1.9-1.5c0.3-1.1-0.4-2.2-1.4-2.4c-4.2-1.1-8.5-2.1-12.7-3
			c-1.1-0.2-2.1,0.5-2.4,1.5s0.5,2.1,1.5,2.4c4.2,0.9,8.4,1.9,12.6,2.9C1163.9,16.9,1164.1,16.9,1164.3,16.9z M1022.5,12
			c0.1,0,0.3,0,0.4,0c4.2-0.8,8.5-1.6,12.7-2.2c1.1-0.2,1.8-1.2,1.7-2.3c-0.2-1.1-1.2-1.8-2.3-1.7c-4.3,0.6-8.6,1.4-12.9,2.2
			c-1.1,0.2-1.8,1.3-1.6,2.3C1020.7,11.4,1021.5,12,1022.5,12z M1138.8,11.5c1,0,1.8-0.7,2-1.7c0.2-1.1-0.5-2.1-1.6-2.3
			c-4.3-0.8-8.6-1.4-12.9-2c-1.1-0.2-2.1,0.6-2.3,1.7c-0.1,1.1,0.6,2.1,1.7,2.3c4.2,0.6,8.5,1.2,12.8,2
			C1138.6,11.4,1138.7,11.5,1138.8,11.5z M1048.2,8.2c0.1,0,0.1,0,0.2,0c4.3-0.5,8.6-0.8,12.9-1.1c1.1-0.1,1.9-1,1.9-2.1
			s-1-1.9-2.1-1.9c-4.3,0.3-8.7,0.7-13,1.1c-1.1,0.1-1.9,1.1-1.8,2.2C1046.3,7.4,1047.2,8.2,1048.2,8.2z M1113.1,7.9
			c1,0,1.9-0.8,2-1.8c0.1-1.1-0.7-2.1-1.8-2.2c-4.3-0.4-8.7-0.8-13-1c-1.1-0.1-2,0.8-2.1,1.9c-0.1,1.1,0.8,2,1.9,2.1
			c4.3,0.2,8.6,0.6,12.9,1C1112.9,7.9,1113,7.9,1113.1,7.9z M1074.1,6.5C1074.1,6.5,1074.1,6.5,1074.1,6.5c4.3-0.1,8.7-0.1,13,0
			c0,0,0,0,0,0c1.1,0,2-0.9,2-2c0-1.1-0.9-2-2-2c-4.3-0.1-8.7-0.1-13.1,0c-1.1,0-2,0.9-2,2C1072.1,5.6,1073,6.5,1074.1,6.5z"/>
		<path class="st2" d="M513.9,57.3c0.4,0,0.7-0.1,1-0.3c3.7-2.2,7.4-4.4,11.2-6.5c1-0.5,1.3-1.8,0.8-2.7c-0.5-1-1.8-1.3-2.7-0.8
			c-3.8,2.1-7.6,4.3-11.3,6.5c-0.9,0.6-1.2,1.8-0.7,2.7C512.6,56.9,513.2,57.3,513.9,57.3z M825.1,47.3c0.7,0,1.4-0.4,1.7-1
			c0.5-1,0.2-2.2-0.8-2.7c-0.2-0.1-4.3-2.4-11.8-5.8c-1-0.5-2.2,0-2.6,1c-0.5,1,0,2.2,1,2.6c7.4,3.4,11.5,5.6,11.5,5.7
			C824.4,47.2,824.8,47.3,825.1,47.3z M536.7,44.7c0.3,0,0.6-0.1,0.9-0.2c3.8-1.9,7.8-3.8,11.7-5.5c1-0.5,1.5-1.6,1-2.6
			c-0.5-1-1.6-1.5-2.6-1c-3.9,1.8-7.9,3.7-11.8,5.6c-1,0.5-1.4,1.7-0.9,2.7C535.2,44.3,535.9,44.7,536.7,44.7z M801.5,36.5
			c0.8,0,1.5-0.5,1.9-1.3c0.4-1-0.1-2.2-1.1-2.6c-4-1.6-8.1-3.1-12.2-4.6c-1-0.4-2.2,0.2-2.6,1.2c-0.4,1,0.2,2.2,1.2,2.6
			c4.1,1.5,8.2,3,12.1,4.6C801,36.4,801.2,36.5,801.5,36.5z M560.3,34c0.2,0,0.5,0,0.7-0.1c4-1.6,8.1-3.1,12.1-4.6
			c1-0.4,1.6-1.5,1.2-2.6c-0.4-1-1.5-1.6-2.6-1.2c-4.1,1.4-8.2,3-12.2,4.6c-1,0.4-1.5,1.6-1.1,2.6C558.8,33.5,559.6,34,560.3,34z
			 M776.9,27.8c0.9,0,1.6-0.5,1.9-1.4c0.3-1.1-0.3-2.2-1.3-2.5c-4.1-1.3-8.4-2.5-12.6-3.7c-1.1-0.3-2.2,0.3-2.5,1.4s0.3,2.2,1.4,2.5
			c4.1,1.1,8.3,2.3,12.4,3.6C776.5,27.7,776.7,27.8,776.9,27.8z M584.8,25.4c0.2,0,0.4,0,0.6-0.1c4.1-1.3,8.3-2.4,12.4-3.5
			c1.1-0.3,1.7-1.4,1.4-2.4s-1.4-1.7-2.4-1.4c-4.2,1.1-8.4,2.3-12.6,3.6c-1.1,0.3-1.6,1.4-1.3,2.5C583.2,24.8,584,25.4,584.8,25.4z
			 M751.8,20.9c0.9,0,1.7-0.6,1.9-1.5c0.3-1.1-0.4-2.2-1.5-2.4c-4.2-1-8.5-1.9-12.8-2.7c-1.1-0.2-2.1,0.5-2.3,1.6
			c-0.2,1.1,0.5,2.1,1.6,2.3c4.2,0.8,8.5,1.7,12.6,2.7C751.5,20.9,751.7,20.9,751.8,20.9z M610,18.8c0.1,0,0.3,0,0.4,0
			c4.2-0.9,8.5-1.7,12.7-2.4c1.1-0.2,1.8-1.2,1.6-2.3s-1.2-1.8-2.3-1.6c-4.3,0.7-8.6,1.6-12.8,2.5c-1.1,0.2-1.8,1.3-1.5,2.4
			C608.2,18.2,609.1,18.8,610,18.8z M726.3,16c1,0,1.8-0.7,2-1.7c0.2-1.1-0.6-2.1-1.7-2.3c-4.3-0.7-8.7-1.3-13-1.8
			c-1.1-0.1-2.1,0.7-2.2,1.8c-0.1,1.1,0.7,2.1,1.8,2.2c4.2,0.5,8.6,1.1,12.8,1.7C726.1,16,726.2,16,726.3,16z M635.6,14.4
			c0.1,0,0.2,0,0.3,0c4.3-0.5,8.6-1,12.8-1.4c1.1-0.1,1.9-1.1,1.8-2.2c-0.1-1.1-1.1-1.9-2.2-1.8c-4.3,0.4-8.7,0.8-13,1.4
			c-1.1,0.1-1.9,1.1-1.7,2.2C633.8,13.7,634.6,14.4,635.6,14.4z M700.5,13c1,0,1.9-0.8,2-1.8c0.1-1.1-0.7-2.1-1.8-2.1
			c-4.3-0.3-8.7-0.6-13.1-0.8c-1.1-0.1-2,0.8-2.1,1.9c0,1.1,0.8,2,1.9,2.1c4.3,0.2,8.6,0.4,12.9,0.7C700.4,13,700.4,13,700.5,13z
			 M661.5,12.3C661.6,12.3,661.6,12.3,661.5,12.3c4.4-0.2,8.7-0.3,13-0.3c1.1,0,2-0.9,2-2c0-1.1-0.9-2-2-2c0,0,0,0,0,0
			c-4.4,0-8.8,0.1-13.1,0.3c-1.1,0-2,1-1.9,2.1C659.6,11.4,660.5,12.3,661.5,12.3z"/>
	</g>
	<g>
		<g transform="matrix(1, 0, 0, 1, 279.5, 1373)">
			
				<linearGradient id="Ellipse_50-2_1_" gradientUnits="userSpaceOnUse" x1="-30.11" y1="-1071.4705" x2="-30.11" y2="-1072.4705" gradientTransform="matrix(100 0 0 -100 2781.5 -108486.5547)">
				<stop  offset="0" style="stop-color:#9DF3A7"/>
				<stop  offset="1" style="stop-color:#57D464"/>
			</linearGradient>
			<circle id="Ellipse_50-2" class="st3" cx="-229.5" cy="-1289.5" r="50"/>
		</g>
		<g>
			<g class="st4">
				<path class="st5" d="M42.2,69.9h8.1v28.6h-4V73.4h-4.1V69.9z"/>
			</g>
		</g>
	</g>
	<g>
		<g transform="matrix(1, 0, 0, 1, 279.5, 1373)">
			
				<linearGradient id="Ellipse_52-2_1_" gradientUnits="userSpaceOnUse" x1="-30.11" y1="-1070.2905" x2="-30.11" y2="-1071.2905" gradientTransform="matrix(100 0 0 -100 3609.5 -108368.5547)">
				<stop  offset="0" style="stop-color:#F6D365"/>
				<stop  offset="1" style="stop-color:#FDA085"/>
			</linearGradient>
			<circle id="Ellipse_52-2" class="st6" cx="598.5" cy="-1289.5" r="50"/>
		</g>
		<g>
			<g class="st4">
				<path class="st5" d="M879.8,81.1c1.3,0.9,2.3,2,3.1,3.4c0.8,1.4,1.2,2.9,1.2,4.6c0,1.3-0.2,2.6-0.7,3.7c-0.5,1.2-1.2,2.2-2,3
					c-0.9,0.9-1.9,1.5-3,2c-1.2,0.5-2.4,0.7-3.7,0.7c-1.8,0-3.5-0.5-5-1.4c-1.2-0.8-2.2-1.8-3-3c-0.8-1.2-1.3-2.6-1.5-4.1h3.7h0.1
					c0,0.3,0,0.6,0.1,0.9c0.2,0.6,0.5,1.2,0.9,1.7c0.4,0.5,0.9,1,1.4,1.3c1,0.6,2.1,0.9,3.2,0.9c0.8,0,1.6-0.2,2.3-0.5
					c0.7-0.3,1.4-0.7,1.9-1.2c0.5-0.5,1-1.1,1.3-1.8c0.3-0.7,0.5-1.5,0.5-2.3c0-0.8-0.2-1.6-0.5-2.3s-0.7-1.4-1.3-1.9
					c-0.5-0.5-1.2-1-1.9-1.3c-0.7-0.3-1.5-0.5-2.3-0.5c-0.9,0-1.8,0.2-2.7,0.6l1.5-3.4l0.4-0.8l2.7-6.2h-9.9v-3.4h15.5L877.5,80
					C878.3,80.3,879.1,80.6,879.8,81.1z"/>
			</g>
		</g>
	</g>
	<g>
		<g transform="matrix(1, 0, 0, 1, 279.5, 1373)">
			
				<linearGradient id="Ellipse_51-2_1_" gradientUnits="userSpaceOnUse" x1="-30.11" y1="-1070.9705" x2="-30.11" y2="-1071.9705" gradientTransform="matrix(100 0 0 -100 3195.5 -108436.5547)">
				<stop  offset="0" style="stop-color:#759AFC"/>
				<stop  offset="0.95" style="stop-color:#8EAFFC"/>
				<stop  offset="1" style="stop-color:#96B6FC"/>
			</linearGradient>
			<circle id="Ellipse_51-2" class="st7" cx="184.5" cy="-1289.5" r="50"/>
		</g>
		<g class="st4">
			<path class="st5" d="M473.3,75.3c0,1.2-0.2,2.3-0.6,3.1c-0.4,0.8-0.9,1.7-1.7,2.6l-8.7,11h10.7v3.5H455l9-11.9
				c0.8-1,1.5-2,2.2-2.8c0.3-0.4,0.5-0.7,0.8-1.1s0.5-0.7,0.7-1c0.2-0.3,0.4-0.5,0.5-0.7c0.1-0.2,0.2-0.3,0.3-0.4
				c0.4-0.8,0.7-1.6,0.7-2.4c0-0.7-0.1-1.3-0.4-1.9c-0.3-0.6-0.6-1.1-1.1-1.6s-1-0.8-1.6-1.1c-0.6-0.3-1.2-0.4-1.9-0.4
				c-0.7,0-1.3,0.1-1.9,0.4s-1.1,0.6-1.6,1.1c-0.4,0.4-0.8,1-1.1,1.6c-0.3,0.6-0.4,1.2-0.4,1.9h-4c0-1.1,0.2-2.2,0.7-3.3
				c0.5-1,1.1-1.9,1.9-2.7c0.8-0.8,1.8-1.4,2.9-1.8c1.1-0.4,2.3-0.7,3.5-0.7c1.2,0,2.4,0.2,3.5,0.7c1.1,0.4,2,1,2.9,1.8
				c0.8,0.8,1.5,1.7,1.9,2.7C473,73.1,473.3,74.2,473.3,75.3z"/>
		</g>
	</g>
	<g>
		<g transform="matrix(1, 0, 0, 1, 279.5, 1373)">
			
				<linearGradient id="Ellipse_53-2_1_" gradientUnits="userSpaceOnUse" x1="-30.11" y1="-1069.6904" x2="-30.11" y2="-1070.6904" gradientTransform="matrix(100 0 0 -100 4023.5 -108308.5547)">
				<stop  offset="0" style="stop-color:#E83A99"/>
				<stop  offset="1" style="stop-color:#E2906E"/>
			</linearGradient>
			<circle id="Ellipse_53-2" class="st8" cx="1012.5" cy="-1289.5" r="50"/>
		</g>
		<g>
			<g class="st4">
				<path class="st5" d="M1303.9,93.6h-3.4v3h-3.9v-3h-14.5l18.4-25.6v22.1h3.4V93.6z M1289.1,90.1h7.5V79.4L1289.1,90.1z"/>
			</g>
		</g>
	</g>
</g>
</svg>
