<svg xmlns="http://www.w3.org/2000/svg" width="48.38" height="51.714" viewBox="0 0 48.38 51.714">
  <path id="icons8-google_play" d="M9.494,2.328,30.679,24.389l6.263-6.521C26.15,11.764,11.876,3.688,9.494,2.328Zm-6.116,1.4A4.424,4.424,0,0,0,3,5.489V51.422A4.1,4.1,0,0,0,3.294,52.9L26.951,28.269ZM41.772,20.6l-7.366,7.665,7.308,7.613,7.592-4.3a3.967,3.967,0,0,0,2.074-3.434A3.88,3.88,0,0,0,49.3,24.862C49.126,24.762,46.095,23.047,41.772,20.6ZM30.679,32.154,9.652,54.042c3.621-2.059,17-9.635,27.232-15.43Z" transform="translate(-3 -2.328)" fill="#edefff"/>
</svg>
