<?xml version="1.0" encoding="utf-8"?>
<!-- Generator: Adobe Illustrator 23.0.5, SVG Export Plug-In . SVG Version: 6.00 Build 0)  -->
<svg version="1.1" id="Layer_1" xmlns="http://www.w3.org/2000/svg" xmlns:xlink="http://www.w3.org/1999/xlink" x="0px" y="0px"
	 viewBox="0 0 46.8 53" style="enable-background:new 0 0 46.8 53;" xml:space="preserve">
<style type="text/css">
	.st0{fill:#EDEFFF;}
</style>
<path id="icons8-apple_logo" class="st0" d="M34.8,0c-3.3,0.3-6.3,1.7-8.7,4.1c-1.9,2-3.4,4.9-2.8,7.7c3.3,0,6.4-1.4,8.7-3.9
	C33.9,5.9,35.3,3,34.8,0z M35,11.8c-4.8,0-6.8,2.9-10.1,2.9c-3.4,0-6.5-2.8-10.7-2.8C8.6,12,0,17.2,0,29.5C0,40.6,10.1,53,15.8,53
	c3.5,0,4.3-2.2,9-2.2s5.7,2.2,9.2,2.2c3.9,0,7-4.3,9.2-7.7c1.4-2,2.5-4.2,3.5-6.4c-9.2-2.3-11-17.2,0-20.3
	C44.7,15,38.6,11.8,35,11.8z"/>
</svg>
