<svg xmlns="http://www.w3.org/2000/svg" width="61.863" height="57.104" viewBox="0 0 61.863 57.104">
  <path id="icons8-trophy" d="M12.517,4A9.813,9.813,0,0,0,6.123,6.454,9.279,9.279,0,0,0,3,13.517a10.468,10.468,0,0,0,2.379,6.395A34.306,34.306,0,0,0,9.766,24.3c2.937,2.658,5.13,4.842,5.13,8.253a4.844,4.844,0,0,1-.818,1.933,7.59,7.59,0,0,1-.892,1.115l3.42,3.346a13.2,13.2,0,0,0,1.487-1.859,8.415,8.415,0,0,0,1.487-3.718c.27.771.53,1.561.818,2.305A46.789,46.789,0,0,0,26.05,46.531,18.138,18.138,0,0,0,28.5,49.282a9.52,9.52,0,0,0-8.848,9.443V61.1H48.208V58.725a9.5,9.5,0,0,0-9-9.443,18.982,18.982,0,0,0,2.528-2.751A46.956,46.956,0,0,0,47.39,35.675c.307-.79.6-1.636.892-2.454a8.351,8.351,0,0,0,1.487,3.866,13.2,13.2,0,0,0,1.487,1.859l3.42-3.346a7.59,7.59,0,0,1-.892-1.115,4.844,4.844,0,0,1-.818-1.933c0-3.411,2.193-5.6,5.13-8.253a34.305,34.305,0,0,0,4.387-4.387,10.468,10.468,0,0,0,2.379-6.395A9.279,9.279,0,0,0,61.74,6.454,9.813,9.813,0,0,0,55.346,4,9.321,9.321,0,0,0,49.1,6.379H18.763A9.321,9.321,0,0,0,12.517,4Zm0,4.759a4.372,4.372,0,0,1,2.379.669,72.134,72.134,0,0,0,2.231,15.763A30.3,30.3,0,0,0,12.889,20.8,32.282,32.282,0,0,1,9.1,17.012a5.4,5.4,0,0,1-1.338-3.495A4.321,4.321,0,0,1,9.32,10.023,5.142,5.142,0,0,1,12.517,8.759Zm42.828,0a5.142,5.142,0,0,1,3.2,1.264A4.321,4.321,0,0,1,60.1,13.517a5.4,5.4,0,0,1-1.338,3.495A32.282,32.282,0,0,1,54.974,20.8a29.7,29.7,0,0,0-4.313,4.536A71.256,71.256,0,0,0,52.966,9.428,4.372,4.372,0,0,1,55.346,8.759ZM19.953,11.138H47.91a77.58,77.58,0,0,1-4.982,22.827,42.778,42.778,0,0,1-5.056,9.666c-1.729,2.305-3.309,3.2-4.015,3.2s-2.221-.892-3.941-3.2a42.577,42.577,0,0,1-5.056-9.666A78.332,78.332,0,0,1,19.953,11.138Zm11.6,7.138v11.9h4.759v-11.9Zm-2.379,35.69H38.69a4.382,4.382,0,0,1,3.718,2.379H25.455A4.382,4.382,0,0,1,29.173,53.966Z" transform="translate(-3 -4)" fill="#fff"/>
</svg>
