<svg xmlns="http://www.w3.org/2000/svg" width="1626.605" height="303.981" viewBox="0 0 1626.605 303.981">
  <g id="Group_4206" data-name="Group 4206" transform="translate(-207.79 -4555.467)">
    <g id="Group_4204" data-name="Group 4204" transform="translate(1671.06 4518.827) rotate(45)" opacity="0.2">
      <g id="Group_7" data-name="Group 7" transform="translate(51.817)">
        <path id="Path_22" data-name="Path 22" d="M-349.432-502.327h-.163l-73.682-.626a18.653,18.653,0,0,1-18.472-18.788,18.653,18.653,0,0,1,18.625-18.469h.163l73.682.627a18.508,18.508,0,0,1,13.128,5.568,18.5,18.5,0,0,1,5.341,13.219,18.5,18.5,0,0,1-5.565,13.126A18.52,18.52,0,0,1-349.432-502.327Zm-73.69-28.812a9.568,9.568,0,0,0-9.556,9.477,9.571,9.571,0,0,0,9.477,9.637l73.685.626h.082a9.506,9.506,0,0,0,6.7-2.74,9.5,9.5,0,0,0,2.856-6.736,9.485,9.485,0,0,0-2.741-6.781,9.505,9.505,0,0,0-6.734-2.856l-73.682-.627Z" transform="translate(476.585 741.185)" fill="#5363d2"/>
        <path id="Path_23" data-name="Path 23" d="M-349.525-491.492h-.163l-73.682-.627A18.651,18.651,0,0,1-441.842-510.9a18.655,18.655,0,0,1,18.625-18.472h.163l73.682.626a18.511,18.511,0,0,1,13.128,5.568,18.5,18.5,0,0,1,5.341,13.22,18.5,18.5,0,0,1-5.565,13.125A18.519,18.519,0,0,1-349.525-491.492Zm-73.69-28.812a9.569,9.569,0,0,0-9.556,9.477,9.571,9.571,0,0,0,9.477,9.637l73.685.626h.081a9.494,9.494,0,0,0,6.7-2.74,9.5,9.5,0,0,0,2.856-6.737,9.472,9.472,0,0,0-2.74-6.779,9.5,9.5,0,0,0-6.734-2.859l-73.682-.626Z" transform="translate(476.435 758.873)" fill="#5363d2"/>
        <path id="Path_24" data-name="Path 24" d="M-322.31-406.15h-86.17l-.764-3.591c-7.247-34-26.109-61.054-28.236-64.029l-.4-.555c-1.585-2.177-3.062-4.407-4.4-6.629a89.476,89.476,0,0,1-12.7-46.015,89.69,89.69,0,0,1,89.59-89.587,89.689,89.689,0,0,1,89.585,89.587,89.458,89.458,0,0,1-12.7,46.013c-1.335,2.224-2.812,4.454-4.4,6.632l-.432.6c-2.1,2.93-20.959,29.986-28.207,63.984Zm-78.873-9.072h71.576c7.924-33.314,25.39-58.893,28.92-63.823l.442-.616c1.427-1.964,2.759-3.97,3.954-5.963a80.4,80.4,0,0,0,11.412-41.345,80.607,80.607,0,0,0-80.513-80.516,80.608,80.608,0,0,0-80.519,80.516A80.412,80.412,0,0,0-434.5-485.621c1.2,1.99,2.527,4,3.954,5.96l.413.571C-426.573-474.117-409.107-448.535-401.184-415.221Z" transform="translate(454.983 616.556)" fill="#5363d2"/>
        <path id="Path_25" data-name="Path 25" d="M-397.128-484.6a38.174,38.174,0,0,1-36.815-28.193l-1.553-5.765,76.654.653-1.65,5.739A38.286,38.286,0,0,1-397.128-484.6Zm-25.816-24.779a29.122,29.122,0,0,0,25.816,15.708,29.218,29.218,0,0,0,25.574-15.271Z" transform="translate(486.794 776.534)" fill="#5363d2"/>
        <path id="Path_26" data-name="Path 26" d="M-403.554-483.812h-9.074V-537.6h-8.116a17.209,17.209,0,0,1-17.187-17.189,17.208,17.208,0,0,1,17.187-17.19,17.208,17.208,0,0,1,17.19,17.19v8.118h10.919v9.071h-10.919Zm-17.19-79.1a8.127,8.127,0,0,0-8.116,8.119,8.127,8.127,0,0,0,8.116,8.118h8.116v-8.118A8.127,8.127,0,0,0-420.744-562.91Z" transform="translate(482.819 689.322)" fill="#5363d2"/>
        <path id="Path_27" data-name="Path 27" d="M-400.733-483.812H-409.8V-537.6h-10.919v-9.071H-409.8v-8.118a17.208,17.208,0,0,1,17.19-17.19,17.208,17.208,0,0,1,17.19,17.19,17.21,17.21,0,0,1-17.19,17.189h-8.119Zm0-62.86h8.119a8.129,8.129,0,0,0,8.118-8.118,8.13,8.13,0,0,0-8.118-8.119,8.128,8.128,0,0,0-8.119,8.119Z" transform="translate(510.909 689.322)" fill="#5363d2"/>
      </g>
      <g id="Group_8" data-name="Group 8" transform="translate(236.865 61.248)">
        <path id="Path_28" data-name="Path 28" d="M-353.62-568.668h-23.742A4.536,4.536,0,0,1-381.9-573.2a4.536,4.536,0,0,1,4.536-4.536h23.742a4.536,4.536,0,0,1,4.536,4.536A4.536,4.536,0,0,1-353.62-568.668Z" transform="translate(389.242 618.675)" fill="#5363d2"/>
        <path id="Path_29" data-name="Path 29" d="M-377.011-573.495a4.533,4.533,0,0,1-4.049-2.488,4.533,4.533,0,0,1,2-6.1l21.178-10.721a4.54,4.54,0,0,1,6.1,2,4.535,4.535,0,0,1-2,6.1l-21.178,10.722A4.543,4.543,0,0,1-377.011-573.495Z" transform="translate(389.807 593.289)" fill="#5363d2"/>
        <path id="Path_30" data-name="Path 30" d="M-358.974-547.28a4.528,4.528,0,0,1-2.046-.49L-382.2-558.494a4.533,4.533,0,0,1-2-6.1,4.541,4.541,0,0,1,6.094-2l21.181,10.725a4.535,4.535,0,0,1,2,6.1A4.537,4.537,0,0,1-358.974-547.28Z" transform="translate(384.688 636.082)" fill="#5363d2"/>
      </g>
      <g id="Group_9" data-name="Group 9" transform="translate(0 61.248)">
        <path id="Path_31" data-name="Path 31" d="M-446.389-568.668h-23.74a4.537,4.537,0,0,1-4.538-4.535,4.537,4.537,0,0,1,4.538-4.536h23.74a4.536,4.536,0,0,1,4.536,4.536A4.536,4.536,0,0,1-446.389-568.668Z" transform="translate(474.667 618.675)" fill="#5363d2"/>
        <path id="Path_32" data-name="Path 32" d="M-448.327-573.495a4.533,4.533,0,0,1-2.045-.49l-21.181-10.722a4.534,4.534,0,0,1-2-6.1,4.536,4.536,0,0,1,6.094-2l21.181,10.721a4.534,4.534,0,0,1,2,6.1A4.536,4.536,0,0,1-448.327-573.495Z" transform="translate(475.689 593.289)" fill="#5363d2"/>
        <path id="Path_33" data-name="Path 33" d="M-466.364-547.28a4.537,4.537,0,0,1-4.049-2.488,4.533,4.533,0,0,1,2-6.1l21.178-10.724a4.54,4.54,0,0,1,6.1,2,4.531,4.531,0,0,1-2,6.1l-21.178,10.724A4.536,4.536,0,0,1-466.364-547.28Z" transform="translate(480.809 636.081)" fill="#5363d2"/>
      </g>
    </g>
    <g id="Group_4205" data-name="Group 4205" transform="translate(359.948 4859.857) rotate(-135)" opacity="0.2">
      <path id="Path_82" data-name="Path 82" d="M0,12.906A12.907,12.907,0,1,1,12.906,25.812,12.92,12.92,0,0,1,0,12.906Zm18.608,0a5.7,5.7,0,1,0-5.7,5.7A5.709,5.709,0,0,0,18.608,12.906Z" transform="translate(204.663 15.293)" fill="#5363d2"/>
      <path id="Path_83" data-name="Path 83" d="M0,12.906A12.906,12.906,0,1,1,12.906,25.812,12.919,12.919,0,0,1,0,12.906Zm18.606,0a5.7,5.7,0,1,0-5.7,5.7A5.7,5.7,0,0,0,18.606,12.906Z" transform="translate(237.378 49.748)" fill="#5363d2"/>
      <path id="Path_84" data-name="Path 84" d="M0,12.906A12.906,12.906,0,1,1,12.906,25.814,12.919,12.919,0,0,1,0,12.906Zm18.606,0a5.7,5.7,0,1,0-5.7,5.7A5.7,5.7,0,0,0,18.606,12.906Z" transform="translate(195.36 158.429)" fill="#5363d2"/>
      <g id="Group_27" data-name="Group 27" transform="translate(0.579)">
        <g id="Group_26" data-name="Group 26" transform="translate(159.892 11.861)">
          <path id="Path_85" data-name="Path 85" d="M0,60.958v-.1L.418,11.535A11.651,11.651,0,0,1,12.149,0L14.184.02A11.649,11.649,0,0,1,25.716,11.65v.1L25.3,61.074A11.646,11.646,0,0,1,13.564,72.608l-2.03-.017A11.647,11.647,0,0,1,0,60.958Zm7.206-.038v.036a4.434,4.434,0,0,0,4.388,4.429l2.03.017a4.429,4.429,0,0,0,4.465-4.388l.42-49.323v-.039a4.434,4.434,0,0,0-4.388-4.427l-2.035-.019A4.436,4.436,0,0,0,7.624,11.6Z" transform="translate(0 0)" fill="#5363d2"/>
        </g>
        <path id="Path_86" data-name="Path 86" d="M0,71.669V24.661A24.69,24.69,0,0,1,24.664,0h.485l82.8,22.792h59.154V73.537H107.953L25.149,96.33h-.485A24.69,24.69,0,0,1,0,71.669ZM24.2,7.213A17.475,17.475,0,0,0,7.206,24.661V71.669A17.475,17.475,0,0,0,24.2,89.117l82.78-22.785H159.9V30H106.978Z" fill="#5363d2"/>
        <path id="Path_87" data-name="Path 87" d="M0,47.88A29.814,29.814,0,0,1,3.653,33.973c8.8-16.819,2.1-27.991,1.814-28.456a3.6,3.6,0,0,1,6.08-3.867c.387.6,9.322,14.964-1.508,35.665-8.366,16,4.511,25.841,5.063,26.252a3.6,3.6,0,0,1-4.259,5.813A27.528,27.528,0,0,1,0,47.88Z" transform="translate(61.611 12.523)" fill="#5363d2"/>
      </g>
      <g id="Group_29" data-name="Group 29" transform="translate(0 123.688)">
        <g id="Group_28" data-name="Group 28" transform="translate(160.471 0)">
          <path id="Path_88" data-name="Path 88" d="M0,60.958v-.1L.418,11.535A11.651,11.651,0,0,1,12.149,0l2.032.017a11.57,11.57,0,0,1,8.2,3.476,11.759,11.759,0,0,1,3.336,8.256L25.3,61.074A11.644,11.644,0,0,1,13.564,72.606l-2.03-.017A11.633,11.633,0,0,1,0,60.958Zm7.206-.041A4.087,4.087,0,0,0,8.477,64.06a4.395,4.395,0,0,0,3.118,1.323l2.03.017a4.431,4.431,0,0,0,4.465-4.388l.42-49.325V11.65a4.428,4.428,0,0,0-4.388-4.427l-2.032-.017a4.435,4.435,0,0,0-4.465,4.389Z" fill="#5363d2"/>
        </g>
        <path id="Path_89" data-name="Path 89" d="M0,25.37A25.4,25.4,0,0,1,25.37,0H167.687V50.742H25.37A25.4,25.4,0,0,1,0,25.37ZM160.48,7.206H25.37a18.165,18.165,0,0,0,0,36.33H160.48Z" transform="translate(0 10.932)" fill="#5363d2"/>
        <path id="Path_90" data-name="Path 90" d="M0,25.37A25.4,25.4,0,0,1,25.37,0H167.687V50.742H25.37A25.4,25.4,0,0,1,0,25.37ZM160.48,7.206H25.37a18.165,18.165,0,0,0,0,36.33H160.48Z" transform="translate(0 10.932)" fill="#5363d2"/>
        <path id="Path_91" data-name="Path 91" d="M0,38.233a29.8,29.8,0,0,1,3.663-13.92c3.641-6.959,5.095-13.79,4.3-20.278a3.6,3.6,0,0,1,7.153-.867c.968,7.982-.74,16.209-5.071,24.484C6.73,33.994,6.308,40.059,8.789,45.684A3.6,3.6,0,1,1,2.2,48.6,25.558,25.558,0,0,1,0,38.233Z" transform="translate(62.181 10.932)" fill="#5363d2"/>
      </g>
    </g>
  </g>
</svg>
