<?xml version="1.0" encoding="utf-8"?>
<!-- Generator: Adobe Illustrator 23.0.5, SVG Export Plug-In . SVG Version: 6.00 Build 0)  -->
<svg version="1.1" id="Layer_1" xmlns="http://www.w3.org/2000/svg" xmlns:xlink="http://www.w3.org/1999/xlink" x="0px" y="0px"
	 viewBox="0 0 50 46.2" style="enable-background:new 0 0 50 46.2;" xml:space="preserve">
<style type="text/css">
	.st0{fill:#FFFFFF;}
</style>
<g id="Group_4221" transform="translate(-801 -2693)">
	<path id="icons8-file_explorer" class="st0" d="M801,2693v42.3h7.7v3.8h11.6l0-3.8h11.6l0,3.8h11.4v-3.8h7.7v-38.5h-30l-3.8-3.8
		H801z M804.8,2696.8h10.7l1.9,1.9l-1.9,1.9h-10.7V2696.8z M821,2700.7h26.1v30.8h-3.8v-15.4h-34.6v15.4h-3.8v-26.9h12.3L821,2700.7
		z M812.5,2719.9h26.9v15.4h-3.8l-0.1-11.5h-19.3l0.1,11.5h-3.8V2719.9z M820.2,2727.6h11.6l0,3.8h-11.6L820.2,2727.6z"/>
</g>
</svg>
