<svg xmlns="http://www.w3.org/2000/svg" width="76.975" height="105.116" viewBox="0 0 76.975 105.116">
  <g id="Group_107" data-name="Group 107" transform="translate(-491.811 -171.9)">
    <g id="Group_49" data-name="Group 49" transform="translate(491.811 243.137)">
      <path id="Path_141" data-name="Path 141" d="M478.059,350.487H474.3V362.7a1.01,1.01,0,1,1-2.02,0V350.487h-3.763a1.01,1.01,0,1,1,0-2.02h9.546a1.01,1.01,0,1,1,0,2.02Z" transform="translate(-467.504 -348.467)" fill="#fff"/>
      <path id="Path_142" data-name="Path 142" d="M510.975,371.878a.961.961,0,0,1,.991.991.988.988,0,0,1-.286.715,5.335,5.335,0,1,1-3.487-9.374,5.414,5.414,0,0,1,4.944,3.282,5.342,5.342,0,0,1,.39,2.053.945.945,0,0,1-.29.71.983.983,0,0,1-.71.281h-7.545a3.26,3.26,0,0,0,.476.958,3.352,3.352,0,0,0,.738.743,3.429,3.429,0,0,0,.934.481,3.31,3.31,0,0,0,1.062.171,3.353,3.353,0,0,0,1.153-.191,3.161,3.161,0,0,0,.972-.571A1.041,1.041,0,0,1,510.975,371.878Zm.429-3.325a3.2,3.2,0,0,0-.481-.957,3.407,3.407,0,0,0-1.677-1.224,3.269,3.269,0,0,0-1.053-.172,3.313,3.313,0,0,0-1.058.172,3.494,3.494,0,0,0-.943.481,3.3,3.3,0,0,0-.743.743,3.09,3.09,0,0,0-.467.957Z" transform="translate(-492.588 -359.636)" fill="#fff"/>
      <path id="Path_143" data-name="Path 143" d="M553.516,373.888V373.7a5.454,5.454,0,0,1-1.553.876,5.2,5.2,0,0,1-1.791.305,5.335,5.335,0,1,1,5.335-5.335v4.344a.992.992,0,0,1-.991.991.965.965,0,0,1-.71-.291A.953.953,0,0,1,553.516,373.888Zm-3.344-7.688a3.244,3.244,0,0,0-1.315.267,3.345,3.345,0,0,0-1.767,1.781,3.334,3.334,0,0,0,0,2.591,3.344,3.344,0,0,0,1.767,1.782,3.351,3.351,0,0,0,2.62,0,3.4,3.4,0,0,0,1.062-.724,3.438,3.438,0,0,0,.714-1.063,3.312,3.312,0,0,0,0-2.582,3.441,3.441,0,0,0-.714-1.062,3.4,3.4,0,0,0-1.062-.724A3.222,3.222,0,0,0,550.172,366.2Z" transform="translate(-522.373 -359.636)" fill="#fff"/>
      <path id="Path_144" data-name="Path 144" d="M594.886,371.859a.961.961,0,0,1,.991.991,1,1,0,0,1-.314.733,5.335,5.335,0,1,1,0-8.078.968.968,0,0,1,.343.752.978.978,0,0,1-.281.715.953.953,0,0,1-.71.286,1.009,1.009,0,0,1-.648-.229,3.659,3.659,0,0,0-1.02-.619,3.155,3.155,0,0,0-1.162-.21,3.272,3.272,0,0,0-1.305.262,3.42,3.42,0,0,0-1.067.714,3.323,3.323,0,0,0-.719,1.062,3.381,3.381,0,0,0,0,2.61,3.319,3.319,0,0,0,.719,1.063,3.42,3.42,0,0,0,1.067.714,3.271,3.271,0,0,0,1.305.262,3.215,3.215,0,0,0,1.162-.2,3.443,3.443,0,0,0,1.01-.614A1.066,1.066,0,0,1,594.886,371.859Z" transform="translate(-552.112 -359.636)" fill="#fff"/>
      <path id="Path_145" data-name="Path 145" d="M625.505,362.709a.992.992,0,0,1-1,1,.955.955,0,0,1-.7-.291.966.966,0,0,1-.29-.71V349.467a.966.966,0,0,1,.29-.71.989.989,0,0,1,1.4,0,1,1,0,0,1,.3.71v4.573a4.945,4.945,0,0,1,4.882-.591,5.209,5.209,0,0,1,1.586,1.062,5.009,5.009,0,0,1,1.086,1.581,4.762,4.762,0,0,1,.4,1.939v4.677a1,1,0,0,1-.3.71.989.989,0,0,1-1.4,0,.965.965,0,0,1-.29-.71v-4.677a2.843,2.843,0,0,0-.238-1.153,3.043,3.043,0,0,0-1.591-1.591,2.845,2.845,0,0,0-1.153-.238,2.875,2.875,0,0,0-1.157.234,3.029,3.029,0,0,0-1.591,1.6,2.893,2.893,0,0,0-.233,1.153Z" transform="translate(-578.196 -348.467)" fill="#fff"/>
      <path id="Path_146" data-name="Path 146" d="M671.02,371.878a.961.961,0,0,1,.991.991.988.988,0,0,1-.286.715,5.336,5.336,0,1,1-3.487-9.374,5.414,5.414,0,0,1,4.944,3.282,5.335,5.335,0,0,1,.391,2.053.947.947,0,0,1-.29.71.984.984,0,0,1-.71.281h-7.545a3.26,3.26,0,0,0,.477.958,3.35,3.35,0,0,0,.738.743,3.429,3.429,0,0,0,.934.481,3.31,3.31,0,0,0,1.062.171,3.352,3.352,0,0,0,1.153-.191,3.164,3.164,0,0,0,.972-.571A1.041,1.041,0,0,1,671.02,371.878Zm.429-3.325a3.192,3.192,0,0,0-.481-.957,3.4,3.4,0,0,0-1.677-1.224,3.269,3.269,0,0,0-1.053-.172,3.313,3.313,0,0,0-1.058.172,3.489,3.489,0,0,0-.943.481,3.3,3.3,0,0,0-.743.743,3.1,3.1,0,0,0-.467.957Z" transform="translate(-606.144 -359.636)" fill="#fff"/>
      <path id="Path_147" data-name="Path 147" d="M706.742,365.2v.191a5.462,5.462,0,0,1,1.553-.876,5.2,5.2,0,0,1,1.791-.3,7.659,7.659,0,0,1,.9.057,3.928,3.928,0,0,1,.886.2,1.885,1.885,0,0,1,.672.4.884.884,0,0,1,.267.667.945.945,0,0,1-.081.391,1.1,1.1,0,0,1-.214.319.94.94,0,0,1-.314.215,1,1,0,0,1-.391.076,1.07,1.07,0,0,1-.419-.1,3.5,3.5,0,0,0-1.3-.239,3.273,3.273,0,0,0-1.305.262A3.333,3.333,0,0,0,707,368.239a3.269,3.269,0,0,0-.262,1.305v4.344a.992.992,0,0,1-.99.991.965.965,0,0,1-.71-.291.952.952,0,0,1-.291-.7V365.2a.952.952,0,0,1,.291-.7.965.965,0,0,1,.71-.291.992.992,0,0,1,.99.991Z" transform="translate(-635.836 -359.636)" fill="#fff"/>
    </g>
    <g id="Group_50" data-name="Group 50" transform="translate(538.224 261.774)">
      <path id="Path_148" data-name="Path 148" d="M627.285,426.859V413.636a1.033,1.033,0,0,1,.076-.4.976.976,0,0,1,.214-.324.993.993,0,0,1,.319-.214,1.019,1.019,0,0,1,.4-.076h2.934a4.888,4.888,0,0,1,1.329.181,5.032,5.032,0,0,1,1.205.514,5.3,5.3,0,0,1,1.029.8,4.963,4.963,0,0,1,.8,1.024,5.282,5.282,0,0,1,.515,1.2,4.769,4.769,0,0,1,.186,1.329,5.075,5.075,0,0,1-5.059,5.049H629.3v4.135a1.01,1.01,0,1,1-2.02,0Zm2.02-12.213V420.7h1.924a2.892,2.892,0,0,0,1.167-.238,3.132,3.132,0,0,0,.962-.648,3.077,3.077,0,0,0,.657-.962,3.017,3.017,0,0,0,0-2.372,3.08,3.08,0,0,0-.657-.962,3.047,3.047,0,0,0-.967-.643,2.955,2.955,0,0,0-1.162-.234Z" transform="translate(-627.285 -412.626)" fill="#fff"/>
      <path id="Path_149" data-name="Path 149" d="M664.761,429.36v.19a5.449,5.449,0,0,1,1.553-.876,5.2,5.2,0,0,1,1.791-.3,7.677,7.677,0,0,1,.9.057,3.936,3.936,0,0,1,.886.2,1.882,1.882,0,0,1,.672.4.885.885,0,0,1,.267.667.949.949,0,0,1-.081.391,1.094,1.094,0,0,1-.214.319.931.931,0,0,1-.314.215,1,1,0,0,1-.391.076,1.069,1.069,0,0,1-.419-.1,3.5,3.5,0,0,0-1.305-.239,3.273,3.273,0,0,0-1.305.262,3.331,3.331,0,0,0-1.777,1.776,3.27,3.27,0,0,0-.262,1.305v4.344a.992.992,0,0,1-.991.991.966.966,0,0,1-.71-.291.955.955,0,0,1-.29-.7V429.36a.955.955,0,0,1,.29-.7,1,1,0,0,1,1.41,0A.954.954,0,0,1,664.761,429.36Z" transform="translate(-652.462 -423.796)" fill="#fff"/>
      <path id="Path_150" data-name="Path 150" d="M705.056,433.7a5.1,5.1,0,0,1-1.562,3.772,5.334,5.334,0,1,1,0-7.545,5.239,5.239,0,0,1,1.167,1.725A5.484,5.484,0,0,1,705.056,433.7Zm-5.335-3.344a3.244,3.244,0,0,0-1.315.267,3.372,3.372,0,0,0-1.058.719,3.409,3.409,0,0,0-.71,1.062,3.337,3.337,0,0,0,0,2.591,3.407,3.407,0,0,0,.71,1.062,3.367,3.367,0,0,0,1.058.719,3.35,3.35,0,0,0,2.62,0,3.388,3.388,0,0,0,1.062-.724,3.436,3.436,0,0,0,.714-1.063,3.307,3.307,0,0,0,0-2.581,3.44,3.44,0,0,0-.714-1.062,3.39,3.39,0,0,0-1.062-.724A3.222,3.222,0,0,0,699.721,430.36Z" transform="translate(-674.895 -423.796)" fill="#fff"/>
    </g>
    <g id="Group_52" data-name="Group 52" transform="translate(491.811 171.9)">
      <path id="Path_151" data-name="Path 151" d="M563.909,241.743c-8.017,0-15.456,5.98-20.32,11.048-4.865-5.067-12.3-11.048-20.32-11.048A18.17,18.17,0,0,0,505.1,259.68v.236a18.17,18.17,0,0,0,18.167,17.937c8.017,0,15.456-6.014,20.32-11.109,4.865,5.1,12.3,11.109,20.32,11.109a18.171,18.171,0,0,0,18.167-17.937v-.236A18.171,18.171,0,0,0,563.909,241.743ZM520.173,272.02a12.3,12.3,0,0,1-12.3-12.142v-.16a12.3,12.3,0,0,1,12.3-12.142c9.416,0,17.655,12.188,17.655,12.188S529.588,272.02,520.173,272.02ZM579.3,259.878a12.3,12.3,0,0,1-12.3,12.142c-9.416,0-17.655-12.256-17.655-12.256s8.239-12.188,17.655-12.188a12.3,12.3,0,0,1,12.3,12.142Z" transform="translate(-505.102 -215.206)" fill="#fff"/>
      <path id="Path_152" data-name="Path 152" d="M606.4,296.153s2.906-3.381,5.762-6.98a40.661,40.661,0,0,0,4.925,5.772c2.346,2.089,2.834,2.474,2.834,2.474l-4.244,6.381A43.2,43.2,0,0,1,606.4,296.153Z" transform="translate(-567.908 -244.614)" fill="#fff" opacity="0.55"/>
      <path id="Path_153" data-name="Path 153" d="M584.331,258.413c-2.23,2.631-4.279,5.112-5.761,6.98a40.649,40.649,0,0,0-4.926-5.772c-2.346-2.089-2.834-2.474-2.834-2.474l4.244-6.381A43.2,43.2,0,0,1,584.331,258.413Z" transform="translate(-545.844 -220.8)" fill="#fff" opacity="0.55"/>
      <circle id="Ellipse_6" data-name="Ellipse 6" cx="10.351" cy="10.351" r="10.351" transform="translate(47.471 3.993)" fill="#fff"/>
      <circle id="Ellipse_7" data-name="Ellipse 7" cx="7.869" cy="7.869" r="7.869" transform="translate(9.941 8.957)" fill="#fff"/>
      <path id="Path_154" data-name="Path 154" d="M543.082,180.485l-4.52,2.287a.622.622,0,0,1-.744-.149,9.928,9.928,0,0,0-14.756,0,.622.622,0,0,1-.745.149l-4.52-2.287a.617.617,0,0,1-.039-1.079l12.364-7.418a.615.615,0,0,1,.634,0l12.364,7.418A.617.617,0,0,1,543.082,180.485Z" transform="translate(-512.764 -171.9)" fill="#fff"/>
      <g id="Group_51" data-name="Group 51" transform="translate(4.668 7.502)">
        <path id="Path_155" data-name="Path 155" d="M517.982,199.371a.6.6,0,0,1-.6-.6V192.24a.6.6,0,1,1,1.19,0v6.536A.6.6,0,0,1,517.982,199.371Z" transform="translate(-517.387 -191.645)" fill="#fff"/>
      </g>
      <path id="Path_156" data-name="Path 156" d="M516.49,213.048l.534.976.976.534-.976.534-.534.976-.534-.976-.976-.534.976-.534Z" transform="translate(-511.227 -197.414)" fill="#fff"/>
    </g>
  </g>
</svg>
