<svg xmlns="http://www.w3.org/2000/svg" width="28.421" height="28.421" viewBox="0 0 28.421 28.421">
  <path id="icons8-instagram" d="M10.895,3A7.9,7.9,0,0,0,3,10.895V23.526a7.9,7.9,0,0,0,7.895,7.895H23.526a7.9,7.9,0,0,0,7.895-7.895V10.895A7.9,7.9,0,0,0,23.526,3ZM26.684,6.158a1.579,1.579,0,1,1-1.579,1.579A1.58,1.58,0,0,1,26.684,6.158ZM17.21,9.316A7.895,7.895,0,1,1,9.316,17.21,7.9,7.9,0,0,1,17.21,9.316Zm0,3.158a4.737,4.737,0,1,0,4.737,4.737A4.737,4.737,0,0,0,17.21,12.474Z" transform="translate(-3 -3)" fill="#edefff"/>
</svg>
