<svg xmlns="http://www.w3.org/2000/svg" xmlns:xlink="http://www.w3.org/1999/xlink" width="230.062" height="70.858" viewBox="0 0 230.062 70.858">
  <defs>
    <linearGradient id="linear-gradient" y1="0.5" x2="1" y2="0.5" gradientUnits="objectBoundingBox">
      <stop offset="0" stop-color="#5363d2"/>
      <stop offset="0.111" stop-color="#4b6dd3"/>
      <stop offset="0.301" stop-color="#3588d9"/>
      <stop offset="0.545" stop-color="#12b3e1"/>
      <stop offset="0.656" stop-color="#01cae6"/>
    </linearGradient>
    <linearGradient id="linear-gradient-2" x1="0.714" y1="0.614" x2="0.165" y2="0.24" gradientUnits="objectBoundingBox">
      <stop offset="0" stop-color="#9f40c4" stop-opacity="0"/>
      <stop offset="0.548" stop-color="#6e4ea4" stop-opacity="0.537"/>
      <stop offset="1" stop-color="#455b89"/>
    </linearGradient>
    <linearGradient id="linear-gradient-3" x1="0.315" y1="0.221" x2="0.719" y2="0.785" xlink:href="#linear-gradient-2"/>
  </defs>
  <g id="Group_1" data-name="Group 1" transform="translate(-491.811 -279.9)">
    <g id="Group_53" data-name="Group 53" transform="translate(0 -6.211)">
      <g id="Group_49" data-name="Group 49" transform="translate(491.811 293.111)">
        <path id="Path_141" data-name="Path 141" d="M485.464,351.9h-6.4v20.781a1.718,1.718,0,1,1-3.437,0V351.9h-6.4a1.718,1.718,0,1,1,0-3.437h16.242a1.718,1.718,0,1,1,0,3.437Z" transform="translate(-467.504 -348.467)" fill="#455b89"/>
        <path id="Path_142" data-name="Path 142" d="M516.669,377.258a1.635,1.635,0,0,1,1.686,1.685,1.682,1.682,0,0,1-.486,1.216,9.079,9.079,0,1,1-5.933-15.95,9.212,9.212,0,0,1,8.413,5.584,9.087,9.087,0,0,1,.664,3.493,1.608,1.608,0,0,1-.494,1.207,1.672,1.672,0,0,1-1.207.478H506.473a5.547,5.547,0,0,0,.811,1.63,5.7,5.7,0,0,0,1.256,1.264,5.837,5.837,0,0,0,1.589.818,5.633,5.633,0,0,0,1.807.292,5.7,5.7,0,0,0,1.961-.324,5.378,5.378,0,0,0,1.653-.972A1.77,1.77,0,0,1,516.669,377.258Zm.73-5.658a5.449,5.449,0,0,0-.818-1.629,5.8,5.8,0,0,0-2.853-2.083,5.563,5.563,0,0,0-1.791-.292,5.638,5.638,0,0,0-1.8.292,5.947,5.947,0,0,0-1.6.819,5.619,5.619,0,0,0-1.264,1.264,5.256,5.256,0,0,0-.795,1.629Z" transform="translate(-485.384 -356.428)" fill="#455b89"/>
        <path id="Path_143" data-name="Path 143" d="M559.6,380.678v-.324a9.28,9.28,0,0,1-2.642,1.491,8.843,8.843,0,0,1-3.047.519,9.078,9.078,0,1,1,9.077-9.078v7.392a1.688,1.688,0,0,1-1.686,1.686,1.643,1.643,0,0,1-1.207-.495A1.622,1.622,0,0,1,559.6,380.678ZM553.915,367.6a5.519,5.519,0,0,0-2.237.454,5.691,5.691,0,0,0-3.007,3.031,5.674,5.674,0,0,0,0,4.409,5.69,5.69,0,0,0,3.007,3.031,5.7,5.7,0,0,0,4.458,0,5.779,5.779,0,0,0,1.807-1.232,5.847,5.847,0,0,0,1.215-1.808,5.633,5.633,0,0,0,0-4.393,5.853,5.853,0,0,0-1.215-1.807,5.779,5.779,0,0,0-1.807-1.232A5.482,5.482,0,0,0,553.915,367.6Z" transform="translate(-506.615 -356.428)" fill="#455b89"/>
        <path id="Path_144" data-name="Path 144" d="M600.594,377.225a1.636,1.636,0,0,1,1.685,1.686,1.711,1.711,0,0,1-.535,1.248,9.077,9.077,0,1,1,0-13.746,1.647,1.647,0,0,1,.583,1.28,1.664,1.664,0,0,1-.478,1.216,1.622,1.622,0,0,1-1.207.486,1.717,1.717,0,0,1-1.1-.389,6.226,6.226,0,0,0-1.735-1.054,5.368,5.368,0,0,0-1.977-.357,5.567,5.567,0,0,0-2.221.446,5.82,5.82,0,0,0-1.815,1.215,5.655,5.655,0,0,0-1.224,1.807,5.754,5.754,0,0,0,0,4.441,5.649,5.649,0,0,0,1.224,1.808,5.82,5.82,0,0,0,1.815,1.215,5.567,5.567,0,0,0,2.221.446,5.469,5.469,0,0,0,1.977-.348,5.859,5.859,0,0,0,1.719-1.045A1.813,1.813,0,0,1,600.594,377.225Z" transform="translate(-527.812 -356.428)" fill="#455b89"/>
        <path id="Path_145" data-name="Path 145" d="M626.9,372.7a1.688,1.688,0,0,1-1.7,1.7,1.625,1.625,0,0,1-1.192-.495,1.643,1.643,0,0,1-.494-1.207V350.169a1.644,1.644,0,0,1,.494-1.207,1.684,1.684,0,0,1,2.383,0,1.7,1.7,0,0,1,.511,1.207v7.781a8.414,8.414,0,0,1,8.307-1,8.862,8.862,0,0,1,2.7,1.808,8.524,8.524,0,0,1,1.848,2.691,8.1,8.1,0,0,1,.681,3.3V372.7a1.7,1.7,0,0,1-.511,1.207,1.682,1.682,0,0,1-2.383,0,1.641,1.641,0,0,1-.494-1.207v-7.959a4.838,4.838,0,0,0-.405-1.962,5.179,5.179,0,0,0-2.706-2.707,4.841,4.841,0,0,0-1.962-.406,4.892,4.892,0,0,0-1.969.4,5.154,5.154,0,0,0-2.707,2.714,4.923,4.923,0,0,0-.4,1.962Z" transform="translate(-546.405 -348.467)" fill="#455b89"/>
        <path id="Path_146" data-name="Path 146" d="M676.714,377.258a1.635,1.635,0,0,1,1.685,1.685,1.682,1.682,0,0,1-.486,1.216,9.079,9.079,0,1,1-5.933-15.95,9.212,9.212,0,0,1,8.413,5.584,9.078,9.078,0,0,1,.665,3.493,1.61,1.61,0,0,1-.494,1.207,1.675,1.675,0,0,1-1.208.478H666.517a5.547,5.547,0,0,0,.811,1.63,5.7,5.7,0,0,0,1.256,1.264,5.835,5.835,0,0,0,1.589.818,5.633,5.633,0,0,0,1.807.292,5.7,5.7,0,0,0,1.961-.324,5.384,5.384,0,0,0,1.654-.972A1.771,1.771,0,0,1,676.714,377.258Zm.729-5.658a5.428,5.428,0,0,0-.818-1.629,5.792,5.792,0,0,0-2.853-2.083,5.563,5.563,0,0,0-1.791-.292,5.638,5.638,0,0,0-1.8.292,5.938,5.938,0,0,0-1.6.819,5.622,5.622,0,0,0-1.264,1.264,5.266,5.266,0,0,0-.795,1.629Z" transform="translate(-566.326 -356.428)" fill="#455b89"/>
        <path id="Path_147" data-name="Path 147" d="M708.138,365.895v.324a9.29,9.29,0,0,1,2.642-1.491,8.844,8.844,0,0,1,3.048-.519,13.036,13.036,0,0,1,1.532.1,6.68,6.68,0,0,1,1.507.348,3.2,3.2,0,0,1,1.143.689,1.5,1.5,0,0,1,.454,1.134,1.606,1.606,0,0,1-.138.665,1.869,1.869,0,0,1-.365.543,1.6,1.6,0,0,1-.535.365,1.7,1.7,0,0,1-.665.13,1.819,1.819,0,0,1-.713-.178,5.958,5.958,0,0,0-2.22-.406,5.568,5.568,0,0,0-2.221.446,5.671,5.671,0,0,0-3.023,3.022,5.564,5.564,0,0,0-.446,2.221v7.392a1.688,1.688,0,0,1-1.685,1.686,1.642,1.642,0,0,1-1.208-.495,1.621,1.621,0,0,1-.494-1.191V365.895a1.621,1.621,0,0,1,.494-1.191,1.642,1.642,0,0,1,1.208-.495,1.688,1.688,0,0,1,1.685,1.686Z" transform="translate(-587.49 -356.428)" fill="#455b89"/>
      </g>
      <g id="Group_50" data-name="Group 50" transform="translate(570.784 324.822)">
        <path id="Path_148" data-name="Path 148" d="M627.285,436.844v-22.5a1.756,1.756,0,0,1,.13-.673,1.658,1.658,0,0,1,.364-.551,1.688,1.688,0,0,1,.543-.364,1.734,1.734,0,0,1,.681-.13H634a8.316,8.316,0,0,1,2.261.308,8.563,8.563,0,0,1,2.051.875,9.021,9.021,0,0,1,1.75,1.353,8.447,8.447,0,0,1,1.353,1.743,9,9,0,0,1,.876,2.05,8.116,8.116,0,0,1,.316,2.262A8.635,8.635,0,0,1,634,429.808h-3.274v7.035a1.718,1.718,0,1,1-3.437,0Zm3.437-20.781v10.309H634a4.921,4.921,0,0,0,1.985-.405,5.329,5.329,0,0,0,1.637-1.1,5.237,5.237,0,0,0,1.119-1.637,5.134,5.134,0,0,0,0-4.036,5.241,5.241,0,0,0-1.119-1.637,5.186,5.186,0,0,0-1.645-1.094,5.027,5.027,0,0,0-1.977-.4Z" transform="translate(-627.285 -412.626)" fill="#455b89"/>
        <path id="Path_149" data-name="Path 149" d="M666.158,430.054v.324a9.273,9.273,0,0,1,2.642-1.491,8.845,8.845,0,0,1,3.048-.518,13.051,13.051,0,0,1,1.532.1,6.7,6.7,0,0,1,1.507.348,3.2,3.2,0,0,1,1.143.689,1.505,1.505,0,0,1,.454,1.134,1.614,1.614,0,0,1-.137.665,1.862,1.862,0,0,1-.365.543,1.585,1.585,0,0,1-.535.365,1.7,1.7,0,0,1-.665.13,1.818,1.818,0,0,1-.713-.178,5.964,5.964,0,0,0-2.221-.406,5.569,5.569,0,0,0-2.221.446,5.667,5.667,0,0,0-3.023,3.022,5.564,5.564,0,0,0-.446,2.221v7.392a1.688,1.688,0,0,1-1.686,1.686,1.643,1.643,0,0,1-1.207-.495,1.624,1.624,0,0,1-.494-1.191V430.054a1.624,1.624,0,0,1,.494-1.191,1.7,1.7,0,0,1,2.4,0A1.622,1.622,0,0,1,666.158,430.054Z" transform="translate(-645.231 -420.588)" fill="#455b89"/>
        <path id="Path_150" data-name="Path 150" d="M712.541,437.446a8.679,8.679,0,0,1-2.658,6.419,9.077,9.077,0,1,1,0-12.838,8.909,8.909,0,0,1,1.985,2.934A9.326,9.326,0,0,1,712.541,437.446Zm-9.077-5.69a5.521,5.521,0,0,0-2.237.454,5.74,5.74,0,0,0-1.8,1.224,5.8,5.8,0,0,0-1.207,1.807,5.679,5.679,0,0,0,0,4.409,5.8,5.8,0,0,0,1.207,1.808,5.732,5.732,0,0,0,1.8,1.224,5.7,5.7,0,0,0,4.458,0,5.767,5.767,0,0,0,1.807-1.232,5.848,5.848,0,0,0,1.216-1.808,5.627,5.627,0,0,0,0-4.392,5.853,5.853,0,0,0-1.216-1.808,5.768,5.768,0,0,0-1.807-1.232A5.484,5.484,0,0,0,703.464,431.756Z" transform="translate(-661.221 -420.588)" fill="#455b89"/>
      </g>
    </g>
    <g id="Group_52" data-name="Group 52" transform="translate(634.811 279.9)">
      <path id="Path_151" data-name="Path 151" d="M571.616,241.743c-9.067,0-17.481,6.764-22.983,12.5-5.5-5.732-13.916-12.5-22.983-12.5A20.551,20.551,0,0,0,505.1,262.031v.267a20.551,20.551,0,0,0,20.548,20.288c9.067,0,17.481-6.8,22.983-12.565,5.5,5.763,13.916,12.565,22.983,12.565A20.552,20.552,0,0,0,592.164,262.3v-.267A20.552,20.552,0,0,0,571.616,241.743Zm-49.468,34.245a13.912,13.912,0,0,1-13.909-13.734v-.18a13.911,13.911,0,0,1,13.909-13.733c10.65,0,19.968,13.785,19.968,13.785S532.8,275.988,522.148,275.988Zm66.88-13.734a13.912,13.912,0,0,1-13.909,13.734c-10.65,0-19.969-13.862-19.969-13.862s9.319-13.785,19.969-13.785a13.911,13.911,0,0,1,13.909,13.733Z" transform="translate(-505.102 -211.728)" fill="url(#linear-gradient)"/>
      <path id="Path_152" data-name="Path 152" d="M606.4,297.068s3.287-3.824,6.517-7.895a45.988,45.988,0,0,0,5.571,6.528c2.654,2.363,3.206,2.8,3.206,2.8l-4.8,7.217A48.863,48.863,0,0,1,606.4,297.068Z" transform="translate(-562.864 -238.775)" opacity="0.55" fill="url(#linear-gradient-2)"/>
      <path id="Path_153" data-name="Path 153" d="M586.1,259.415c-2.522,2.976-4.84,5.782-6.516,7.895a45.97,45.97,0,0,0-5.571-6.528c-2.654-2.363-3.205-2.8-3.205-2.8l4.8-7.217A48.869,48.869,0,0,1,586.1,259.415Z" transform="translate(-542.572 -216.873)" opacity="0.55" fill="url(#linear-gradient-3)"/>
      <circle id="Ellipse_6" data-name="Ellipse 6" cx="11.708" cy="11.708" r="11.708" transform="translate(53.692 4.517)" fill="#01cae6"/>
      <circle id="Ellipse_7" data-name="Ellipse 7" cx="8.901" cy="8.901" r="8.901" transform="translate(11.244 10.131)" fill="#5363d2"/>
      <path id="Path_154" data-name="Path 154" d="M546.439,181.61l-5.112,2.587a.7.7,0,0,1-.842-.168,11.229,11.229,0,0,0-16.689,0,.7.7,0,0,1-.842.168l-5.112-2.587a.7.7,0,0,1-.044-1.22L531.782,172a.7.7,0,0,1,.717,0l13.984,8.39A.7.7,0,0,1,546.439,181.61Z" transform="translate(-512.149 -171.9)" fill="#455b89"/>
      <g id="Group_51" data-name="Group 51" transform="translate(5.28 8.485)">
        <path id="Path_155" data-name="Path 155" d="M518.06,200.384a.673.673,0,0,1-.673-.673v-7.393a.673.673,0,1,1,1.346,0v7.393A.673.673,0,0,1,518.06,200.384Z" transform="translate(-517.387 -191.645)" fill="#455b89"/>
      </g>
      <path id="Path_156" data-name="Path 156" d="M516.687,213.048l.6,1.1,1.1.6-1.1.6-.6,1.1-.6-1.1-1.1-.6,1.1-.6Z" transform="translate(-510.735 -195.365)" fill="#5363d2"/>
    </g>
  </g>
</svg>
