<svg xmlns="http://www.w3.org/2000/svg" xmlns:xlink="http://www.w3.org/1999/xlink" width="50.81" height="45.732" viewBox="0 0 50.81 45.732">
  <defs>
    <linearGradient id="linear-gradient" x1="0.5" x2="0.5" y2="1" gradientUnits="objectBoundingBox">
      <stop offset="0" stop-color="#22cae6"/>
      <stop offset="1" stop-color="#5363d2"/>
    </linearGradient>
  </defs>
  <path id="icons8-money" d="M4.541,3A2.541,2.541,0,0,0,2,5.541V30.946a2.541,2.541,0,0,0,2.541,2.541H50.27a2.541,2.541,0,0,0,2.541-2.541V5.541A2.541,2.541,0,0,0,50.27,3ZM9.4,8.081H45.412A3.811,3.811,0,0,0,47.729,10.4v15.69a3.811,3.811,0,0,0-2.317,2.317H9.4a3.811,3.811,0,0,0-2.317-2.317V10.4A3.811,3.811,0,0,0,9.4,8.081Zm18.007,2.541a7.622,7.622,0,1,0,7.622,7.622A7.622,7.622,0,0,0,27.405,10.622ZM14.7,15.7a2.541,2.541,0,1,0,2.541,2.541A2.54,2.54,0,0,0,14.7,15.7Zm25.405,0a2.541,2.541,0,1,0,2.541,2.541A2.54,2.54,0,0,0,40.108,15.7ZM7.056,38.567,45.769,48.65a2.54,2.54,0,0,0,3.1-1.821l2.153-8.262h-5.25l-.6,2.287a3.8,3.8,0,0,0-2.813,1.652l-15.134-3.94Z" transform="translate(-2 -3)" fill="url(#linear-gradient)"/>
</svg>
