<svg xmlns="http://www.w3.org/2000/svg" xmlns:xlink="http://www.w3.org/1999/xlink" width="199.395" height="196.796" viewBox="0 0 199.395 196.796">
  <defs>
    <linearGradient id="linear-gradient" x1="0.598" y1="1.944" x2="1.313" y2="0.361" gradientUnits="objectBoundingBox">
      <stop offset="0" stop-color="#759afc"/>
      <stop offset="0.95" stop-color="#8eaffc"/>
      <stop offset="1" stop-color="#96b6fc"/>
    </linearGradient>
    <clipPath id="clip-path">
      <path id="Path_709" data-name="Path 709" d="M108.654,13a95.654,95.654,0,1,0,95.654,95.654A95.654,95.654,0,0,0,108.654,13Z" transform="translate(-13 -13)" fill="#edefff"/>
    </clipPath>
  </defs>
  <g id="Group_430" data-name="Group 430" transform="translate(-247 -314.899)">
    <g id="icons8-family" transform="translate(247 314.899)">
      <path id="Path_551" data-name="Path 551" d="M16.488,27a5.488,5.488,0,1,0,5.488,5.488A5.488,5.488,0,0,0,16.488,27Z" transform="translate(-11 8.876)" fill="#01cae6"/>
      <path id="Path_552" data-name="Path 552" d="M78.744,12a2.744,2.744,0,1,0,2.744,2.744A2.744,2.744,0,0,0,78.744,12Z" transform="translate(87.723 -6.075)" fill="#5363d2"/>
      <path id="Path_553" data-name="Path 553" d="M108.654,13a95.654,95.654,0,1,0,95.654,95.654A95.654,95.654,0,0,0,108.654,13Z" transform="translate(-7.512 -13)" fill="url(#linear-gradient)"/>
      <path id="Path_554" data-name="Path 554" d="M89.976,11a10.976,10.976,0,1,0,10.976,10.976A10.976,10.976,0,0,0,89.976,11Z" transform="translate(92.955 -7.819)" fill="#95b4ff"/>
      <path id="Path_555" data-name="Path 555" d="M90.488,22a5.488,5.488,0,1,0,5.488,5.488A5.488,5.488,0,0,0,90.488,22Z" transform="translate(103.419 11.365)" fill="#01cae6"/>
      <path id="Path_556" data-name="Path 556" d="M191.659,100.159a5.5,5.5,0,1,0,5.162,5.488A5.332,5.332,0,0,0,191.659,100.159ZM21.323,59C15.622,59,11,63.914,11,69.976s4.622,10.976,10.323,10.976,10.323-4.914,10.323-10.976S27.025,59,21.323,59Z" transform="translate(-11 55.478)" fill="#7397ff"/>
      <path id="Path_557" data-name="Path 557" d="M28.488,85a5.488,5.488,0,1,0,5.488,5.488A5.488,5.488,0,0,0,28.488,85Z" transform="translate(8.023 100.821)" fill="#01cae6"/>
      <path id="Path_558" data-name="Path 558" d="M22.86,51a6.86,6.86,0,1,0,6.86,6.86A6.86,6.86,0,0,0,22.86,51Z" transform="translate(-2.28 46.835)" fill="#fff"/>
      <path id="Path_559" data-name="Path 559" d="M22.744,66a2.744,2.744,0,1,0,2.744,2.744A2.744,2.744,0,0,0,22.744,66Z" transform="translate(4.695 70.931)" fill="#f1bc19"/>
      <path id="Path_560" data-name="Path 560" d="M81.744,33a2.744,2.744,0,1,0,2.744,2.744A2.744,2.744,0,0,0,81.744,33Z" transform="translate(95.845 18.479)" fill="#fff"/>
    </g>
    <g id="Mask_Group_1" data-name="Mask Group 1" transform="translate(252.488 315.191)" clip-path="url(#clip-path)">
      <g id="Group_340" data-name="Group 340" transform="translate(50.237 43.492)">
        <g id="Group_337" data-name="Group 337" transform="translate(0 57.892)">
          <path id="Path_659" data-name="Path 659" d="M231.61,134.362c-12.2,1.786-15.108.491-18.179,13.757s-4.913,23.951-3.807,24.934,8.475,3.808,14.985,3.931a38.944,38.944,0,0,0,10.687-1.106S236.646,133.625,231.61,134.362Z" transform="translate(-209.3 -114.558)" fill="#2f60bf"/>
          <path id="Path_660" data-name="Path 660" d="M221.147,221.289c-1.474.4-2.672,1.382-2.672,2.794s-.276,1.659,1.75,1.659,4.054-.062,4.177-.339-.092-3.408-.675-4.053S221.147,221.289,221.147,221.289Z" transform="translate(-209.647 -117.837)" fill="#7e56b2"/>
          <path id="Path_661" data-name="Path 661" d="M218.474,224.294c-.013,1.312-.218,1.554,1.752,1.554,2.027,0,4.054-.062,4.177-.339a6.659,6.659,0,0,0-.045-1.643A34.013,34.013,0,0,1,218.474,224.294Z" transform="translate(-209.647 -117.944)" fill="#2b183f"/>
          <path id="Path_662" data-name="Path 662" d="M222.454,164.617c-4.162.333-7.247,1.719-7.329,12.693s3.726,42.5,3.726,42.5a6.575,6.575,0,0,0,5.159-.655c2.293-1.556,1.884-31.281,2.538-34.966S224.5,164.453,222.454,164.617Z" transform="translate(-209.52 -115.702)" fill="#452962"/>
          <path id="Path_663" data-name="Path 663" d="M224.127,166.669c-.29,4.769-.907,9.5-1.325,14.277-.506,5.784-.266,11.577-.593,17.367-.408,7.245-.221,14.507-.21,21.76a5.3,5.3,0,0,0,2.268-.842c2.293-1.556,1.884-31.281,2.538-34.966C227.316,181.4,225.793,171.045,224.127,166.669Z" transform="translate(-209.778 -115.78)" fill="#2b183f"/>
          <path id="Path_664" data-name="Path 664" d="M222.145,220.569c-.462,2.507,10.155,5.568,10.155,2.088S223.006,215.9,222.145,220.569Z" transform="translate(-209.785 -117.731)" fill="#2b183f"/>
          <path id="Path_665" data-name="Path 665" d="M225.125,222.323l1.146-10.441,3.89-.287.614,11.669Z" transform="translate(-209.899 -117.479)" fill="#fef6f0"/>
          <path id="Path_666" data-name="Path 666" d="M229.68,165.978c7.656.86,9.581,3.685,8.107,11.71s-3.03,20.389-3.522,24.156-1.965,18.834-1.965,18.834-1.924-4.177-5.978-3.317-4.177,1.229-4.177,1.229.615-11.915,1.229-21.251-.123-27.76-.123-27.76S226.036,165.568,229.68,165.978Z" transform="translate(-209.786 -115.753)" fill="#452962"/>
          <path id="Path_667" data-name="Path 667" d="M236.367,186.718c.469-3.173.97-6.346,1.463-9.031,1.474-8.026-.451-10.849-8.107-11.71-3.644-.41-6.428,3.6-6.428,3.6s.1,2.53.2,6.185C228.566,178,232.907,182.192,236.367,186.718Z" transform="translate(-209.829 -115.753)" fill="#2b183f"/>
          <path id="Path_668" data-name="Path 668" d="M244.366,140.3c3.7,2.436,4.031,11.034,4.031,11.034s2.538-4.913,3.6-5.814,4.422-1.31,4.095,1.639-2.7,10.481-5.487,12.365-7.861-.983-9.58-5.487S244.366,140.3,244.366,140.3Z" transform="translate(-210.487 -114.783)" fill="#fef6f0"/>
          <path id="Path_669" data-name="Path 669" d="M225.731,134.234c-1.075,1.075-7.124,6.755-7.431,7.923s-4.094,29.664-4.258,31.138,7.7-.246,14.33,1.064,10.318,1.31,10.564.9.327-8.68,2.048-18.67,4.094-15.384,2.375-16.521-5.528-2.968-6.1-3.685a3.376,3.376,0,0,1-.675-1.514Z" transform="translate(-209.479 -114.553)" fill="#fef6f0"/>
          <path id="Path_670" data-name="Path 670" d="M241.112,157.205a6.3,6.3,0,0,1,.6.517c.06.06.107.121.163.181.045-.275.087-.545.135-.823.645-3.745,1.381-6.844,1.959-9.316-.611-.2-1.218-.383-1.823-.551a20.111,20.111,0,0,1-.763,9.312C241.309,156.745,241.211,156.975,241.112,157.205Z" transform="translate(-210.503 -115.044)" fill="#e6e0eb"/>
          <path id="Path_671" data-name="Path 671" d="M224.747,162.028c1.041-4.889,6.546-9.268,4.237-14.555-.062-.141-1.692-.693-1.747-.836a35.862,35.862,0,0,0-3.648.943,5.872,5.872,0,0,1-5.882-1.075c-1.152,8.109-3.536,26.09-3.665,27.254-.147,1.324,6.179.078,12.275.758A17.788,17.788,0,0,1,224.747,162.028Z" transform="translate(-209.479 -115.017)" fill="#e6e0eb"/>
          <path id="Path_672" data-name="Path 672" d="M220.876,139.282c-.262.84,5.466,4.3,5.589,7.923s-3.378,13.266-11.669,19.777a19.28,19.28,0,0,0-.245,2.149c0,.675,6.694-2.641,11.239-11.484s3.869-11.3,1.6-14.8a15.578,15.578,0,0,0-5.22-5.036A2.772,2.772,0,0,0,220.876,139.282Z" transform="translate(-209.499 -114.688)" fill="#2f60bf"/>
          <rect id="Rectangle_226" data-name="Rectangle 226" width="8.69" height="16.214" rx="4.345" transform="translate(26.785 24.563) rotate(180)" fill="#febdaa"/>
          <path id="Path_673" data-name="Path 673" d="M236.8,131.712V126.8a4.345,4.345,0,1,0-8.69,0v1.364C231.033,129.317,233.9,130.547,236.8,131.712Z" transform="translate(-210.011 -114.108)" fill="#c86c8e"/>
          <path id="Path_674" data-name="Path 674" d="M227.128,133.085s6.675,4.709,7.33,4.586,2.415-3.112,2.415-3.112,1.024,2.416-.164,3.972a10.472,10.472,0,0,1-2.416,2.333s-8.762-4.422-8.762-6.469C225.532,133.9,227.128,133.085,227.128,133.085Z" transform="translate(-209.914 -114.51)" fill="#fff"/>
          <path id="Path_675" data-name="Path 675" d="M222.9,174.91c1.392-.492,2.089.573,2.744,1.6a3.417,3.417,0,0,1,.7,2.007c.2,1.106.777,1.556.614,1.842s-1.106.287-1.106.287a10.082,10.082,0,0,1,.123,2.457,1.5,1.5,0,0,1-1.106,1.1,3.666,3.666,0,0,1-2.252-.164c-.7-.45-1.105-.2-1.474-2.988s-.655-4.668-.655-5.036S222.9,174.91,222.9,174.91Z" transform="translate(-209.723 -116.087)" fill="#febdaa"/>
          <path id="Path_676" data-name="Path 676" d="M218.5,142.055c-2.438,2.786-1.719,4.422-3.275,12.037s-.819,8.681,1.965,14.986a65.786,65.786,0,0,1,2.785,6.633,39.971,39.971,0,0,0,4.749-1.474c.9-.492-2.62-10.892-2.7-13.675s2.947-11.956,2.784-13.512S219.644,140.745,218.5,142.055Z" transform="translate(-209.494 -114.84)" fill="#fef6f0"/>
          <path id="Path_677" data-name="Path 677" d="M226.491,221.394c1.333,0,3.039,0,4.207,1.535s1.474,2.4,1.351,3.04-1.565,1.167-5.312,1.167-2.365-3.1-2.242-3.839A1.963,1.963,0,0,1,226.491,221.394Z" transform="translate(-209.861 -117.85)" fill="#7e56b2"/>
          <path id="Path_678" data-name="Path 678" d="M231.464,225.235a29.044,29.044,0,0,1-4.267.414,21.52,21.52,0,0,1-3.049-.291c.016.972.519,1.92,2.588,1.92,3.747,0,5.19-.523,5.312-1.167a1.883,1.883,0,0,0-.119-.987A2.977,2.977,0,0,1,231.464,225.235Z" transform="translate(-209.862 -117.991)" fill="#2b183f"/>
          <path id="Path_679" data-name="Path 679" d="M239.125,137.17a14.724,14.724,0,0,1,2.538,1.392c.2.327.123,17.646.041,20.185a19,19,0,0,1-.9,4.913s-1.843-14.883-1.679-19.55S239.125,137.17,239.125,137.17Z" transform="translate(-210.428 -114.664)" fill="#2f60bf"/>
          <path id="Path_680" data-name="Path 680" d="M225.345,116.465c5.462-3.933,10.973,0,11.873,1.392a7.163,7.163,0,0,1,1.024,2.661c.2.573,2.293,2.128,2.293,3.807s.86,4.34.369,4.709-7.206,1.228-9.048.572-7.657-5.24-8.8-7.329S224.321,117.2,225.345,116.465Z" transform="translate(-209.809 -113.817)" fill="#febdaa"/>
          <path id="Path_681" data-name="Path 681" d="M227.647,126.843c.97-.081,1.942-.14,2.914-.183.04-.116.065-.235.11-.35.1-.288.194-.577.268-.87a8.332,8.332,0,0,0-.054-1.112l.052.384a7.213,7.213,0,0,1,.811-4.112,6.815,6.815,0,0,1,4.026-3.1,5.008,5.008,0,0,1,.97-.2,8.941,8.941,0,0,0-11.4-.843c-1.024.737-3.44,3.726-2.293,5.813A21.194,21.194,0,0,0,227.647,126.843Z" transform="translate(-209.809 -113.817)" fill="#c86c8e"/>
          <path id="Path_682" data-name="Path 682" d="M237.568,118.6a4.7,4.7,0,0,0-3.255-4.361c-3.377-1.289-9.642.368-11.915,2.211s-1.965,3.071-1.965,3.071-.737-1.659-1.29-1.6.553,1.659.553,1.659-1.229-.123-1.229.614,1.167.43,1.167.43a3.607,3.607,0,0,0-.307,2.333,3,3,0,0,0,.921,1.9,4.938,4.938,0,0,0,.86,3.193,5.171,5.171,0,0,0,2.272,1.658,4.977,4.977,0,0,0,1.413,2.334,2.37,2.37,0,0,0,1.6.492s2.456-1.6,1.659-3.317-.553-3.869.122-3.685a12.913,12.913,0,0,0,2.456.43,21.616,21.616,0,0,0-.859-3.44,7.044,7.044,0,0,0,1.351-2.272,10.682,10.682,0,0,0,.185-1.843s1.044.307,1.289-1.352l.245-1.658a17.482,17.482,0,0,0,2.764,1.9,4.189,4.189,0,0,0,.737.122Z" transform="translate(-209.647 -113.779)" fill="#f0b384"/>
          <path id="Path_683" data-name="Path 683" d="M234.528,114.247a5.9,5.9,0,0,0-.62-.193,6.348,6.348,0,0,1-3.181,1.714c-5.043,1.172-4.763,3.955-5.243,8.628a30.179,30.179,0,0,1-1.337,6.634,2.962,2.962,0,0,0,.862,1.029,2.37,2.37,0,0,0,1.6.492s2.456-1.6,1.659-3.317-.553-3.87.122-3.685a12.91,12.91,0,0,0,2.456.43,21.616,21.616,0,0,0-.859-3.44,7.044,7.044,0,0,0,1.351-2.272,10.734,10.734,0,0,0,.184-1.843s1.045.307,1.29-1.352l.245-1.658a17.479,17.479,0,0,0,2.764,1.9,4.19,4.19,0,0,0,.737.122l1.228,1.167A4.7,4.7,0,0,0,234.528,114.247Z" transform="translate(-209.862 -113.79)" fill="#e28c7c"/>
          <ellipse id="Ellipse_40" data-name="Ellipse 40" cx="2.057" cy="2.216" rx="2.057" ry="2.216" transform="translate(14.71 14.076) rotate(-61.723)" fill="#febdaa"/>
          <path id="Path_684" data-name="Path 684" d="M226.4,126.888s1.494-.553,2.191.429" transform="translate(-209.947 -114.269)" fill="none" stroke="#c86c8e" stroke-miterlimit="10" stroke-width="0.25"/>
        </g>
        <g id="Group_339" data-name="Group 339" transform="translate(36.087 0)">
          <g id="Group_338" data-name="Group 338" transform="translate(0 8.295)">
            <path id="Path_685" data-name="Path 685" d="M256.315,219.292c-.737,1.761-.9,4.709-.164,5.323s6.1.287,6.1.287l-.041,1.351a21.788,21.788,0,0,0,4.34.737,15.073,15.073,0,0,0,4.3-.819l-3.4-4.872s-8.148-3.194-8.844-3.235S256.315,219.292,256.315,219.292Z" transform="translate(-247.141 -68.127)" fill="#2b183f"/>
            <path id="Path_686" data-name="Path 686" d="M271.039,219.33s-.082,2.948-.164,3.849,0,2.743,0,2.743l-2.621-.245-.164-1.514s-1.106.245-1.474-.369a6.519,6.519,0,0,0-3.07-3.194c-2.334-1.31-3.4-2.17-5.077-2.21s-2.129.654-2.129.654.123-1.187.574-1.433,2.17-.368,2.621-.573,2.415-5.158,3.6-5.527S271.039,217.979,271.039,219.33Z" transform="translate(-247.166 -67.879)" fill="#452962"/>
            <path id="Path_687" data-name="Path 687" d="M279.365,215.6c-4.1.348-4.5,3.357-4.913,5.4l-.409,2.047a18.392,18.392,0,0,0,2.62,1.024c.492.041.532-.532.532-.532s.245.942.492,1.106a43.087,43.087,0,0,0,7.861,1.146c2.129-.04,1.883-.245,1.843-1.638a3.375,3.375,0,0,0-1.433-2.784,4.981,4.981,0,0,1-1.31-3.726C284.769,216.455,281.289,215.432,279.365,215.6Z" transform="translate(-247.836 -68.033)" fill="#452962"/>
            <path id="Path_688" data-name="Path 688" d="M275.06,111.627c12.171-2.433,17.442,12.161,18.056,17.319s-.123,24.444-1.6,31.936-2.7,23.214-3.93,31.445-2.58,22.355-2.58,22.355a9.827,9.827,0,0,0-5.527-1.229,13.576,13.576,0,0,0-5.221,2.456s-.675-15.6.185-32.182.982-23.338-.492-38.446S271.989,112.242,275.06,111.627Z" transform="translate(-247.788 -64.091)" fill="#7e56b2"/>
            <path id="Path_689" data-name="Path 689" d="M275.632,144.475a30.521,30.521,0,0,0-2.109-3.28c.138,1.755.291,3.5.459,5.217,1.474,15.108,1.351,21.863.492,38.446l0,.063c.82-2.608,1.473-22.584,2.15-25.243C279.511,148.344,277.971,149.237,275.632,144.475Z" transform="translate(-247.816 -65.22)" fill="#66459b"/>
            <path id="Path_690" data-name="Path 690" d="M270.025,112.914c-9.4-.776-12.9,11.178-13.389,22.232s3.071,33.287,3.317,35.744-3.07,12.528-.123,42.131c0,0,1.966-1.719,3.849-.982s5.364,4.3,6.51,5.282l1.147.982s-.368-7.9,0-16.377.164-29.439.737-34.925,4.176-19.243,4.913-23.01S279.442,113.691,270.025,112.914Z" transform="translate(-247.176 -64.149)" fill="#7e56b2"/>
            <path id="Path_691" data-name="Path 691" d="M293.116,128.946c-.614-5.158-5.886-19.752-18.056-17.319-2.189.438-2.567,9.678-2.071,20.419a61.179,61.179,0,0,1,6.482,1.583c5.177,1.625,7.412,5.776,9.234,10.669a47.673,47.673,0,0,1,2.7,17.208c.038-.206.075-.429.114-.623C292.993,153.39,293.73,134.106,293.116,128.946Z" transform="translate(-247.789 -64.091)" fill="#66459b"/>
            <path id="Path_692" data-name="Path 692" d="M257.778,128.651c6.442,2.435,13.283,2.836,19.846,4.681-.08-8.876-1.543-19.921-7.57-20.418-7.519-.622-11.258,6.9-12.707,15.6C257.49,128.558,257.632,128.6,257.778,128.651Z" transform="translate(-247.204 -64.149)" fill="#66459b"/>
            <path id="Path_693" data-name="Path 693" d="M271.331,71.577c5.976-1.055,4.34-.246,8.844.982s14.411,4.5,14.493,5.323-4.421,31.035-4.176,33.574,2.293,13.839,1.8,14.411-5.9,1.72-5.9,1.72a44.477,44.477,0,0,1-6.552,1.556c-3.03.409-9.171.736-9.171.736a85.5,85.5,0,0,1-9.335-2.128,17.979,17.979,0,0,1-4.5-2.293s2.866-14.331,2.866-15.313-7.779-28.415-7.534-28.907S269.939,71.822,271.331,71.577Z" transform="translate(-247.008 -62.568)" fill="#fff"/>
            <path id="Path_694" data-name="Path 694" d="M277.629,68.745c-1.065-1.945-5.426-.962-8.434.635s-2.089,6.632-1.352,7.309,9.213-2.457,10.072-4.115S277.629,68.745,277.629,68.745Z" transform="translate(-247.573 -62.438)" fill="#b4b4b4"/>
            <rect id="Rectangle_227" data-name="Rectangle 227" width="10.318" height="17.073" rx="5.159" transform="translate(34.053 13.334) rotate(141.352)" fill="#c86c8e"/>
            <path id="Path_695" data-name="Path 695" d="M277.854,68.787s1.064,4.667-1.065,7.288a24.949,24.949,0,0,1-3.746,3.849l6.448,3.684s1.391-9.908,1.146-11.054S277.854,68.787,277.854,68.787Z" transform="translate(-247.798 -62.481)" fill="#e8e8e8"/>
            <path id="Path_696" data-name="Path 696" d="M268.053,72.872l4.749,7.207s-3.767,2.375-4.339,3.357c0,0-3.685-7.124-3.358-8.516S268.053,72.872,268.053,72.872Z" transform="translate(-247.497 -62.635)" fill="#fff"/>
            <path id="Path_697" data-name="Path 697" d="M293.555,139.57c-.878,2.179-8.271-3.194-6.8-7.165S294.742,136.622,293.555,139.57Z" transform="translate(-248.309 -64.847)" fill="#2f60bf"/>
            <path id="Path_698" data-name="Path 698" d="M290.418,133c-1.323-1.455-3.193.062-4.995-.184s-1.924-.164-3.03.819-.942,1.146-1.72,2.7.123,1.638.9,1.8,3.234-2.006,3.6-1.556-.327,3.357-2.129,4.5-3.684,3.193-3.644,3.849a4.1,4.1,0,0,0,1.966,2.21c.7.287,6.55-2.047,7.861-4.258a36.881,36.881,0,0,0,2.661-7.329C292.056,134.941,291.032,133.671,290.418,133Z" transform="translate(-248.039 -64.885)" fill="#efaa9a"/>
            <path id="Path_699" data-name="Path 699" d="M293.563,137.555a7.049,7.049,0,0,0-3.153-5.036c-3.03-2.129-3.644-2.129-3.644-2.129s3.807-14.331,4.463-18.835,1.474-18.834,2.048-21.372.982-13.1,2.7-12.038,5.814,19.9,6.47,30.79S293.563,137.555,293.563,137.555Z" transform="translate(-248.317 -62.832)" fill="#e8e8e8"/>
            <path id="Path_700" data-name="Path 700" d="M252.611,133.085c-2.211.655-4.34,1.638-3.89,6.837a20.246,20.246,0,0,0,2.743,8.558c.083.328,2.58.819,2.99.532s2.006-1.024,1.8-1.6c0,0,.982-.532.942-1.31a3.81,3.81,0,0,0,1.31-1.883c.122-.942.369-3.358.082-3.808s-3.93-5.241-3.93-5.241Z" transform="translate(-246.876 -64.913)" fill="#efaa9a"/>
            <path id="Path_701" data-name="Path 701" d="M252.16,134.064c2.206-3.309,4.862,2.058,5.927,2.917s2.242,2.14,1.75,3.654-.092,1.966-.8,1.659a2.584,2.584,0,0,1-1.32-1.9c-.092-.706-.031-1.812-1.26-2s-4.544-.982-4.544-.982S252.1,134.156,252.16,134.064Z" transform="translate(-246.999 -64.91)" fill="#efaa9a"/>
            <path id="Path_702" data-name="Path 702" d="M257.729,140.6c.092-.675.122-1.689-1.382-1.843s-2.457-.338-2.7.184-.153.615-.153.615-1.045-.092-1.259.245.185.891.553.952c0,0-.461.676.061.983a2.771,2.771,0,0,0,1.352.245.7.7,0,0,0,.46.86c.646.245,2.365,1.135,2.365,1.135s.768-.245.645-.859.276-1.013.123-1.628A1.768,1.768,0,0,1,257.729,140.6Z" transform="translate(-247.008 -65.121)" fill="#febdaa"/>
            <path id="Path_703" data-name="Path 703" d="M251.967,81.638c-1.146.615-1.106,7.534-2.006,12.57s-1.965,15.313-2.5,19.243-1.514,1.719.88,25.119c0,0,4.054-2.887,6.633-3.01l2.58-.123a116.474,116.474,0,0,1-.185-12.16,131.547,131.547,0,0,1,1.719-15.538C259.276,106.7,251.967,81.638,251.967,81.638Z" transform="translate(-246.805 -62.967)" fill="#e8e8e8"/>
          </g>
          <path id="Path_704" data-name="Path 704" d="M261.237,59.144c-4.6,4.179-5.221,6.572-4.607,9.4a11.457,11.457,0,0,0,1.412,4.177c.492.859,1.29.737,1.29,1.658s2.273,3.317,4.176,4.668,1.044,3.624,3.747,3.132,6.632-4.851,6.817-7.247-3.193-9.028-4.791-11.178S263.939,56.687,261.237,59.144Z" transform="translate(-247.17 -53.796)" fill="#efaa9a"/>
          <path id="Path_705" data-name="Path 705" d="M263.569,67.435c5.4,3.317,6.933,3.373,9.163,2.683a37.34,37.34,0,0,0-3.449-6.368c-1.6-2.149-5.343-7.062-8.045-4.606-3.793,3.448-4.878,5.681-4.8,7.943C256.916,67.15,261.105,65.924,263.569,67.435Z" transform="translate(-247.17 -53.796)" fill="#c86c8e"/>
          <path id="Path_706" data-name="Path 706" d="M271.666,71.3c-1.59-.11-1.9-1.658-3.009-2.334s-2.334-.614-2.825-2.15-.86-1.289-2.7-.982-.43-1.474-.43-1.474a4.476,4.476,0,0,1-3.317,1.9c-2.333.245-2.026-1.412-2.026-1.412s-1.9,1.9-2.7,1.106,2.395-6.142,2.763-6.755-2.456.859-1.658-.86,5.1-2.58,5.1-2.58a3.617,3.617,0,0,1,2.457-1.9c1.719-.307,6.387,1.72,6.387,1.72s-1.536-2.4-.492-1.9a2.355,2.355,0,0,1,1.106,1.9s1.351-.922,1.843-.308-1.474,1.106-1.474,1.106,3.01,1.044,3.44,2.15.184,1.412.184,1.412a6.312,6.312,0,0,1,1.167,2.58,5.649,5.649,0,0,1-.43,1.966s.307,2.149.307,3.01S273.447,71.428,271.666,71.3Z" transform="translate(-247.097 -53.612)" fill="#f0b384"/>
          <path id="Path_707" data-name="Path 707" d="M268.145,61.672c-3.388-.6-6.682,1.667-10.369.972a15.27,15.27,0,0,1-1.845-.482c-.88,1.7-1.733,3.644-1.275,4.1.8.8,2.7-1.106,2.7-1.106s-.307,1.658,2.026,1.412a4.545,4.545,0,0,0,3.171-1.7c-.307.457-.878,1.513.575,1.27,1.843-.307,2.211-.552,2.7.982s1.719,1.474,2.825,2.149,1.418,2.225,3.009,2.334c1.781.123,3.685-2.948,3.685-3.807,0-.385-.062-1.024-.13-1.616C273.079,63.95,270.72,62.127,268.145,61.672Z" transform="translate(-247.098 -53.913)" fill="#e28c7c"/>
          <ellipse id="Ellipse_41" data-name="Ellipse 41" cx="1.781" cy="2.73" rx="1.781" ry="2.73" transform="translate(24.301 12.665) rotate(-6.536)" fill="#efaa9a"/>
          <path id="Path_708" data-name="Path 708" d="M274.668,67.787s-.921.43-.859,2.7" transform="translate(-247.827 -54.148)" fill="none" stroke="#c86c8e" stroke-miterlimit="10" stroke-width="0.25"/>
        </g>
      </g>
    </g>
  </g>
</svg>
