<svg xmlns="http://www.w3.org/2000/svg" xmlns:xlink="http://www.w3.org/1999/xlink" width="200" height="199.404" viewBox="0 0 200 199.404">
  <defs>
    <linearGradient id="linear-gradient" x1="0.5" x2="0.5" y2="1" gradientUnits="objectBoundingBox">
      <stop offset="0" stop-color="#f6d365"/>
      <stop offset="1" stop-color="#fda085"/>
    </linearGradient>
    <clipPath id="clip-path">
      <path id="Path_1048" data-name="Path 1048" d="M108.674,12.3a97.062,97.062,0,1,0,97.074,97.062A97.068,97.068,0,0,0,108.674,12.3Z" transform="translate(-11.6 -12.3)" fill="#edefff"/>
    </clipPath>
  </defs>
  <g id="Group_621" data-name="Group 621" transform="translate(-1008.982 -2058.452)">
    <g id="Group_432" data-name="Group 432" transform="translate(1008.982 2058.452)">
      <g id="icons8-see_male_account">
        <path id="Path_624" data-name="Path 624" d="M21.219,95.851a2.377,2.377,0,1,0,2.319,2.376,2.348,2.348,0,0,0-2.319-2.376ZM173.224,30.9a1.849,1.849,0,1,0,1.8,1.848,1.826,1.826,0,0,0-1.8-1.848Z" transform="translate(5.919 16.701)" fill="#fff"/>
        <path id="Path_625" data-name="Path 625" d="M165.555,11.6a2.377,2.377,0,1,0,2.316,2.376A2.347,2.347,0,0,0,165.555,11.6ZM21.716,147.839a2.377,2.377,0,1,0,2.316,2.376,2.347,2.347,0,0,0-2.316-2.376Z" transform="translate(0.921 -1.812)" fill="#fda085"/>
        <path id="Path_626" data-name="Path 626" d="M108.674,12.3a97.062,97.062,0,1,0,97.074,97.062A97.068,97.068,0,0,0,108.674,12.3Z" transform="translate(-6.055 -12.3)" fill="url(#linear-gradient)"/>
        <path id="Path_627" data-name="Path 627" d="M88.261,10.7A10.561,10.561,0,1,0,98.822,21.261,10.561,10.561,0,0,0,88.261,10.7Z" transform="translate(92.676 -3.289)" fill="#f6d365"/>
        <path id="Path_628" data-name="Path 628" d="M88.817,21.9a5.017,5.017,0,1,0,5.017,5.017A5.017,5.017,0,0,0,88.817,21.9Z" transform="translate(102.682 15.083)" fill="#fda085"/>
        <path id="Path_629" data-name="Path 629" d="M183.16,99.068a5.018,5.018,0,1,0,4.91,5.017,4.964,4.964,0,0,0-4.91-5.017ZM19.837,59.2a10.564,10.564,0,0,0,0,21.122,10.564,10.564,0,0,0,0-21.122Z" transform="translate(-9.5 60.731)" fill="url(#linear-gradient)"/>
        <path id="Path_630" data-name="Path 630" d="M26.817,85.5a5.017,5.017,0,1,0,5.017,5.017A5.017,5.017,0,0,0,26.817,85.5Z" transform="translate(10.034 103.871)" fill="url(#linear-gradient)"/>
        <path id="Path_631" data-name="Path 631" d="M170.94,28.2a4.754,4.754,0,1,0,4.641,4.753A4.7,4.7,0,0,0,170.94,28.2ZM21.146,82.062a6.6,6.6,0,1,0,6.446,6.6A6.525,6.525,0,0,0,21.146,82.062Z" transform="translate(-0.97 12.498)" fill="#fff"/>
      </g>
    </g>
    <g id="Mask_Group_4" data-name="Mask Group 4" transform="translate(1014.834 2058.452)" clip-path="url(#clip-path)">
      <g id="Group_485" data-name="Group 485" transform="translate(64.685 44.668)">
        <path id="Path_957" data-name="Path 957" d="M-90.827,1601.317c-.478,2.447-3.953,5.782-6.437,3.91-2.554-1.924-1.312-11.395.978-13.507C-91.581,1587.377-90.126,1597.725-90.827,1601.317Z" transform="translate(150.779 -1566.174)" fill="#002634"/>
        <g id="Group_438" data-name="Group 438" transform="translate(36.573 69.68)">
          <g id="Group_437" data-name="Group 437" transform="translate(0 0)">
            <path id="Path_958" data-name="Path 958" d="M-292,2282.624a6.3,6.3,0,0,1,1.272-7.422c2.615-2.568,5.243-.248,6.411,1.05,3.123,3.47,8.009,7.9,11.234,12.416,3.31,4.639,4.907,6.186,4.2,7.014-.8.934-4.164,4.121-5.486,3.574C-279.558,2297.115-287.129,2291.066-292,2282.624Z" transform="translate(294.086 -2269.463)" fill="#fdd6d6"/>
            <path id="Path_959" data-name="Path 959" d="M-290.725,2275.2a6.3,6.3,0,0,0-1.272,7.422,44.48,44.48,0,0,0,11.1,12.688,16.266,16.266,0,0,0,7.176-7.515c-3.2-4.214-7.67-8.3-10.592-11.546C-285.481,2274.954-288.11,2272.634-290.725,2275.2Z" transform="translate(294.086 -2269.463)" fill="#f5b399" opacity="0.7" style="mix-blend-mode: multiply;isolation: isolate"/>
            <path id="Path_960" data-name="Path 960" d="M-309.572,2255.553a7.307,7.307,0,0,0-1.476,8.614,48.535,48.535,0,0,0,10.093,12.089c5.149.112,8.877-7.6,9.4-8.216-3.482-4.123-7.681-8.05-10.576-11.268C-303.487,2255.265-306.538,2252.573-309.572,2255.553Z" transform="translate(311.853 -2251.074)" fill="#e6e7e8"/>
            <path id="Path_961" data-name="Path 961" d="M-181.493,2410.369q-.646-.735-1.31-1.456c-2.817,4.872-6.062,7.919-9.309,8.765q.774.758,1.559,1.465C-187.305,2417.915-184.226,2414.938-181.493,2410.369Z" transform="translate(200.831 -2394.511)" fill="#435c87"/>
            <path id="Path_962" data-name="Path 962" d="M-63.822,2352.135a4.085,4.085,0,0,1-4.891-.083c-1.929-1.423-.254-3.972.687-5.165,2.514-3.187,8.183-11.236,11.9-14.748,1.6-1.514,4.092,1.088,3.708,2.228A45.343,45.343,0,0,1-63.822,2352.135Z" transform="translate(87.242 -2322.9)" fill="#fdd6d6"/>
            <path id="Path_963" data-name="Path 963" d="M100.9,2221.42c-1.012-.545-1.034-3.8-1.1-4.211a7.384,7.384,0,0,1,.061-1.777c.03-.132.186-.232.437-.14.983.361,1.2,2.221,1.264,2.256a4.034,4.034,0,0,0,.588-1.253c.345-1.209,1-3.478,1.212-4.425.087-.389.394-.794.7-.722a.668.668,0,0,1,.4.822c-.376,1.665-.781,4.226-.737,4.235.535-1.13,1.557-3.281,1.922-4.183.15-.368.521-.721.812-.608a.641.641,0,0,1,.267.857,41.606,41.606,0,0,0-1.369,4.534c.739-1.083,1.814-2.662,2.25-3.385.208-.342.633-.637.907-.489a.624.624,0,0,1,.136.877c-.493.859-1.375,2.521-2.117,3.761a29.579,29.579,0,0,0,2.707-2.456.6.6,0,0,1,.783-.127c.2.171.06.578-.178.83-.6.626-2.015,2.289-2.7,3.089a13.958,13.958,0,0,1-1.241,2.444c-.494.75-.81,1.028-1.221,1.138l-.815.264A3.966,3.966,0,0,1,100.9,2221.42Z" transform="translate(-69.796 -2211.14)" fill="#fdd6d6"/>
          </g>
        </g>
        <g id="Group_442" data-name="Group 442" transform="translate(8.938 125.199)">
          <g id="Group_439" data-name="Group 439" transform="translate(0 17.387)">
            <path id="Path_964" data-name="Path 964" d="M-687.635,3214.1c-1.986,3.509-4.563,18.384-3.45,19.27.951.759,5.951,2,6.3,1.453,1.295-2.062,6.971-17.02,6.971-17.02a3.882,3.882,0,0,0-2.455-4.381C-684.929,3211.309-686.815,3212.652-687.635,3214.1Z" transform="translate(691.354 -3212.327)" fill="#fdd6d6"/>
          </g>
          <g id="Group_440" data-name="Group 440" transform="translate(0 28.323)">
            <path id="Path_965" data-name="Path 965" d="M-690.253,3362.516c-.929,4.788-1.453,9.618-.833,10.11.951.759,5.951,2,6.3,1.452.653-1.039,2.42-5.359,4.012-9.386a8.285,8.285,0,0,1-3.328.148A20.477,20.477,0,0,1-690.253,3362.516Z" transform="translate(691.355 -3362.516)" fill="#fff"/>
          </g>
          <g id="Group_441" data-name="Group 441" transform="translate(3.495 0)">
            <path id="Path_966" data-name="Path 966" d="M-633.372,2996.426c1.864-3.575,7.279-18.688,6.136-19.535-.977-.725-13.474-3.826-13.8-3.264-1.223,2.105-2.275,19.433-2.275,19.433a3.883,3.883,0,0,0,2.6,4.295C-635.982,2999.313-634.143,2997.9-633.372,2996.426Z" transform="translate(643.362 -2973.559)" fill="#fdd6d6"/>
          </g>
        </g>
        <g id="Group_446" data-name="Group 446" transform="translate(35.834 126.756)">
          <g id="Group_443" data-name="Group 443" transform="translate(4.745 17.206)">
            <path id="Path_967" data-name="Path 967" d="M-256.747,3234.512c-.613,3.985,2.253,18.808,3.608,19.242,1.158.372,6.275-.237,6.4-.875.479-2.387.483-18.386.483-18.386a3.881,3.881,0,0,0-3.849-3.225C-255.208,3230.938-256.494,3232.865-256.747,3234.512Z" transform="translate(256.832 -3231.231)" fill="#fdd6d6"/>
          </g>
          <g id="Group_444" data-name="Group 444" transform="translate(5.632 28.655)">
            <path id="Path_968" data-name="Path 968" d="M-244.662,3389.777c.83,4.809,2.052,9.51,2.806,9.751,1.158.371,6.275-.238,6.4-.875.242-1.2.362-5.871.423-10.2a8.273,8.273,0,0,1-3.059,1.318A20.37,20.37,0,0,1-244.662,3389.777Z" transform="translate(244.662 -3388.452)" fill="#fdd6d6"/>
          </g>
          <g id="Group_445" data-name="Group 445" transform="translate(0 0)">
            <path id="Path_969" data-name="Path 969" d="M-306.724,3015.43c.476-4,.179-20.055-1.19-20.442-1.17-.331-13.955,1.2-14.063,1.842-.4,2.4,4.764,18.979,4.764,18.979a3.883,3.883,0,0,0,3.957,3.092C-308.14,3019.055-306.921,3017.084-306.724,3015.43Z" transform="translate(321.999 -2994.942)" fill="#fdd6d6"/>
          </g>
        </g>
        <path id="Path_970" data-name="Path 970" d="M-413.061,2835.862a26.131,26.131,0,0,1-7.764,3.62c-5.039,1.417-7.515.678-7.515.678l-6.43-17.978s-6.751-4.687-3.16-9.97c2.294-3.375,22.571-4.84,22.571-4.84Z" transform="translate(466.298 -2694.275)" fill="#3c537c"/>
        <path id="Path_971" data-name="Path 971" d="M-660.908,2851.554a26.128,26.128,0,0,1-8.549-.544c-5.1-1.172-6.92-3.008-6.92-3.008l2.975-18.86s-3.679-7.35,2.006-10.265c3.631-1.862,22.129,6.572,22.129,6.572Z" transform="translate(686.405 -2704.694)" fill="#435c87"/>
        <path id="Path_972" data-name="Path 972" d="M-617.814,2285.7c-5.582-18.914.972-41.3-10.524-47.151-2.24-1.14-6.25-1.274-10.276-1.274-4.22,0-9.491-.249-12.118,1.073-11.749,5.913-2.468,28.438-8.682,47.352C-660.425,2288.781-616.9,2288.808-617.814,2285.7Z" transform="translate(670.695 -2165.678)" fill="#f1f1f2"/>
        <g id="Group_448" data-name="Group 448" transform="translate(0.063 73.145)">
          <g id="Group_447" data-name="Group 447" transform="translate(0 0)">
            <path id="Path_973" data-name="Path 973" d="M-798.921,2279.89a6.3,6.3,0,0,1,7.523.33c2.875,2.272.9,5.171-.236,6.492-3.051,3.534-6.83,8.937-10.908,12.7-4.186,3.866-5.522,5.645-6.432,5.042-1.027-.677-4.61-3.614-4.235-4.993C-811.736,2294.049-806.685,2285.778-798.921,2279.89Z" transform="translate(813.236 -2277.322)" fill="#fdd6d6"/>
            <path id="Path_974" data-name="Path 974" d="M-751.676,2280.22a6.3,6.3,0,0,0-7.523-.33,44.459,44.459,0,0,0-11.2,12.6,16.267,16.267,0,0,0,8.356,6.177c3.778-3.708,7.272-8.652,10.126-11.958C-750.772,2285.391-748.8,2282.492-751.676,2280.22Z" transform="translate(773.514 -2277.322)" fill="#f5b399" opacity="0.7" style="mix-blend-mode: multiply;isolation: isolate"/>
            <path id="Path_975" data-name="Path 975" d="M-745.791,2260.4a7.3,7.3,0,0,0-8.73-.383,48.525,48.525,0,0,0-10.726,11.531c.535,5.122,8.658,7.852,9.331,8.294,3.653-3.972,7.022-8.63,9.852-11.907C-744.741,2266.4-742.453,2263.033-745.791,2260.4Z" transform="translate(768.741 -2258.729)" fill="#fff"/>
            <path id="Path_976" data-name="Path 976" d="M-748.971,2411.193c.431-.489.858-.984,1.279-1.483-5.187-2.184-8.617-5.02-9.864-8.135q-.654.864-1.257,1.732C-757.186,2406.374-753.848,2409.056-748.971,2411.193Z" transform="translate(762.776 -2391.173)" fill="#435c87"/>
          </g>
        </g>
        <path id="Path_977" data-name="Path 977" d="M-387.294,2291.841l3.7,3.54,1-4.521Z" transform="translate(418.374 -2215.376)" fill="#435c87"/>
        <g id="Group_452" data-name="Group 452" transform="translate(42.499 160.315)">
          <path id="Path_978" data-name="Path 978" d="M-230.21,3575.477s-.135,2.966.82,3.234l12.15.375,2-.4-.991-1.716Z" transform="translate(230.235 -3566.763)" fill="#d0d2d3"/>
          <path id="Path_979" data-name="Path 979" d="M-230.454,3495.036c0-1.547-.107-3.142.272-3.671.4-.564.784,1.686,3.881,1.348a8.764,8.764,0,0,0,4.065-1.267v-.959s.246.594,3.294.594a7.786,7.786,0,0,0,2.382-.594l.739,8.3-9.519-.195c-.28.024-.577.04-.906.037C-231.044,3498.6-230.454,3497.019-230.454,3495.036Z" transform="translate(230.477 -3487.962)" fill="#3c537c"/>
          <path id="Path_980" data-name="Path 980" d="M-41.947,3486.413c.016,0,.346-.276.479-.289,4.521-.372,7.341,2.607,7.342,5.821a4.721,4.721,0,0,1-.335,1.741,18.97,18.97,0,0,1-7.006,1.025h-.049Z" transform="translate(55.675 -3483.887)" fill="#fff"/>
          <g id="Group_449" data-name="Group 449" transform="translate(12.995 9.8)">
            <path id="Path_981" data-name="Path 981" d="M-50.851,3591.407h.049a19,19,0,0,0,7.005-1.024,6.644,6.644,0,0,1-.3,1.5,17.474,17.474,0,0,1-6.706,1.023h-1.214Z" transform="translate(52.016 -3590.384)" fill="#d0d2d3"/>
          </g>
          <g id="Group_450" data-name="Group 450" transform="translate(11.452 2.341)">
            <path id="Path_982" data-name="Path 982" d="M-72.134,3490.363a.749.749,0,0,1-.172-.038,1.248,1.248,0,0,1-.377-.191,1.294,1.294,0,0,1-.376-.437,1.219,1.219,0,0,1-.12-.331,1.417,1.417,0,0,1-.029-.4,1.249,1.249,0,0,1,.129-.43.978.978,0,0,1,.274-.346.958.958,0,0,1,.33-.185.831.831,0,0,1,.3-.049.939.939,0,0,1,.429.1.851.851,0,0,1,.151.085s-.033.067-.087.154c-.027.042-.056.1-.092.145a1.15,1.15,0,0,0-.092.17.627.627,0,0,0-.074.164c-.01.054-.039.094-.03.135a.122.122,0,0,1-.005.049.113.113,0,0,1,.007.044c-.007.021.006.06-.006.086,0,.043-.012.078-.013.136s-.01.112-.018.177c-.01.131-.024.278-.04.419s-.039.275-.059.378S-72.134,3490.363-72.134,3490.363Z" transform="translate(73.21 -3487.952)" fill="#fff"/>
          </g>
          <path id="Path_983" data-name="Path 983" d="M-129.839,3459.855l3.132-.358-1.958-3.7-.593.834Z" transform="translate(137.168 -3455.8)" fill="#435c87"/>
          <g id="Group_451" data-name="Group 451" transform="translate(9.462 2.341)">
            <path id="Path_984" data-name="Path 984" d="M-99.461,3490.363a.749.749,0,0,1-.172-.038,1.251,1.251,0,0,1-.377-.191,1.3,1.3,0,0,1-.376-.437,1.212,1.212,0,0,1-.12-.331,1.416,1.416,0,0,1-.029-.4,1.246,1.246,0,0,1,.129-.429.972.972,0,0,1,.274-.347.957.957,0,0,1,.33-.185.831.831,0,0,1,.3-.049.938.938,0,0,1,.429.1.847.847,0,0,1,.151.085s-.033.067-.087.154c-.027.042-.056.1-.092.145a1.136,1.136,0,0,0-.092.17.624.624,0,0,0-.075.164c-.01.054-.039.094-.03.135a.122.122,0,0,1-.005.049.114.114,0,0,1,.007.044c-.006.021.006.06-.005.086,0,.043-.012.078-.013.136s-.01.112-.017.177c-.01.131-.024.278-.04.419s-.038.275-.058.378S-99.461,3490.363-99.461,3490.363Z" transform="translate(100.537 -3487.952)" fill="#fff"/>
          </g>
        </g>
        <g id="Group_458" data-name="Group 458" transform="translate(5.569 161.384)">
          <path id="Path_985" data-name="Path 985" d="M-736.877,3536.847s-1.272,2.683-.494,3.3l11.058,5.046,2,.4-.251-1.965Z" transform="translate(737.623 -3532.014)" fill="#d0d2d3"/>
          <path id="Path_986" data-name="Path 986" d="M-728.008,3473.807c.6-1.425,1.117-2.938,1.67-3.278.591-.364.071,1.856,3.058,2.742a8.753,8.753,0,0,0,4.239.405l.371-.884s0,.642,2.808,1.821a7.8,7.8,0,0,0,2.427.375l-2.527,7.935-8.7-3.861c-.268-.087-.547-.187-.85-.317C-729.931,3476.864-728.775,3475.635-728.008,3473.807Z" transform="translate(729.386 -3470.489)" fill="#3c537c"/>
          <path id="Path_987" data-name="Path 987" d="M-556.775,3530.142a1.992,1.992,0,0,1,.554-.081c4.314,1.405,5.762,5.242,4.519,8.207a4.706,4.706,0,0,1-.983,1.476,18.962,18.962,0,0,1-6.858-1.764l-.045-.02Z" transform="translate(572.551 -3525.716)" fill="#fff"/>
          <g id="Group_453" data-name="Group 453" transform="translate(11.31 12.245)">
            <path id="Path_988" data-name="Path 988" d="M-580.652,3638.645c.015.005.029.012.045.02a18.982,18.982,0,0,0,6.856,1.764,6.612,6.612,0,0,1-.856,1.27,17.5,17.5,0,0,1-6.58-1.651l-1.119-.47Z" transform="translate(582.306 -3638.645)" fill="#d0d2d3"/>
          </g>
          <g id="Group_455" data-name="Group 455" transform="translate(13.207 3.704)">
            <g id="Group_454" data-name="Group 454">
              <path id="Path_989" data-name="Path 989" d="M-555.659,3523.67a.806.806,0,0,1-.145-.1,1.314,1.314,0,0,1-.274-.323,1.292,1.292,0,0,1-.177-.549,1.181,1.181,0,0,1,.018-.353,1.4,1.4,0,0,1,.128-.38,1.249,1.249,0,0,1,.286-.346.947.947,0,0,1,.386-.212.928.928,0,0,1,.377-.045.835.835,0,0,1,.3.073.931.931,0,0,1,.357.257.81.81,0,0,1,.106.136s-.056.05-.139.109c-.042.029-.09.068-.141.1a1.047,1.047,0,0,0-.151.121c-.046.044-.1.07-.132.122s-.073.072-.08.115a.125.125,0,0,1-.024.043.1.1,0,0,1-.011.043c-.014.016-.018.057-.038.077-.015.04-.041.067-.064.119s-.053.1-.085.158c-.06.115-.13.246-.2.37s-.143.24-.2.326S-555.659,3523.67-555.659,3523.67Z" transform="translate(556.26 -3521.36)" fill="#fff"/>
            </g>
          </g>
          <path id="Path_990" data-name="Path 990" d="M-610.15,3474.8l3.026.882-.376-4.168-.87.54Z" transform="translate(619.432 -3471.442)" fill="#435c87"/>
          <g id="Group_457" data-name="Group 457" transform="translate(11.372 2.935)">
            <g id="Group_456" data-name="Group 456">
              <path id="Path_991" data-name="Path 991" d="M-580.857,3513.1a.687.687,0,0,1-.145-.1,1.3,1.3,0,0,1-.274-.32,1.306,1.306,0,0,1-.177-.551,1.191,1.191,0,0,1,.017-.353,1.415,1.415,0,0,1,.129-.381,1.221,1.221,0,0,1,.286-.346.967.967,0,0,1,.386-.213.934.934,0,0,1,.377-.044.822.822,0,0,1,.3.073.93.93,0,0,1,.358.256.835.835,0,0,1,.106.137s-.056.048-.139.109c-.042.028-.09.067-.141.1a1.048,1.048,0,0,0-.151.122c-.046.044-.1.07-.132.121s-.073.072-.08.115a.122.122,0,0,1-.023.043.128.128,0,0,1-.011.044c-.014.015-.018.056-.038.077-.015.039-.041.066-.064.12s-.053.1-.085.157c-.06.116-.13.247-.2.37s-.143.24-.2.326S-580.857,3513.1-580.857,3513.1Z" transform="translate(581.458 -3510.791)" fill="#fff"/>
            </g>
          </g>
        </g>
        <path id="Path_992" data-name="Path 992" d="M-520.781,2238.553c-2.24-1.14-6.249-1.274-10.275-1.274-4.22,0-9.491-.249-12.119,1.073-1.351.681,3.02,8.236,6.141,8.231,2.751,0,5.292-3.974,7.887-4.441,2.66-.476,5.4,3.261,8.387,2.708C-518.882,2244.5-519.656,2239.124-520.781,2238.553Z" transform="translate(563.137 -2165.678)" fill="#3c537c"/>
        <g id="Group_459" data-name="Group 459" transform="translate(32.837 78.457)">
          <path id="Path_993" data-name="Path 993" d="M-363.158,2352.3l4.774,2.662,2.844-3.643-5.71-19.644h-.755Z" transform="translate(363.158 -2331.676)" fill="#435c87"/>
          <path id="Path_994" data-name="Path 994" d="M-362.429,2563.4l4.715,2.433,2.469-3.768-.49-1.685-2.436,3.717-4.177-2.155Z" transform="translate(362.482 -2543.731)" fill="#fff"/>
        </g>
        <path id="Path_995" data-name="Path 995" d="M-670.13,3157.173l-.316,2c2.853,1.6,7.6,3.1,15.4,3.1.35,0,.707,0,1.07-.009l.842-1.887C-662.479,3160.659-667.507,3158.843-670.13,3157.173Z" transform="translate(680.907 -3018.604)" fill="#fff"/>
        <path id="Path_996" data-name="Path 996" d="M-296.842,3128.231l-.163-2.029c-7.69,4.151-12.959,5.306-16.348,5.393l.671,1.877c3.434-.222,8.265-1.4,14.815-4.713Q-297.361,3128.5-296.842,3128.231Z" transform="translate(349.817 -2989.889)" fill="#e6e7e8"/>
        <path id="Path_997" data-name="Path 997" d="M-440.931,2072.394l-.929,3.871-7.424-3.871v-14.041h8.353Z" transform="translate(475.849 -1999.799)" fill="#fdd6d6"/>
        <path id="Path_998" data-name="Path 998" d="M-440.931,2119.894l-7.105-3.536c-.2.134-.406.271-.613.4s-.417.263-.635.407v8.612c.668-1.257.893-3.8,1.969-3.617a17.184,17.184,0,0,0,6.385.1Z" transform="translate(475.849 -2053.579)" fill="#f5b399" opacity="0.7" style="mix-blend-mode: multiply;isolation: isolate"/>
        <g id="Group_473" data-name="Group 473" transform="translate(8.093 0)">
          <path id="Path_999" data-name="Path 999" d="M-594.039,1392.041c0-15.968-10.818-27.592-26.786-27.592s-19.7,12.481-19.7,28.45a27.778,27.778,0,0,0,2.572,12.221c-.671,1.488-1.307,15.6,12.7,18.7,19.254,4.265,31.429-3.062,32.4-12.457.355-3.434-1.82-6.022-1.8-7.655C-594.605,1399.542-594.039,1396.489-594.039,1392.041Z" transform="translate(645.069 -1356.424)" fill="#fdd6d6"/>
          <path id="Path_1000" data-name="Path 1000" d="M-620.826,1364.449c-6.278,0-10.663,1.93-13.674,5.241-.03.879.043,1.555.311,1.636a6.779,6.779,0,0,0-1.419-.272c-3.763,5.177-4.915,12.972-4.915,21.845a29.9,29.9,0,0,0,1.088,8.286c1.21,1.835,2.637,3.792,4.1,3.556-.367-1.489,7.1-8.646,6.61-25.519.344.994,9.657,9.991,19.395,7.232-1.929.128-6.046-1.254-8.225-3.266,5.3,2.4,12.974,3.487,16.173,2.355-1.628-.871-5.63-2.773-6.121-4.727a37.359,37.359,0,0,0,13.19,6.945C-596.069,1374.038-606.322,1364.449-620.826,1364.449Z" transform="translate(645.069 -1356.424)" fill="#f5b399" opacity="0.5" style="mix-blend-mode: multiply;isolation: isolate"/>
          <path id="Path_1001" data-name="Path 1001" d="M-622.886,1457.3c-14.011-3.1-13.375-17.215-12.7-18.7-1.794-3.764-2.141-9.144-2.141-13.591,0-9.841,1.417-18.356,6.241-23.443-7.09,4.508-9.033,14.219-9.033,25.747a27.777,27.777,0,0,0,2.572,12.222c-.671,1.487-1.307,15.6,12.7,18.7,13.659,3.026,23.753.217,28.814-5.025C-602,1456.892-611.4,1459.844-622.886,1457.3Z" transform="translate(645.069 -1390.835)" fill="#f5b399" opacity="0.5" style="mix-blend-mode: multiply;isolation: isolate"/>
          <g id="Group_460" data-name="Group 460" transform="translate(0)">
            <path id="Path_1002" data-name="Path 1002" d="M-687.371,1275.228c-.368.366,9.287,10.176,19.4,7.312-1.929.127-6.046-1.254-8.225-3.265,5.295,2.4,12.974,3.487,16.172,2.354-1.628-.87-5.63-2.773-6.12-4.726a36.914,36.914,0,0,0,13.671,7.059c3.206.721,8.352-.288,10.4-2.221-6.576-1.955-7.575-3.284-8.37-5.686-1.123-3.4-1.938-10.043-4.96-13.42-2.435-2.722-9.232-7.184-16.358-8.175-7.216-1.005-15,1.723-16.739,2.585a8.734,8.734,0,0,0-3.982,4.2c-.254.663-1.131,5.937-.349,6.169-3.2-.95-4.664.506-6.7,2.886-5.035,5.88-4.109,19.235.126,24.986,1.412,1.917,3.385,5.873,5.434,5.542C-694.347,1299.336-686.855,1292.161-687.371,1275.228Z" transform="translate(702.963 -1254.241)" fill="#063140"/>
            <path id="Path_1003" data-name="Path 1003" d="M-598.616,1334.489c-2-1.554-2.587-7.029-1.7-9.09-1.959,1.156-2.423,3.43-2.084,5.68.333,2.217,1.31,2.978,3.371,3.588Z" transform="translate(609.821 -1320.218)" fill="#063140"/>
          </g>
          <path id="Path_1004" data-name="Path 1004" d="M-688.124,1626.7c-.84,1.827-2.2,3.513-4.382,3.6-2.065.083-4.617-1.3-6.775-3.066a19.928,19.928,0,0,1-3.659-4.343c-.176,5.351,1.158,10.972,3.534,14.2,1.412,1.917,3.385,5.873,5.434,5.542-.293-1.188,4.4-5.993,6.061-16.463C-687.975,1626.348-688.043,1626.526-688.124,1626.7Z" transform="translate(702.956 -1596.045)" fill="#002634" opacity="0.5" style="mix-blend-mode: multiply;isolation: isolate"/>
          <g id="Group_465" data-name="Group 465" transform="translate(1.214 42.099)">
            <g id="Group_461" data-name="Group 461">
              <path id="Path_1005" data-name="Path 1005" d="M-675.365,1838.391a5.759,5.759,0,0,1-5.464,6.014,5.758,5.758,0,0,1-5.464-6.014,5.758,5.758,0,0,1,5.464-6.014A5.759,5.759,0,0,1-675.365,1838.391Z" transform="translate(686.293 -1832.377)" fill="#fdd6d6"/>
            </g>
            <g id="Group_463" data-name="Group 463" transform="translate(1.859 2.521)">
              <g id="Group_462" data-name="Group 462">
                <path id="Path_1006" data-name="Path 1006" d="M-656.774,1873.885l-.121.028a1.955,1.955,0,0,1-.347.056l-.262.014c-.094,0-.2-.012-.305-.021a3.3,3.3,0,0,1-.728-.171,3.378,3.378,0,0,1-.795-.433,3.423,3.423,0,0,1-.731-.726,3.616,3.616,0,0,1-.518-.992,3.944,3.944,0,0,1-.189-1.148,4.322,4.322,0,0,1,.049-.567,3.471,3.471,0,0,1,.138-.581,3.625,3.625,0,0,1,.517-.993,3.462,3.462,0,0,1,.732-.727,3.386,3.386,0,0,1,.795-.432,3.265,3.265,0,0,1,.729-.172c.111-.007.212-.019.306-.02l.258.015a2.023,2.023,0,0,1,.351.056l.121.029-.118.041c-.076.027-.188.054-.322.112a4.411,4.411,0,0,0-.464.21,4.5,4.5,0,0,0-.53.346,3.665,3.665,0,0,0-.52.494,3.427,3.427,0,0,0-.44.633,3.67,3.67,0,0,0-.294.747,3.717,3.717,0,0,0-.071.384,3.418,3.418,0,0,0-.031.427,3.639,3.639,0,0,0,.1.811,3.633,3.633,0,0,0,.293.748,3.438,3.438,0,0,0,.44.633,3.717,3.717,0,0,0,.52.494,4.647,4.647,0,0,0,.531.345c.086.042.169.078.245.12l.215.089c.131.057.252.085.327.112Z" transform="translate(660.77 -1866.998)" fill="#f58c70"/>
              </g>
            </g>
            <g id="Group_464" data-name="Group 464" transform="translate(2.186 5.661)">
              <path id="Path_1007" data-name="Path 1007" d="M-655.733,1910.124c-.007,0,.077,0,.209.009s.308.026.52.056a6.371,6.371,0,0,1,.716.148,4.945,4.945,0,0,1,.79.278,3.522,3.522,0,0,1,.718.43,3.491,3.491,0,0,1,.28.261c.077.1.155.177.211.265l.141.244a1.752,1.752,0,0,1,.078.2l.061.172-.107-.148a1.486,1.486,0,0,0-.125-.161l-.189-.181c-.071-.063-.163-.113-.248-.175a3.286,3.286,0,0,0-.3-.15,3.061,3.061,0,0,0-.7-.18,4.241,4.241,0,0,0-.719-.037,5.687,5.687,0,0,0-.627.052c-.182.027-.332.055-.432.078s-.144.038-.151.038a.6.6,0,0,1-.665-.535A.6.6,0,0,1-655.733,1910.124Z" transform="translate(656.271 -1910.124)" fill="#f58c70"/>
            </g>
          </g>
          <g id="Group_466" data-name="Group 466" transform="translate(33.636 46.586)" opacity="0.7" style="mix-blend-mode: multiply;isolation: isolate">
            <path id="Path_1008" data-name="Path 1008" d="M-239.388,1894a5.176,5.176,0,0,1,.706.72,6.762,6.762,0,0,1,.6.84,4.129,4.129,0,0,1,.275.535,2.13,2.13,0,0,1,.112.322.954.954,0,0,1,.017.483.712.712,0,0,1-.111.208.857.857,0,0,1-.1.1,1.162,1.162,0,0,1-.189.128,1.885,1.885,0,0,1-.332.134,3.5,3.5,0,0,1-.6.124,5.891,5.891,0,0,1-1.036.035,4.879,4.879,0,0,1-1-.141s.1-.041.262-.1.4-.137.685-.217l.944-.273c.167-.05.337-.1.492-.163a1.983,1.983,0,0,0,.2-.095.411.411,0,0,0,.052-.036c.008,0,0,0,0,0s-.044.079-.036.083a.466.466,0,0,0-.015-.095c-.015-.065-.038-.15-.065-.23-.055-.164-.12-.333-.185-.5-.127-.331-.258-.646-.358-.922s-.182-.513-.234-.682S-239.388,1894-239.388,1894Z" transform="translate(241.054 -1893.997)" fill="#f5b399"/>
          </g>
          <g id="Group_468" data-name="Group 468" transform="translate(25.287 53.455)">
            <g id="Group_467" data-name="Group 467">
              <path id="Path_1009" data-name="Path 1009" d="M-355.689,1988.33c-.2,3.658,3.361,7.317,7.42,7.317a7.8,7.8,0,0,0,7.422-7.317Z" transform="translate(355.698 -1988.33)" fill="#ae3f5d"/>
            </g>
            <path id="Path_1010" data-name="Path 1010" d="M-355.685,1988.33a5.622,5.622,0,0,0,.113,1.442,5.731,5.731,0,0,0,1.269.633c.11.041.349-.387.466-.349s.137.552.275.591a19.407,19.407,0,0,0,4.829.652c.169,0,.778,0,.911,0a19.277,19.277,0,0,0,5.108-.7,4.2,4.2,0,0,0,.811-2.267Z" transform="translate(355.693 -1988.33)" fill="#fff"/>
          </g>
          <path id="Path_1011" data-name="Path 1011" d="M-340.511,2032.324a6.963,6.963,0,0,0,3.781-1.16,7.061,7.061,0,0,0-1.395-1.057,18.764,18.764,0,0,0-9.2-2.2A7.784,7.784,0,0,0-340.511,2032.324Z" transform="translate(373.226 -1971.551)" fill="#ea6580"/>
          <path id="Path_1012" data-name="Path 1012" d="M-258.9,2114.113c0,.276-.47.5-1.051.5s-1.05-.225-1.05-.5.47-.5,1.05-.5S-258.9,2113.836-258.9,2114.113Z" transform="translate(293.186 -2051.033)" fill="#f5b399" opacity="0.5" style="mix-blend-mode: multiply;isolation: isolate"/>
          <path id="Path_1013" data-name="Path 1013" d="M-452.9,1768.1s2.024-3.476,5.689-2.609c0,0-1.149.734-2.654,1.609A10.467,10.467,0,0,1-452.9,1768.1Z" transform="translate(471.11 -1728.134)" fill="#f5b399" opacity="0.7" style="mix-blend-mode: multiply;isolation: isolate"/>
          <path id="Path_1014" data-name="Path 1014" d="M-144.879,1769.265s-2.024-3.476-5.689-2.609c0,0,1.149.734,2.654,1.609A10.455,10.455,0,0,0-144.879,1769.265Z" transform="translate(190.793 -1729.214)" fill="#f5b399" opacity="0.7" style="mix-blend-mode: multiply;isolation: isolate"/>
          <g id="Group_471" data-name="Group 471" transform="translate(18.118 36.523)">
            <g id="Group_469" data-name="Group 469" transform="translate(22.019)">
              <path id="Path_1015" data-name="Path 1015" d="M-151.776,1756.536a1.544,1.544,0,0,1,.274-.211,3.054,3.054,0,0,1,.811-.367,3.432,3.432,0,0,1,.582-.121,4.08,4.08,0,0,1,.669-.029,3.52,3.52,0,0,1,.356.036,2.125,2.125,0,0,1,.363.066,3.721,3.721,0,0,1,.72.245c.115.056.234.106.344.171s.214.141.319.213a3.215,3.215,0,0,1,.555.49,3.076,3.076,0,0,1,.412.547,2.478,2.478,0,0,1,.264.544,2.393,2.393,0,0,1,.146.484c.025.149.035.283.045.39a2.313,2.313,0,0,1,.006.34s-.117-.068-.286-.19c-.084-.061-.187-.132-.291-.217s-.24-.162-.365-.256a4.063,4.063,0,0,0-.406-.282c-.151-.084-.277-.2-.441-.279s-.3-.189-.468-.261c-.08-.041-.163-.08-.24-.127s-.168-.072-.251-.111c-.161-.089-.338-.142-.507-.218l-.517-.193c-.175-.05-.343-.122-.511-.167s-.329-.105-.483-.152l-.778-.243Z" transform="translate(151.776 -1755.806)" fill="#063140"/>
            </g>
            <g id="Group_470" data-name="Group 470">
              <path id="Path_1016" data-name="Path 1016" d="M-448.289,1756.536l-.321.1-.778.243c-.154.047-.316.1-.483.152s-.337.118-.511.167l-.517.193c-.168.076-.346.129-.507.218-.082.039-.171.067-.251.111s-.16.086-.24.127c-.168.072-.309.179-.468.261s-.29.194-.441.279a4.047,4.047,0,0,0-.406.282c-.125.094-.267.167-.365.256s-.207.156-.291.217c-.169.122-.286.19-.286.19a2.309,2.309,0,0,1,.006-.34c.009-.107.019-.241.044-.39a2.4,2.4,0,0,1,.146-.484,2.481,2.481,0,0,1,.264-.544,3.075,3.075,0,0,1,.412-.547,3.221,3.221,0,0,1,.555-.49c.1-.071.209-.146.319-.213s.229-.115.344-.171a3.726,3.726,0,0,1,.72-.245,2.127,2.127,0,0,1,.363-.066,3.527,3.527,0,0,1,.356-.036,4.08,4.08,0,0,1,.669.029,3.43,3.43,0,0,1,.582.121,3.055,3.055,0,0,1,.811.367A1.546,1.546,0,0,1-448.289,1756.536Z" transform="translate(454.157 -1755.806)" fill="#063140"/>
            </g>
          </g>
          <g id="Group_472" data-name="Group 472" transform="translate(21.041 42.417)">
            <path id="Path_1017" data-name="Path 1017" d="M-141.992,1839.046c0,1.272-.72,2.3-1.609,2.3s-1.608-1.031-1.608-2.3.72-2.3,1.608-2.3S-141.992,1837.773-141.992,1839.046Z" transform="translate(164.783 -1836.742)" fill="#3b2314"/>
            <path id="Path_1018" data-name="Path 1018" d="M-410.8,1839.046c0,1.272-.72,2.3-1.608,2.3s-1.609-1.031-1.609-2.3.72-2.3,1.609-2.3S-410.8,1837.773-410.8,1839.046Z" transform="translate(414.015 -1836.742)" fill="#3b2314"/>
            <path id="Path_1019" data-name="Path 1019" d="M-118.024,1846.722c0,.368-.179.666-.4.666s-.4-.3-.4-.666.179-.666.4-.666S-118.024,1846.354-118.024,1846.722Z" transform="translate(140.319 -1845.377)" fill="#fff"/>
            <path id="Path_1020" data-name="Path 1020" d="M-388.616,1846.722c0,.368-.179.666-.4.666s-.4-.3-.4-.666.179-.666.4-.666S-388.616,1846.354-388.616,1846.722Z" transform="translate(391.207 -1845.377)" fill="#fff"/>
          </g>
        </g>
        <g id="Group_474" data-name="Group 474" transform="translate(50.882 26.804)">
          <path id="Path_1021" data-name="Path 1021" d="M-115.352,1622.77l.089-.009Z" transform="translate(115.352 -1622.73)" fill="#d57e35" opacity="0.5" style="mix-blend-mode: multiply;isolation: isolate"/>
          <path id="Path_1022" data-name="Path 1022" d="M-112.6,1622.356l.168-.019C-112.488,1622.343-112.544,1622.352-112.6,1622.356Z" transform="translate(112.8 -1622.337)" fill="#d57e35" opacity="0.5" style="mix-blend-mode: multiply;isolation: isolate"/>
        </g>
        <g id="Group_477" data-name="Group 477" transform="translate(21.124 33.515)">
          <g id="Group_475" data-name="Group 475" transform="translate(0 0)">
            <path id="Path_1023" data-name="Path 1023" d="M-497.025,1732.556a8.913,8.913,0,0,1-8.913,8.914,8.913,8.913,0,0,1-8.914-8.914,8.914,8.914,0,0,1,8.914-8.914A8.913,8.913,0,0,1-497.025,1732.556Z" transform="translate(515.519 -1722.976)" fill="#b2e2f9" opacity="0.4"/>
            <path id="Path_1024" data-name="Path 1024" d="M-514.424,1733.65a9.591,9.591,0,0,1-9.581-9.581,9.592,9.592,0,0,1,9.581-9.58,9.591,9.591,0,0,1,9.58,9.58A9.591,9.591,0,0,1-514.424,1733.65Zm0-17.828a8.256,8.256,0,0,0-8.248,8.247,8.257,8.257,0,0,0,8.248,8.247,8.257,8.257,0,0,0,8.247-8.247A8.256,8.256,0,0,0-514.424,1715.823Z" transform="translate(524.005 -1714.489)" fill="#6e361c"/>
          </g>
          <g id="Group_476" data-name="Group 476" transform="translate(22.45 0)">
            <path id="Path_1025" data-name="Path 1025" d="M-188.721,1732.556a8.913,8.913,0,0,1-8.912,8.914,8.914,8.914,0,0,1-8.915-8.914,8.914,8.914,0,0,1,8.915-8.914A8.914,8.914,0,0,1-188.721,1732.556Z" transform="translate(207.214 -1722.976)" fill="#b2e2f9" opacity="0.4"/>
            <path id="Path_1026" data-name="Path 1026" d="M-206.119,1733.65a9.591,9.591,0,0,1-9.581-9.581,9.592,9.592,0,0,1,9.581-9.58,9.591,9.591,0,0,1,9.579,9.58A9.59,9.59,0,0,1-206.119,1733.65Zm0-17.828a8.257,8.257,0,0,0-8.248,8.247,8.257,8.257,0,0,0,8.248,8.247,8.256,8.256,0,0,0,8.246-8.247A8.255,8.255,0,0,0-206.119,1715.823Z" transform="translate(215.7 -1714.489)" fill="#6e361c"/>
          </g>
          <path id="Path_1027" data-name="Path 1027" d="M-279.847,1847.656a.528.528,0,0,1-.087-.007.533.533,0,0,1-.44-.612c.219-1.328,1.574-2.11,3.455-1.991,1.23.078,2.487.571,2.522,1.5a.533.533,0,0,1-.513.552.532.532,0,0,1-.552-.495,3.113,3.113,0,0,0-2.347-.464c-.51.069-1.386.3-1.513,1.073A.533.533,0,0,1-279.847,1847.656Zm4.384-1.073Z" transform="translate(298.122 -1835.528)" fill="#6e361c"/>
        </g>
        <g id="Group_478" data-name="Group 478" transform="translate(16.145 41.634)">
          <path id="Path_1028" data-name="Path 1028" d="M-587.075,1827.3l-5.3-.652,5.3-.652a.657.657,0,0,1,.733.572.657.657,0,0,1-.572.732A.68.68,0,0,1-587.075,1827.3Z" transform="translate(592.377 -1825.99)" fill="#6e361c"/>
        </g>
        <g id="Group_479" data-name="Group 479" transform="translate(44.909 22.662)">
          <path id="Path_1029" data-name="Path 1029" d="M-114.2,1611.631a22.4,22.4,0,0,1-19.263-1.542,33.663,33.663,0,0,0,9.017,3.809c3.206.722,8.352-.288,10.4-2.221Z" transform="translate(138.116 -1606.839)" fill="#002634" opacity="0.5" style="mix-blend-mode: multiply;isolation: isolate"/>
          <path id="Path_1030" data-name="Path 1030" d="M-195.568,1566.875q-.9-.657-1.81-1.424A19.467,19.467,0,0,0-195.568,1566.875Z" transform="translate(197.378 -1565.451)" fill="#002634" opacity="0.5" style="mix-blend-mode: multiply;isolation: isolate"/>
        </g>
        <path id="Path_1031" data-name="Path 1031" d="M-319.25,1600.378l-.03-.016c-2.19-.089-12.175-.583-16.142-2.339C-330.129,1600.425-322.449,1601.51-319.25,1600.378Z" transform="translate(370.28 -1572.99)" fill="#002634" opacity="0.5" style="mix-blend-mode: multiply;isolation: isolate"/>
        <path id="Path_1032" data-name="Path 1032" d="M-567.368,1294.424a23.432,23.432,0,0,0-.648,4.272,5.752,5.752,0,0,0,1.379,3.452c1.469,1.286-3.173-4,3.684-12.12-.17.073-.316.14-.433.2A8.736,8.736,0,0,0-567.368,1294.424Z" transform="translate(585.936 -1287.422)" fill="#002634" opacity="0.5" style="mix-blend-mode: multiply;isolation: isolate"/>
        <g id="Group_483" data-name="Group 483" transform="translate(21.658 78.679)">
          <path id="Path_1033" data-name="Path 1033" d="M-38.492,2376.362c-.176-1.488.6-8.053,4.945-10.162,1.786-.866,3.58-1.719,5.283-2.748,1.528-.924,3.2-1.95,3.86-3.591a4.54,4.54,0,0,0-.015-1.661s3.286,1.772,2.692,7.948a22.4,22.4,0,0,1-.694,4.141,9.206,9.206,0,0,1-3.092,4.27,27.8,27.8,0,0,1-2.349,2.087,27.721,27.721,0,0,1-2.833,1.724,8.669,8.669,0,0,1-4.587,1.349,4.384,4.384,0,0,1-1.731-.584,1.541,1.541,0,0,1-.988-1.1C-38.11,2377.343-38.409,2377.059-38.492,2376.362Z" transform="translate(73.334 -2356.49)" fill="#f8f9e0"/>
          <path id="Path_1034" data-name="Path 1034" d="M4.93,2414.59a12.14,12.14,0,0,0-.237-4.124c-.22-.178-.156.933-.347,1.406-.662,1.639-2.332,2.666-3.86,3.591-1.7,1.028-3.5,1.881-5.283,2.747-3.958,1.92-4.954,7.532-4.967,9.645a3.265,3.265,0,0,0,1.139.306,8.653,8.653,0,0,0,4.587-1.35,27.766,27.766,0,0,0,2.833-1.724A27.464,27.464,0,0,0,1.144,2423a9.209,9.209,0,0,0,3.092-4.269A22.407,22.407,0,0,0,4.93,2414.59Z" transform="translate(46.678 -2404.934)" fill="#dadbd9"/>
          <g id="Group_482" data-name="Group 482" transform="translate(0 0)">
            <path id="Path_1035" data-name="Path 1035" d="M-440.485,2401.391s-5.676-12.571-22.875-14.227c0,0-6.085-.037-7.492-2.151l-1.928,6.714s10.717,12.509,11.477,12.973,19.531,6.238,19.531,6.238Z" transform="translate(475.976 -2381.351)" fill="#f8f9e0"/>
            <path id="Path_1036" data-name="Path 1036" d="M-454.875,2439.74s-5.676-12.571-22.875-14.226c0,0-6.085-.038-7.491-2.151l-1.928,6.714s10.717,12.509,11.477,12.971,19.531,6.24,19.531,6.24Z" transform="translate(489.318 -2416.909)" fill="#dadbd9"/>
            <g id="Group_481" data-name="Group 481">
              <g id="Group_480" data-name="Group 480">
                <path id="Path_1037" data-name="Path 1037" d="M-488.906,2436.792l-23.307-12.716a3.121,3.121,0,0,1-.8-.644,1.761,1.761,0,0,1-.264-.888l-3.391-38.166a.945.945,0,0,1,.451-.926,1.447,1.447,0,0,1,1.031-.083l30.623,14.7Z" transform="translate(516.68 -2379.768)" fill="#62c9e4"/>
                <path id="Path_1038" data-name="Path 1038" d="M-87.443,2392.217l11.642-20.569,13.37-35.906a.948.948,0,0,0-.19-1.014c-.287-.353-16.848,19.256-16.848,19.256Z" transform="translate(118.699 -2334.724)" fill="#62c9e4"/>
                <path id="Path_1039" data-name="Path 1039" d="M-516.219,2383.451a1.447,1.447,0,0,1,1.031-.083l.62.3,3.766,36.251a1.768,1.768,0,0,0,.264.889,3.123,3.123,0,0,0,.8.645l20.912,14.6-.084.746-23.307-12.716a3.121,3.121,0,0,1-.8-.644,1.761,1.761,0,0,1-.264-.888l-3.391-38.166A.945.945,0,0,1-516.219,2383.451Z" transform="translate(516.68 -2379.768)" fill="#57b3cb" opacity="0.5" style="mix-blend-mode: multiply;isolation: isolate"/>
                <path id="Path_1040" data-name="Path 1040" d="M-516.219,2385.271c.37-.266,4.377,37.805,4.377,37.805a1.765,1.765,0,0,0,.264.89,3.132,3.132,0,0,0,.8.644l21.869,14-23.307-12.715a3.121,3.121,0,0,1-.8-.644,1.764,1.764,0,0,1-.264-.889l-3.391-38.166A.946.946,0,0,1-516.219,2385.271Z" transform="translate(516.68 -2381.59)" fill="#57b3cb" opacity="0.5" style="mix-blend-mode: multiply;isolation: isolate"/>
                <path id="Path_1041" data-name="Path 1041" d="M-430.838,2519.9l-18.75-10.232-2.137-30.214,23.026,11.056Z" transform="translate(456.455 -2468.913)" fill="#00a7d5" opacity="0.5"/>
                <path id="Path_1042" data-name="Path 1042" d="M-329.034,2530.084l2.453-27.971-17.241-8.125Z" transform="translate(356.41 -2482.391)" fill="#fff" opacity="0.2"/>
              </g>
              <path id="Path_1043" data-name="Path 1043" d="M-132.065,2625.218l-3.5-.473,4.341-38.721,7.137.962Z" transform="translate(163.321 -2567.725)" fill="#75d0f6"/>
              <path id="Path_1044" data-name="Path 1044" d="M-119.091,2626.344l-1.581-.214,4.523-37.765,4.6.62Z" transform="translate(149.509 -2569.896)" fill="#93d8f7"/>
            </g>
          </g>
          <path id="Path_1045" data-name="Path 1045" d="M-79.47,2353.984l-7.974,38.233,4.558-8.053c.314-1.181,1.105-7,1.373-8.974.881-6.51,1.723-13.193,4.543-19.2,2.159-4.6,5.449-8.3,8.712-12.134,1.782-2.092,3.421-4.306,5.192-6.405l.634-1.7a.948.948,0,0,0-.19-1.014C-62.908,2334.375-79.47,2353.984-79.47,2353.984Z" transform="translate(118.699 -2334.724)" fill="#57b3cb" opacity="0.5" style="mix-blend-mode: multiply;isolation: isolate"/>
        </g>
        <g id="Group_484" data-name="Group 484" transform="translate(0 92.913)">
          <path id="Path_1046" data-name="Path 1046" d="M-812.99,2536.165a4.086,4.086,0,0,1-.531-4.864c1.169-2.091,3.909-.75,5.21.033,3.477,2.094,12.174,6.707,16.126,9.956,1.7,1.4-.566,4.2-1.745,3.958A45.345,45.345,0,0,1-812.99,2536.165Z" transform="translate(814.098 -2530.184)" fill="#fdd6d6"/>
          <path id="Path_1047" data-name="Path 1047" d="M-539.836,2661.547c.414-1.072,3.643-1.5,4.039-1.623a7.348,7.348,0,0,1,1.771-.162c.135.013.253.155.194.414-.236,1.02-2.053,1.468-2.08,1.539a4.1,4.1,0,0,0,1.317.426c1.243.19,3.576.552,4.543.646.4.037.837.291.8.6a.668.668,0,0,1-.765.5,42.728,42.728,0,0,0-4.294-.2c1.189.387,3.451,1.131,4.391,1.381.385.1.781.427.705.73a.641.641,0,0,1-.818.373,41.374,41.374,0,0,0-4.669-.789c1.168.6,2.868,1.465,3.64,1.807.366.162.713.547.6.838a.623.623,0,0,1-.852.246c-.915-.383-2.674-1.049-4-1.628a29.453,29.453,0,0,0,2.777,2.376.6.6,0,0,1,.224.761c-.144.219-.567.132-.845-.073-.7-.513-2.525-1.711-3.4-2.287a14.036,14.036,0,0,1-2.579-.925c-.806-.4-1.122-.674-1.283-1.068l-.363-.776A3.965,3.965,0,0,1-539.836,2661.547Z" transform="translate(560.714 -2650.32)" fill="#fdd6d6"/>
        </g>
      </g>
    </g>
  </g>
</svg>
