<?xml version="1.0" encoding="utf-8"?>
<!-- Generator: Adobe Illustrator 23.0.5, SVG Export Plug-In . SVG Version: 6.00 Build 0)  -->
<svg version="1.1" id="Layer_1" xmlns="http://www.w3.org/2000/svg" xmlns:xlink="http://www.w3.org/1999/xlink" x="0px" y="0px"
	 viewBox="0 0 171.6 164.6" style="enable-background:new 0 0 171.6 164.6;" xml:space="preserve">
<style type="text/css">
	.st0{fill:url(#Path_551_1_);}
	.st1{fill:#57D464;}
	.st2{fill:url(#Path_553-2_1_);}
	.st3{fill:#9DF3A7;}
	.st4{fill:url(#Path_557_1_);}
	.st5{fill:#FFFFFF;}
	.st6{fill:#F1BC19;}
	.st7{fill:#54352E;}
	.st8{opacity:0.65;fill:#54352E;enable-background:new    ;}
	.st9{fill:#FFB87F;}
	.st10{fill:#F39F6D;}
	.st11{fill:#F9F0C7;}
	.st12{fill:#AE1917;}
	.st13{fill:#FBF9F4;}
	.st14{fill:#783C28;}
	.st15{opacity:0.18;fill:#62260F;enable-background:new    ;}
	.st16{fill:#672C16;}
	.st17{opacity:0.25;fill:#62260F;enable-background:new    ;}
	.st18{opacity:0.22;fill:#510900;enable-background:new    ;}
	.st19{fill:#854E3C;}
	.st20{fill:#B69B75;}
	.st21{fill:#888888;}
	.st22{fill:#E1D6C7;}
	.st23{fill:#CFBDA4;}
	.st24{opacity:0.65;fill:#CFBDA4;enable-background:new    ;}
	.st25{fill:#D8733A;}
	.st26{fill:#FFDDC4;}
	.st27{fill:#391C17;}
	.st28{fill:#4F3D37;}
	.st29{fill:#776965;}
	.st30{opacity:0.65;fill:#4F3D37;enable-background:new    ;}
	.st31{fill:#CC3333;}
	.st32{fill:#EF9261;}
	.st33{fill:url(#Path_823_1_);}
	.st34{fill:url(#Path_824_1_);}
	.st35{clip-path:url(#SVGID_2_);}
	.st36{fill:#FFFFF6;}
	.st37{fill:url(#Path_826_1_);}
	.st38{fill:#3D2E29;}
	.st39{clip-path:url(#SVGID_4_);}
	.st40{fill:url(#Path_830_1_);}
	.st41{fill:#6A3C3E;}
	.st42{fill:#E78B57;}
	.st43{fill:#404040;}
	.st44{fill:#FFC9A2;}
	.st45{fill:none;}
</style>
<g>
	
		<linearGradient id="Path_551_1_" gradientUnits="userSpaceOnUse" x1="-679.3798" y1="337.6285" x2="-679.3798" y2="336.768" gradientTransform="matrix(10.976 0 0 -10.976 7461.5952 3736.6841)">
		<stop  offset="0" style="stop-color:#9DF3A7"/>
		<stop  offset="1" style="stop-color:#57D464"/>
	</linearGradient>
	<path id="Path_551" class="st0" d="M4.7,30.9C2.1,30.9,0,33,0,35.6c0,2.6,2.1,4.7,4.7,4.7s4.7-2.1,4.7-4.7l0,0
		C9.4,33,7.3,30.9,4.7,30.9z"/>
	<path id="Path_552" class="st1" d="M143.3,5.1c-1.3,0-2.4,1.1-2.4,2.4s1.1,2.4,2.4,2.4c1.3,0,2.4-1.1,2.4-2.4S144.6,5.1,143.3,5.1
		L143.3,5.1z"/>
	<g transform="matrix(1, 0, 0, 1, -78.51, -81)">
		
			<linearGradient id="Path_553-2_1_" gradientUnits="userSpaceOnUse" x1="-655.2406" y1="432.5548" x2="-655.5151" y2="431.918" gradientTransform="matrix(191.308 0 0 -191.308 125536.0078 82873.4688)">
			<stop  offset="0" style="stop-color:#9DF3A7"/>
			<stop  offset="1" style="stop-color:#57D464"/>
		</linearGradient>
		<path id="Path_553-2" class="st2" d="M165.5,81c-45.5,0-82.3,36.9-82.3,82.3s36.9,82.3,82.3,82.3s82.3-36.9,82.3-82.3
			S211,81,165.5,81L165.5,81z"/>
	</g>
	<path id="Path_554" class="st3" d="M157.4,2.7c-5.2,0-9.4,4.2-9.4,9.4s4.2,9.4,9.4,9.4s9.4-4.2,9.4-9.4l0,0
		C166.9,7,162.6,2.7,157.4,2.7z"/>
	<path id="Path_555" class="st1" d="M166.9,28.7c-2.6,0-4.7,2.1-4.7,4.7s2.1,4.7,4.7,4.7s4.7-2.1,4.7-4.7c0,0,0,0,0,0
		C171.6,30.8,169.5,28.7,166.9,28.7z"/>
	<path id="Path_556" class="st1" d="M155.5,133.9c-2.6-0.2-4.9,1.8-5,4.4c-0.2,2.6,1.8,4.9,4.4,5c2.6,0.2,4.9-1.8,5-4.4
		c0-0.1,0-0.2,0-0.3C160,136.1,158,134,155.5,133.9z M8.9,98.5C4,98.5,0,102.7,0,108s4,9.4,8.9,9.4s8.9-4.2,8.9-9.4
		S13.8,98.5,8.9,98.5z"/>
	
		<linearGradient id="Path_557_1_" gradientUnits="userSpaceOnUse" x1="-680.2336" y1="339.9641" x2="-680.2336" y2="339.1036" gradientTransform="matrix(10.976 0 0 -10.976 7492.6182 3886.6277)">
		<stop  offset="0" style="stop-color:#9DF3A7"/>
		<stop  offset="1" style="stop-color:#57D464"/>
	</linearGradient>
	<path id="Path_557" class="st4" d="M26.4,155.2c-2.6,0-4.7,2.1-4.7,4.7s2.1,4.7,4.7,4.7s4.7-2.1,4.7-4.7l0,0
		C31.1,157.3,29,155.2,26.4,155.2z"/>
	<path id="Path_558" class="st5" d="M17.7,84.2c-3.3,0-5.9,2.6-5.9,5.9s2.6,5.9,5.9,5.9s5.9-2.6,5.9-5.9S21,84.2,17.7,84.2
		C17.7,84.2,17.7,84.2,17.7,84.2z"/>
	<path id="Path_559" class="st6" d="M23.6,117.8c-1.3,0-2.4,1.1-2.4,2.4s1.1,2.4,2.4,2.4c1.3,0,2.4-1.1,2.4-2.4
		S24.9,117.8,23.6,117.8C23.6,117.8,23.6,117.8,23.6,117.8z"/>
	<path id="Path_560" class="st5" d="M152.8,44.3c-1.3,0-2.4,1.1-2.4,2.4s1.1,2.4,2.4,2.4c1.3,0,2.4-1.1,2.4-2.4
		C155.2,45.4,154.1,44.3,152.8,44.3L152.8,44.3z"/>
	<g id="Group_370" transform="translate(45.305 43.924)">
		<path class="st7" d="M45.5,79.2c0,0.7,0,1.5-0.1,2.3c0,0.3,0,0.6-0.1,0.9h0c-0.5,6.7-2.1,14.5-1.9,23.5c0.1,3.7,0.1,9.2,0,14.8
			c-0.6,0-1.1,0-1.7,0c-2.3,0-4.6-0.1-6.9-0.3c-0.2-1.6-0.4-3.1-0.6-4.4c-0.7-5.7,0.4-7.8,0.5-10.4c0.3-5-1.3-16.8-1.9-21.6
			c0-0.1-0.1-0.2-0.2-0.2c-0.1,0-0.2,0.1-0.2,0.2c-0.4,4.7-3.3,17.6-3.8,21.5c-0.4,3.3-0.8,5-1.3,10.1c-0.1,1.3-0.3,2.5-0.5,3.8
			c-3.1-0.6-6.1-1.3-9-2.2c0.9-6.9,2.1-9.1,2.2-10.7c0.8-11.4-2-25.4-0.8-28.4v0c1.1-2.8,2.4-5,3.5-6.6c0.3-0.5,0.7-0.9,1-1.3
			c0,0,0,0,0,0c1.6-2,2.7-2.9,2.7-2.9c2,0.4,4,0.6,6,0.7c0.3,0,0.6,0,0.9,0c0.3,0,0.6,0,0.8,0c0.4,0,0.8,0,1.2,0c0.1,0,0.3,0,0.4,0
			c0.6,0,1.2,0,1.7,0h0c0.3,0,0.7,0,1,0c0.3,0,0.6,0,0.9,0c0.9-0.1,1.8-0.2,2.6-0.5c0.7,0.8,1.2,1.7,1.7,2.6
			C45.1,72.8,45.5,75.8,45.5,79.2z"/>
		<path id="Path_762" class="st8" d="M34.2,80.1c0,0,4.1,2.4,11.2,2.4c0.5-6.3-0.1-11-3.3-15c-0.8,0.3-1.7,0.5-2.6,0.5
			c-1.7,0.1-3.5,0-5.3,0c-2.6,0-5.2-0.3-7.7-0.8c0,0-3.9,2.9-7.1,10.8c-0.3,1-0.3,2-0.2,3.1C19.8,81.4,27.9,83.3,34.2,80.1z"/>
		<g id="Group_348" transform="translate(36.261 30.975)">
			<path id="Path_763" class="st9" d="M7.5-4.9c0,0-3.7-0.2-4.7-6.1C-0.7-11-4.5-13-7.4-14.7C-7.8-11.6-8.5-5.9-10-4.2
				c0,0,2.9,14.6,8.9,17.2S16.7,6.5,7.5-4.9z"/>
			<path id="Path_764" class="st10" d="M-2.4-7.7c1.9-0.9,4-1.1,6-0.6c-0.4-0.9-0.7-1.9-0.8-2.8C-0.7-11-4.5-13-7.4-14.7
				C-7.8-11.6-8.5-5.9-10-4.2c0,0,0.2,1.1,0.7,2.8h4.2C-5.7-3.6-4.7-6.6-2.4-7.7z"/>
		</g>
		<path id="Path_765" class="st11" d="M40,24.1c0,0-2.2,4.4-12.4,0.8l-2,4.6l11.1,17.9l10.4-12.8L40,24.1z"/>
		<path id="Path_766" class="st12" d="M34.4,26.5l2.8-0.4l1.2,3.5l-1.5,2.1l3,4.2L37.8,43l-4-6.2l2-5l-2.3-1.8L34.4,26.5z"/>
		<path id="Path_767" class="st13" d="M27.5,23.7l-2,2.4l3.7,4.7l5,0.5l1.4-5.1C32.7,26,30,25.1,27.5,23.7z"/>
		<path id="Path_768" class="st13" d="M40,23.1l-4.5,3.2l3,4.1l4.8-4.1L40,23.1z"/>
		<path id="Path_769" class="st9" d="M81.6,40.2c1.6-0.8,3-1.8,4.3-3.1c0.8-0.9,1.4-1.8,2.1-2.7c0.8-1,1.7-1.8,2.7-2.6
			c0.6-0.4,8.3-3.9,9.2-2.2c0,0,0.6,1.4-6.8,3.9c0,0,3.5,2.6,2.9,4.1c-0.3,0.8-1,1.4-1.7,1.7c-2.2,0.7-4.5,0.8-5.3,1.4
			c-0.7,0.5-3.3,2.2-3.3,2.2S82.2,42.2,81.6,40.2z"/>
		<path id="Path_770" class="st10" d="M90,39.1c-0.1-0.2-0.2-0.3-0.2-0.3l-0.4-0.1c-1.2-0.3-2.4-0.8-3.4-1.5c0,0,0,0.1-0.1,0.1
			c-1.3,1.2-2.7,2.2-4.3,3.1c0.6,2,4,2.7,4,2.7s2.6-1.7,3.3-2.2c0.6-0.3,1.3-0.5,1.9-0.6C90.5,39.8,90.3,39.4,90,39.1z"/>
		<path id="Path_771" class="st10" d="M95.4,37.9c-1.7,0.4-3.2,0.2-4.5,1.6c-0.2,0.3-0.5,0.5-0.8,0.8c1.4-0.2,2.7-0.5,4-0.9
			c0.7-0.3,1.4-0.8,1.7-1.6C95.8,37.8,95.6,37.8,95.4,37.9z"/>
		<path id="Path_772" class="st10" d="M97.9,29.3c-1.4,0.4-2.7,1.1-3.9,2c-0.5,0.4-2,1-2.5,1.3c-0.6,0.4-1.2,1.3-1.7,1.7
			c0.7-0.4,1.4-0.7,2.1-0.9c0.5,0.1,1,0.1,1.4,0.1c7.2-2.4,6.6-3.8,6.6-3.8C99.6,29.2,98.9,29.1,97.9,29.3z"/>
		<path id="Path_773" class="st13" d="M82.2,39.5l2.3-2.1l3.7,4.1l-2.5,1.8L82.2,39.5z"/>
		<path id="Path_774" class="st14" d="M48.3,28.3c0,0-1,14.5,2.1,21.2c3.1,6.7,9.4,13.9,12.5,12.2C66,60,86.1,43.5,86.1,43.5
			l-3.7-4.5c0,0-18.7,11-19.7,10.7c-0.8-0.2-5.8-14.7-11.2-20L48.3,28.3z"/>
		<path id="Path_775" class="st15" d="M61.8,56.6c-5.6-1.2-7.5-13.8-9.1-18.4c-0.9-2.7-4.2,7.4-2.4,11.3c3.1,6.7,9.4,13.9,12.5,12.2
			c1.4-0.8,6.5-4.7,11.6-8.8c0,0,0,0,0,0c0,0,0,0,0,0C73.2,53.3,64.6,57.2,61.8,56.6z"/>
		<path id="Path_776" class="st16" d="M42.2,25.4c0,0,8.9,4.1,9.2,4.3c0.3,0.2,3.6,14.2-1.6,21.3c-3.7,4.9-5.4,11.1-4.9,17.2
			c0.4,3.6,1.1,7.1,2.2,10.5c0,0-9.7,4.1-13.2-1.7c0,0,5.5-22.7,3.2-36.5C39.9,35.9,41.6,30.7,42.2,25.4z"/>
		<path id="Path_777" class="st17" d="M46.7,56.7c-2.8,3.5-5.6,5.9-10.1,6c-1.1,8-2.6,14.4-2.6,14.4c3.5,5.8,13.2,1.7,13.2,1.7
			c-1.1-3.4-1.8-6.9-2.2-10.5c-0.2-2.5-0.1-5,0.5-7.4C45.7,59.3,46.1,58,46.7,56.7z"/>
		<path id="Path_778" class="st14" d="M37.1,39.7c0,0,4.3-10.7,5-14.7l2.7,1.6c0,0,1.1,4.2,1,4.8s-2.9,1.5-2.9,1.5
			C44,33.2,45,33.6,46,34c0.4,0.9-6.7,8.5-8.2,10.1C37.8,44.1,36.6,42.9,37.1,39.7z"/>
		<g id="Group_349" transform="translate(44.719 59.656)">
			<path id="Path_779" class="st18" d="M-7.3-18.7C-5.9-4.9-11.2,17-11.2,17c0.5,0.8,1.1,1.4,1.8,2c3.7-4.6,3-10.7,3.6-17.7
				C-5.5-3.3-5.3-16.6-7.3-18.7z"/>
		</g>
		<path id="Path_780" class="st16" d="M25.6,26c0,0-9.6,3.5-13.7,4.8c0,0,6.2,9.3,4.8,17.9c0,0,8.1,7.7,7.6,15.4
			c-0.3,4.8-6.9,13.1-6.9,13.1s13.6,7.9,18.6-2.1c2.2-4.5,2.7-30.2,1.7-33.4S25.8,26.3,25.6,26z"/>
		<path id="Path_781" class="st17" d="M35.8,62.6c-3.8-0.2-7-1.7-9-4.9c-2.1-3.3-3.4-6.9-5.2-10.2c-1.8-3-3.7-6-6-8.7
			c1.1,3.2,1.5,6.6,1.1,9.9c0,0,8.1,7.7,7.6,15.4c-0.3,4.8-6.9,13.1-6.9,13.1s13.6,7.9,18.6-2.1c0.9-1.8,1.5-6.8,1.9-12.5
			C37.2,62.6,36.5,62.7,35.8,62.6z"/>
		<path id="Path_782" class="st19" d="M37,46.3c-0.1,0.4-0.4,0.6-0.8,0.5c-0.4-0.1-0.6-0.4-0.5-0.8c0.1-0.3,0.3-0.5,0.7-0.5
			C36.7,45.5,37,45.9,37,46.3z"/>
		<path id="Path_783" class="st19" d="M37,57.4c-0.1,0.4-0.4,0.6-0.8,0.5c-0.4-0.1-0.6-0.4-0.5-0.8c0.1-0.3,0.3-0.5,0.7-0.5
			C36.7,56.7,37,57,37,57.4z"/>
		<path id="Path_784" class="st19" d="M36.1,69.3c-0.1,0.4-0.4,0.6-0.8,0.5c-0.4-0.1-0.6-0.4-0.5-0.8c0.1-0.3,0.3-0.5,0.7-0.5
			C35.8,68.6,36.1,68.9,36.1,69.3z"/>
		<path id="Path_785" class="st14" d="M26.1,25.4l-1.8,1.1c0,0-0.7,4.1-0.3,4.5c1.2,0.6,2.3,1.1,3.6,1.4c0,0-3.1,1.8-3,2.3
			c0.1,0.8,12.4,7.7,13.6,10.9c0.3-1.7,0.1-3.5-0.5-5.2C36.2,36.6,31.6,31.3,26.1,25.4z"/>
		<g id="Group_353" transform="translate(22.136 68.1)">
			<path id="Path_786" class="st20" d="M-8-16.9l3.9,21.2l15.5-2.8l-3-21.3L-8-16.9z"/>
			<path id="Path_787" class="st21" d="M10.2-6.5L9.8-9.3C9.1-8.9,8.4-8.5,7.6-8.2C6.4-7.6,5.8-6.9,6.8-5.8S9.1-5.5,10.2-6.5z"/>
			<path id="Path_788" class="st22" d="M-7.3-16.5L-4.2,3l14.5-2.6L7.6-19.2L-7.3-16.5z"/>
			<path id="Path_789" class="st23" d="M3.2-13.9c-1.4-0.8-2.6-2.1-3.3-3.6c-0.1-0.1-0.1-0.2-0.2-0.3l-7.7,1.3L-4.3,3l14.7-2.6
				L8.5-12.7C6.6-12.6,4.8-13,3.2-13.9z"/>
			<path id="Path_790" class="st24" d="M9.3-10.9L9.3-10.9c-0.9-0.2-1.8,0-2.5,0.5C4.8-9.1,4.1-9.8,2.2-8.6C0.8-7.7-5-11.5-7-11.4
				l2.1,11.2c2.2-0.2,4.3-0.5,6.5-0.9c1.3-0.3,4.6,0.8,6,0.6c1.2-0.2,2.3-0.5,3.4-0.9l-1.3-9.1C9.6-10.5,9.5-10.6,9.3-10.9z"/>
			<g id="Group_352" transform="translate(1.993 3.027)">
				<g id="Group_350">
					<path id="Path_791" class="st13" d="M-7.4-18.4L-8-18.3l-0.3,1.7l0.6-0.1l0-0.2l0.6-0.1l0.1,0.2l0.6-0.1L-7.4-18.4z M-7.7-17.3
						l0.1-0.6h0l0.3,0.5L-7.7-17.3z"/>
					<path id="Path_792" class="st13" d="M-6.2-17l-0.3-1.6l0.5-0.1l0.2,1.2l0.9-0.1l0.1,0.4L-6.2-17z"/>
					<path id="Path_793" class="st13" d="M-3.1-18.6l-0.5,0.1c0-0.1-0.2-0.2-0.4-0.2c-0.2,0-0.3,0.2-0.3,0.4c0,0,0,0.1,0,0.1l0,0.2
						c0,0.2,0.2,0.3,0.4,0.3c0,0,0,0,0.1,0c0.2,0,0.3-0.1,0.3-0.3l-0.4,0.1L-4-18.3l0.9-0.2l0.2,0.9l-0.3,0l-0.1-0.2
						c-0.2,0.2-0.4,0.3-0.6,0.3c-0.4,0.1-0.8-0.1-1-0.5c0-0.1,0-0.1,0-0.2c-0.1-0.6,0.2-0.9,0.8-1C-3.6-19.1-3.2-19-3.1-18.6z"/>
					<path id="Path_794" class="st13" d="M-2.6-17.6l-0.3-1.6l1.5-0.2l0.1,0.4l-0.9,0.2l0,0.2l0.8-0.1l0.1,0.4l-0.8,0.1l0,0.2
						l0.9-0.2l0.1,0.4L-2.6-17.6z"/>
					<path id="Path_795" class="st13" d="M0.4-18.9L0.4-18.9c0.2-0.1,0.3-0.3,0.2-0.4c-0.1-0.2-0.3-0.4-0.5-0.3l-0.5,0.1l-0.6,0.1
						l0.2,0.8l0.1,0.8l0.5-0.1l0.5-0.1l0.1,0c0,0,0,0,0,0c0.2,0,0.4-0.3,0.4-0.5C0.8-18.8,0.6-18.9,0.4-18.9z M-0.1-19.3
						c0.1,0,0.1,0,0.2,0.1v0C0.1-19.1,0-19,0-19l-0.2,0l-0.2,0l-0.1-0.3l0.1,0L-0.1-19.3z M-0.3-18.4l-0.1-0.3L0-18.7l0.1,0
						c0.1,0,0.1,0,0.2,0.1v0c0,0,0,0,0,0c0,0.1,0,0.1-0.1,0.1l0,0L-0.3-18.4z"/>
					<path id="Path_796" class="st13" d="M2.3-19.1c0.2-0.1,0.3-0.3,0.2-0.5c0,0,0,0,0,0c-0.1-0.3-0.4-0.4-0.7-0.4l-1,0.2l0.3,1.6
						l0.6-0.1l-0.1-0.6l0.2,0l0.4,0.5l0.6-0.1L2.3-19.1z M2-19.5c0,0.1,0,0.2-0.1,0.2l-0.4,0.1l-0.1-0.3l0.4-0.1
						C1.9-19.6,2-19.6,2-19.5L2-19.5z"/>
					<path id="Path_797" class="st13" d="M3.9-20.3l-0.6,0.1l-0.3,1.7l0.6-0.1l0-0.2l0.6-0.1l0.1,0.2l0.6-0.1L3.9-20.3z M3.6-19.2
						l0.1-0.6l0,0l0.3,0.6L3.6-19.2z"/>
				</g>
				<g id="Group_351" transform="translate(0.166 2.51)">
					<path id="Path_1049" class="st13" d="M-8.3-18.5l13.2-2.1l0.1,0.4l-13.2,2.1L-8.3-18.5z"/>
				</g>
			</g>
		</g>
		<g id="Group_354" transform="translate(32.963 78.85)">
			<path id="Path_798" class="st9" d="M-9.5-13.6c0,0,4.1,1.5,4.6,1.7c0.9,0.4,0.9,0.1,4.8-0.9c0.1,0,0.3-0.2,0.2-0.3
				c0-0.3-0.1-0.7-0.4-0.9c0,0,1.5-0.5,1-1.1c-0.2-0.3-0.5-0.6-0.5-0.6S1-15.9,1-16.4c0-0.3-0.5-0.8-1-1c0,0,0.6-0.5,0.5-0.9
				c0-0.2-0.2-0.7-1.4-1.4c0,0,0.1,0.4,0.1,0.8c0,0-0.3,0.8-1.6,1.6C-3-17-3.6-17.2-3.3-17.7c0.3-0.7,0.7-0.4,1.7-1.3
				c0.9-0.8,1.2-2,0.6-2.4c-1-0.5-1.9,1-2.4,1.4c-1.1,0.8-3.2,1.4-3.4,1.7c-0.4,0.5-1.2,1.5-2.4,1.4L-9.5-13.6z"/>
			<path id="Path_799" class="st10" d="M-2.1-17.5c-0.1,0.1-0.2,0.1-0.3,0.2c-0.6,0.3-1,0.2-1-0.2c0,0-0.1,0-0.1,0
				c-0.9,0-1.7-0.5-1.9-1.3c-0.5,0.2-1,0.4-1.4,0.6c-0.4,0.5-1.2,1.5-2.4,1.4l-0.3,3.3c0,0,4.1,1.5,4.6,1.7c0.6,0.3,0.8,0.2,2.3-0.2
				c0,0,0,0,0-0.1c0.2-1.5,0.9-3,0.7-4.5C-2-16.9-2.1-17.2-2.1-17.5z"/>
			<path id="Path_800" class="st9" d="M-0.8-18.9c0,0-0.3,0.8-1.6,1.6C-3-17-3.6-17.2-3.3-17.7c0.3-0.7,0.7-0.4,1.7-1.3
				c0.9-0.8,1.2-2,0.6-2.4c-0.2-0.1-0.5-0.1-0.7-0.1c0.5,0.2,0.7,0.6,0.5,1.1c0,0,0,0,0,0c-0.2,0.6-0.6,1-1.2,1.3
				c-0.8,0.4-1.3,0.8-1.5,1.4c0.6,0.2,1,1.1,0.6,1.6c0.5,0.3,0.7,0.9,0.4,1.4c0,0.1-0.1,0.1-0.1,0.2c0.3,0.2,0.1,1.1-0.4,1.4
				c0,0,0.1,0.9-1.1,0.9c-0.5,0-3.9-1.6-5.2-1.8l0,0.3c0,0,4.1,1.5,4.6,1.7c0.9,0.4,2.1,0.2,4.8-0.9c0.1,0,0.2-0.2,0.2-0.3
				c0-0.3-0.1-0.7-0.4-0.9c0,0,1.5-0.5,1-1.1c-0.2-0.3-0.5-0.6-0.5-0.6S1-15.9,1-16.4c0-0.3-0.5-0.8-1-1c0,0,0.6-0.5,0.5-0.9
				c0-0.2-0.2-0.7-1.4-1.4C-0.9-19.7-0.8-19.2-0.8-18.9z"/>
			<path id="Path_801" class="st25" d="M0.2-17.3c-0.1,0-0.1-0.1-0.2-0.1c-0.2,0-2.1,0.9-2.6,1.2C-1.6-16.5-0.7-16.8,0.2-17.3z"/>
			<path id="Path_802" class="st25" d="M0.4-15.5c-0.1,0-0.1-0.2-0.2-0.2c-0.2,0-2.1,1-2.7,1.3C-1.5-14.7-0.5-15,0.4-15.5z"/>
			<path id="Path_803" class="st25" d="M-0.1-13.8c0-0.1-0.1-0.1-0.1-0.2c-0.2,0-1.5,0.7-2,1C-1.5-13.2-0.8-13.4-0.1-13.8z"/>
			<path id="Path_804" class="st26" d="M-2.5-20c-0.5-0.5,0.5-1.2,0.6-1.2c0.4,0.1,0.6,0.4,0.6,0.8c-0.1,0.2-0.3,0.4-0.5,0.5
				C-2-19.8-2.3-19.8-2.5-20z"/>
		</g>
		<path id="Path_805" class="st13" d="M22.4,61.5l2.2,0.1l-0.7,4.1l-2.2-0.3L22.4,61.5z"/>
		<path id="Path_806" class="st14" d="M16.7,48.7c0,0,3.9-11.7-4.8-17.9C7.4,35.7,3.4,41,0.1,46.8c-1.7,3-6.8,12.6-4.4,14.7
			c2.5,2.2,6.9,3.5,26.4,4.4l0.8-4.8c0,0-16.9-3.9-16.8-5S16.7,48.7,16.7,48.7z"/>
		<path id="Path_807" class="st15" d="M6,56C6,56,6.1,56,6,56c0.7-1.4,10.7-7.3,10.7-7.3s2-5.8,0-11.4C15.1,47.4,4.6,52.7,6,56z"/>
		<path id="Path_808" class="st9" d="M37.8,21.2c2.4-0.1,5-0.5,6.2-2.6c0.8-1.3,2-3.1,2.2-4.6c0-0.9-0.1-1.9-0.4-2.7
			C44.6,9.9,43,3,42.7,1.7c-0.3-1.5-0.2-3.7-0.8-5.1c-1-2.1-3.4-1.6-5.7-2.3c-1.7-0.5-4.4-0.8-5.8,0.5c-0.4,0.5-0.8,0.9-1.3,1.4
			c-0.5,0.3-1,0.3-1.5,0.7c-1.1,0.7-1.8,1.8-2.1,3.1c-0.2,1.3-1.7,3.3-1.5,4.5c0.5,2.2,3.5,10.1,4.6,11.9c1.4,2,3.3,3.4,5.6,4.1
			C35.3,20.7,36.5,21,37.8,21.2z"/>
		<path id="Path_809" class="st10" d="M30,11.4c-1.2-1.9-3.4-5.7-3-8c0.7-4.1,6.1-4.5,7.5-4.8c2.5-0.4,5.6-1.9,8.1,1.5
			c0-1.2-0.2-2.4-0.7-3.5c-1-2.1-3.4-1.6-5.7-2.3c-1.7-0.5-4.4-0.8-5.8,0.5c-0.4,0.5-0.8,0.9-1.3,1.4c-0.5,0.3-1,0.3-1.5,0.7
			c-1.1,0.7-1.8,1.8-2.1,3.1c-0.2,1.3-1.7,3.3-1.5,4.5c0.9,3.1,2,6.1,3.2,9c1.4,0,2.8,0.1,4.1,0.2C30.8,12.8,30.4,12.1,30,11.4z"/>
		<path id="Path_810" class="st27" d="M26.2-3.4c1.9,2,2.4,2.8,4.4,1.8c2-0.7,4-1.2,6-1.6c1.1-0.2,2.2-0.2,3.2,0
			c1.2,0.1,2.2,1,2.6,2.2c1.4-1.7,0.2-3.7-0.8-4.3c-0.8-0.5-3.8-0.3-4.8-0.4c-1.2-0.1-2.4,1.3-3.2,2c-0.9,0.8-1.7-0.5-2.8,0
			C29.5-3.1,27.5-2.6,26.2-3.4z"/>
		<path id="Path_811" class="st28" d="M38-9.3c-3.3-2.5-7.3-0.5-10,1.3c-1.2,0.8-4.5,5.1-5.2,6c2.2,2.1,6.1,1.8,8.7,0.3
			c1.2-0.7,2.4-1.6,3.5-2.5c0.8-0.8,2-1.1,3.1-0.9c2.4,0.4,4.3,2.5,4.4,4.9c1.3-0.2,3.6-2.4,2.8-4.8C44.4-7.5,42.2-6.2,38-9.3z"/>
		<path id="Path_812" class="st29" d="M37-9.9c-1.2-0.6-2.6-0.7-4-0.4c-0.4,0.6-0.7,1.4-0.8,2.2c0.3,1.1,0.2,2.2,0,3.3
			c-0.1,0.3-0.2,0.6-0.4,0.9c-0.4,0.6-0.6,1.3-0.4,2c0,0.1,0,0.2,0.1,0.3l0,0c1.3-0.8,2.4-1.6,3.6-2.6c0.1-0.1,0.2-0.1,0.3-0.2
			c0.7-0.5,1.1-1.2,1.1-2.1v0C36.3-7.6,36.5-8.8,37-9.9z"/>
		<path id="Path_813" class="st28" d="M26.1,5.9c0,1.1,2.9,5.4,4.2,6.5c1.1,0.9,2.9,3.4,0.4,4.6c-1.8,0.9-5.2-0.2-6.8-1.2
			c-2.5-1.6-3.3-3.2-3.6-5.3c-0.1-1,0.3-10.4,0.8-11.4c1.2-2.2,5-4.4,6.3-0.1C27.1-1.7,26.2,3.3,26.1,5.9z"/>
		<path id="Path_814" class="st29" d="M30.3,12.4c-1.3-1-3.8-4.8-4.2-6.2c-0.4,0.2-0.9,0.3-1.4,0.4c-1.4,0.3-2.9,0.2-4.3-0.2
			c-0.1,2-0.1,3.8-0.1,4.2c0.2,2.1,1.1,3.7,3.6,5.3c1.5,1,5,2,6.8,1.2C33.2,15.8,31.4,13.3,30.3,12.4z"/>
		<path id="Path_815" class="st30" d="M29.8,14.4c-0.8-0.7-2-0.8-2.6-1.8c-0.2-0.3-0.3-0.5-0.5-0.8c-0.3,0.8-1.2,0.6-1.3,0.7
			c-0.3,0.9-0.7,1.1-0.1,3.9c1.7,0.7,4,1.1,5.4,0.5c0.9-0.3,1.4-1.3,1.2-2.2C31.2,15.1,30.4,14.9,29.8,14.4z"/>
		<path id="Path_816" class="st29" d="M44.8,9.3c-1.7,1-3.7,1.7-5.7,1.9c-1.9,0.2-4.7-0.2-6.6-0.1c-1.7,0.3-3.3,0.7-4.9,1.3
			c-0.1,7.4,7.8,9.2,9.4,9.3c3.6,0.3,8.6-1,10.1-4.5C48.3,14.6,46.5,11.5,44.8,9.3z"/>
		<g id="Group_355" transform="translate(44.415 25.236)">
			<path id="Path_817" class="st31" d="M-11.1-12.6c0,0,6.3,1.8,9.6-1.3c0,0,0.4,4.6-3.9,4.8C-7.9-9-10.1-10.4-11.1-12.6z"/>
			<path id="Path_818" class="st13" d="M-1.9-13.6c-2.8,2.2-7.2,1.4-8.7,1.1c0.1,0.2,0.2,0.4,0.2,0.7c0,0,0,0.1,0,0.1
				c1.3,1,2.9,1.5,4.6,1.3c2.5-0.1,3.5-1.2,4-2.2C-1.9-12.9-1.9-13.3-1.9-13.6z"/>
		</g>
		<g id="Group_356" transform="translate(32.113 20.84)">
			<path id="Path_819" class="st9" d="M-4.6-7.9c0,0-1-3.8-1.5-4.5s-2.4-2-3.2,0.6S-7.6-6.7-4.6-7.9z"/>
			<path id="Path_820" class="st32" d="M-8.4-11.7c0,0,1-0.7,1.7-0.2c0.7,0.5,2.2,3.6,1.1,3.7s-1.8,0-1.6-1.3s0.3-1.6,0-1.7
				C-7.4-11.4-8.9-11.3-8.4-11.7z"/>
		</g>
		<path id="Path_821" class="st28" d="M33.7-0.5c0.3,0,0.5,0.1,0.5,0.4c0.1,0.7,0.2,2-0.3,2.1c-2.1,0.1-4.1,0.7-5.9,1.8
			c0,0-0.6-1,0.8-2.3C30,0.2,32.4-0.3,33.7-0.5z"/>
		<path id="Path_822" class="st28" d="M38.5-0.8c-0.2,0-0.3,0.1-0.3,0.3c0,0.6-0.1,2.2,0.8,2c1.5-0.1,3,0,4.4,0.2
			c-0.3-1-1.2-1.8-2.2-2C40.3-0.6,39.4-0.8,38.5-0.8z"/>
		
			<radialGradient id="Path_823_1_" cx="-591.4416" cy="258.0514" r="0.5489" gradientTransform="matrix(3.2552 0 0 -3.0786 1967.1919 803.0923)" gradientUnits="userSpaceOnUse">
			<stop  offset="0" style="stop-color:#FFAB87"/>
			<stop  offset="0.503" style="stop-color:#FFAE85"/>
			<stop  offset="0.895" style="stop-color:#FFB77F"/>
			<stop  offset="0.898" style="stop-color:#FFB87F"/>
		</radialGradient>
		<path id="Path_823" class="st33" d="M44,8.5c0.1,0.7-0.8,1.4-2,1.5c-1.2,0.1-2.2-0.4-2.2-1.1s0.8-1.4,2-1.5
			C42.9,7.2,43.9,7.7,44,8.5z"/>
		
			<radialGradient id="Path_824_1_" cx="-611.8139" cy="287.743" r="0.5525" gradientTransform="matrix(3.7165 0.483 0.5114 -3.5195 2156.9521 1316.7838)" gradientUnits="userSpaceOnUse">
			<stop  offset="0" style="stop-color:#FFAB87"/>
			<stop  offset="0.503" style="stop-color:#FFAE85"/>
			<stop  offset="0.895" style="stop-color:#FFB77F"/>
			<stop  offset="0.898" style="stop-color:#FFB87F"/>
		</radialGradient>
		<path id="Path_824" class="st34" d="M35.7,9.6c0,0.8-1.2,1.5-2.5,1.4c-1.4,0-2.4-0.8-2.4-1.6s1.2-1.5,2.5-1.4
			C34.6,8,35.7,8.7,35.7,9.6z"/>
		<g id="Group_360" transform="translate(40.583 16.963)">
			<g id="Group_359" transform="translate(0)">
				<g id="Group_358" transform="translate(0.001 0.106)">
					<g>
						<defs>
							<path id="SVGID_1_" d="M-10.6-10.9c0.5-1.2,1.6-1.9,2.8-1.9c1.1-0.1,2.1,0.8,2.2,1.9c0,0,0,0.1,0,0.1c-0.7,1-1.9,1.4-3,1.1
								C-10.3-10-10.6-10.9-10.6-10.9z"/>
						</defs>
						<clipPath id="SVGID_2_">
							<use xlink:href="#SVGID_1_"  style="overflow:visible;"/>
						</clipPath>
						<g id="Group_357" class="st35">
							<path id="Path_825" class="st36" d="M-10.6-10.9c0.5-1.2,1.6-1.9,2.8-1.9c1.1-0.1,2.1,0.8,2.2,1.9c0,0,0,0.1,0,0.1
								c-0.7,1-1.9,1.4-3,1.1C-10.3-10-10.6-10.9-10.6-10.9z"/>
							
								<radialGradient id="Path_826_1_" cx="-671.025" cy="250.4251" r="0.6893" gradientTransform="matrix(4.0989 0 0 -3.856 2741.9507 956.8481)" gradientUnits="userSpaceOnUse">
								<stop  offset="0" style="stop-color:#847773"/>
								<stop  offset="1" style="stop-color:#402D26"/>
							</radialGradient>
							<path id="Path_826" class="st37" d="M-6.6-11c0,0.9-0.8,1.7-1.7,1.6c-0.9,0-1.7-0.8-1.6-1.7c0-0.9,0.7-1.6,1.7-1.6
								C-7.3-12.6-6.6-11.9-6.6-11z"/>
						</g>
					</g>
				</g>
				<path id="Path_828" class="st38" d="M-8-11.9c1,0,1.9,0.5,2.5,1.2l0,0c0,0,0.1-2.2-2.5-2.2c-1.2-0.1-2.3,0.8-2.5,2l0,0
					C-9.9-11.5-9-11.8-8-11.9z"/>
			</g>
		</g>
		<g id="Group_364" transform="translate(51.214 16.001)">
			<g id="Group_363" transform="translate(0 0)">
				<g id="Group_362">
					<g>
						<defs>
							<path id="SVGID_3_" d="M-12.1-10.9c0.3-1,1.3-1.8,2.4-1.8c1.9,0,1.9,2,1.9,2c-0.5,0.9-1.5,1.3-2.5,1
								C-11.1-9.7-11.8-10.2-12.1-10.9z"/>
						</defs>
						<clipPath id="SVGID_4_">
							<use xlink:href="#SVGID_3_"  style="overflow:visible;"/>
						</clipPath>
						<g id="Group_361" class="st39">
							<path id="Path_829" class="st36" d="M-12.1-10.9c0.3-1,1.3-1.8,2.4-1.8c1.9,0,1.9,2,1.9,2c-0.5,0.9-1.5,1.3-2.5,1
								C-11.1-9.7-11.8-10.2-12.1-10.9z"/>
							
								<radialGradient id="Path_830_1_" cx="-653.3914" cy="242.8183" r="0.7168" gradientTransform="matrix(3.4508 0 0 -3.178 2244.6587 762.7817)" gradientUnits="userSpaceOnUse">
								<stop  offset="0" style="stop-color:#847773"/>
								<stop  offset="1" style="stop-color:#402D26"/>
							</radialGradient>
							<path id="Path_830" class="st40" d="M-8.9-10.8c0,0.8-0.6,1.4-1.4,1.3s-1.4-0.6-1.3-1.4c0-0.7,0.6-1.3,1.4-1.3
								C-9.5-12.2-8.8-11.6-8.9-10.8C-8.9-10.8-8.9-10.8-8.9-10.8z"/>
						</g>
					</g>
				</g>
				<path id="Path_832" class="st38" d="M-10.1-11.9c0.9,0.1,1.7,0.5,2.2,1.2c0-1.1-0.8-1.9-1.8-2c0,0,0,0,0,0
					c-1.1,0-2.1,0.7-2.4,1.8l0,0C-11.6-11.5-10.9-11.9-10.1-11.9z"/>
			</g>
		</g>
		<path id="Path_833" class="st41" d="M43.6,2.7c-0.1-0.2-0.1-0.2-0.2-0.2c-0.2,0-0.3,0-0.5,0c-1.4,0.1-2.7,0.3-4.1,0.6
			c-0.2,0.1-0.4,0.3-0.3,0.6c0,0.1,0,0.2,0.1,0.3c-0.9-0.4-1.9-0.2-2.6,0.4c-0.2-0.6-0.4-1.1-0.5-1.1c-2.2,0.2-4.4,0.5-6.6,0.9
			c-0.3,0.1-0.5,0.3-0.4,0.6c0,0,0,0,0,0c0.3,1,1,3.4,1.1,3.6c0.1,0.1,0.7,0.2,1.6,0.1c1,0,2.2-0.2,3.3-0.4c1.1-0.2,2-0.5,2-0.8
			c0-0.8-0.1-1.6-0.3-2.4c0.4-0.3,0.9-0.5,1.4-0.7c0.4,0,0.8,0.1,1.1,0.3c0.1,0.6,0.2,1.2,0.4,1.6C39.2,6.7,39.2,7,39.3,7
			c0,0.1,0.2,0.1,0.5,0.2c1,0.1,3.3-0.2,4.2-0.7c0.2-0.1,0.3-0.2,0.3-0.4C44.2,4.9,44,3.8,43.6,2.7z M35.9,7.1
			C35.8,7.5,34.4,7.8,33,8h0C32.8,8,32.6,8,32.4,8c0,0,0,0,0,0c-1.2,0.1-2.2,0.1-2.2-0.1c-0.1-0.1-0.6-2.1-0.8-2.9
			c-0.1-0.2,0.1-0.4,0.3-0.5c0,0,0,0,0,0c1.8-0.4,3.6-0.6,5.4-0.8C35.3,3.9,36.1,6.4,35.9,7.1z M39.7,6.6c0-0.1-0.2-0.9-0.3-1.7
			c0-0.1,0-0.1,0-0.2c-0.1-0.3-0.1-0.6-0.2-0.8c0-0.2,0.1-0.4,0.2-0.5C40.6,3.2,41.8,3,43,2.9c0,0,0.1,0,0.1,0c0.4,0.9,0.6,2,0.6,3
			v0C43.6,6.6,39.8,7,39.7,6.6z"/>
		<g id="Group_365" transform="translate(48.732 17.191)">
			<path id="Path_834" class="st42" d="M-8.9-7.9c0.1-0.3-0.7-1.5-1.8-3.6c-0.2-0.4-0.4-0.8-0.6-1.3c0.2,0.2,0.3,0.3,0.5,0.5
				c0.9,1.1,3.2,4.2,2.7,4.8c-0.3,0.4-0.6,0.7-2.3,0.9c-0.5,0.1-1,0-1.5-0.2c-0.1-0.1,0.2-0.1,0.9-0.2C-10.1-7-9-7.5-8.9-7.9z"/>
		</g>
		<path id="Path_835" class="st43" d="M78.4,52.8c0.1,0.4,0.4,0.8,0.8,1.1c0.4,0.2,0.9,0.3,1.4,0.2c0,0,38.4-51.7,37.9-52.1l0,0
			C118.1,1.6,78.4,52.8,78.4,52.8z"/>
		<g id="Group_366" transform="translate(112.777 53.274)">
			<path id="Path_836" class="st9" d="M-17.6-16.6c-0.4,0.4-0.9,0.6-1.5,0.8c-0.5,0.1-1,0.3-1.4,0.6c-0.4,0.4-0.4,1.1,1.8,0.7
				c1.5-0.3,1.9-0.7,2.2-1.1c0.2-0.7,0.4-1.4,0.4-2.1L-17.6-16.6z"/>
			<path id="Path_837" class="st10" d="M-18.4-16.1c-0.2,0.1-0.4,0.2-0.7,0.2c-0.5,0.1-1,0.3-1.4,0.6c-0.4,0.4-0.4,1.1,1.8,0.7
				c0.2,0,0.3-0.1,0.5-0.1C-18.4-15.2-18.5-15.7-18.4-16.1z"/>
			<path id="Path_838" class="st44" d="M-20.6-15c0-0.3,0.8-0.5,0.8-0.5c0.2,0.1,0.3,0.3,0.2,0.5c0,0-0.1,0.1-0.1,0.1
				c-0.2,0.1-0.4,0.1-0.5,0.1C-20.5-14.8-20.6-14.9-20.6-15z"/>
			<path id="Path_839" class="st25" d="M-17.9-16c0.6-0.2,1.1-0.4,1.7-0.6c0.1-0.6,0.1-1.2,0.1-1.2l-1.5,1.2
				c-0.4,0.4-0.9,0.6-1.5,0.8c-0.5,0.1-0.9,0.3-1.3,0.5C-19.6-15.7-18.7-15.7-17.9-16z"/>
		</g>
		<g id="Group_367" transform="translate(107.845 48.584)">
			<path id="Path_840" class="st9" d="M-19.6-14c0.9-0.5,1.8-1.1,2.6-1.7c0.6-0.5,1.6,0.3,3.7-1.4c0.2-0.2,0.5-0.1,0.6,0.1
				c0,0,0,0,0.1,0.1c0.2,0.4,0.1,1-0.6,2c-1,1.2-2.6,1.2-3,1.3s-0.9,2-3.3,1.9C-20.6-11.9-19.6-14-19.6-14z"/>
			<path id="Path_841" class="st10" d="M-12.5-17C-12.5-17-12.5-17-12.5-17c-0.1,0.2-0.2,0.4-0.3,0.6c-0.5,0.9-1.6,1.5-2.7,1.4
				c-0.3,0-0.6,0-0.8-0.1c-0.1,1-0.4,1.9-1.1,2.7c0.7-0.5,1-1.3,1.2-1.3c0.4-0.1,2-0.1,3-1.3C-12.3-16-12.3-16.6-12.5-17z"/>
			<path id="Path_842" class="st26" d="M-14.3-16.4c0,0,1-0.7,1-0.7c0,0,0.3-0.3,0.3,0.4c-0.1,0.3-0.3,0.5-0.6,0.7
				C-13.8-15.8-14.1-16.2-14.3-16.4z"/>
		</g>
		<g id="Group_368" transform="translate(112.695 51.984)">
			<path id="Path_843" class="st9" d="M-18.8-16.2c-0.6,0.2-2.1,1.1-1.9,1.6c0.3,0.5,1.3,0.2,2.5-0.2c1.1-0.4,2.6-0.8,2.7-1.3
				c0-0.5,0-1-0.1-1.6C-15.6-17.7-18.6-16.3-18.8-16.2z"/>
			<path id="Path_844" class="st10" d="M-18.1-16.5L-18.1-16.5c-0.3,0.1-0.6,0.3-0.6,0.3c-0.6,0.2-2.1,1.1-1.9,1.6
				c0.3,0.5,1.3,0.2,2.5-0.2l0.1,0C-18.3-15.4-18.3-15.9-18.1-16.5z"/>
			<path id="Path_845" class="st44" d="M-20.6-14.7c-0.1-0.3,0.7-0.7,0.8-0.6c0.2,0.1,0.4,0.3,0.3,0.6c0,0.1,0,0.1-0.1,0.1
				c-0.2,0.1-0.4,0.2-0.6,0.2C-20.4-14.5-20.5-14.6-20.6-14.7z"/>
			<path id="Path_846" class="st25" d="M-15.5-17.2c0-0.3,0-0.5,0-0.5s-3,1.4-3.2,1.5c-0.4,0.2-0.7,0.4-1.1,0.6
				C-18.4-15.9-17.1-16.7-15.5-17.2z"/>
		</g>
		<g id="Group_369" transform="translate(112.214 50.026)">
			<path id="Path_847" class="st9" d="M-17.3-16.3c-0.4,0.3-0.7,0.5-1.2,0.7c-0.9,0.4-2.5,1.2-2.1,1.8c0.3,0.4,0.7,0.3,1.5,0
				c0.7-0.3,1.5-0.7,1.7-0.8c0.4-0.2,2.7-0.9,2.7-1.5c0-0.8,0.2-1.8-1.2-1.1C-16.3-16.9-16.8-16.6-17.3-16.3z"/>
			<path id="Path_848" class="st10" d="M-18.1-15.8c-0.1,0.1-0.2,0.1-0.4,0.2c-0.9,0.4-2.5,1.2-2.1,1.8c0.3,0.4,0.7,0.3,1.5,0
				c0.6-0.2,1.3-0.5,1.6-0.7C-17.8-14.9-18-15.3-18.1-15.8z"/>
			<path id="Path_849" class="st44" d="M-20.5-14c-0.1-0.4,0.8-0.7,0.9-0.7c0.3,0.1,0.4,0.4,0.3,0.6c0,0.1,0,0.1-0.1,0.2
				c-0.2,0.1-0.4,0.2-0.6,0.2C-20.3-13.7-20.5-13.8-20.5-14z"/>
		</g>
		<path id="Path_850" class="st5" d="M33.3,5.7c0,0.1-0.1,0.3-0.2,0.3c-0.1,0-0.3-0.1-0.3-0.2c0-0.1,0.1-0.3,0.2-0.3c0,0,0,0,0,0
			C33.2,5.5,33.3,5.6,33.3,5.7z"/>
		<path id="Path_851" class="st5" d="M41.7,4.8c0,0.1-0.1,0.3-0.2,0.3c-0.1,0-0.3-0.1-0.3-0.2c0-0.1,0.1-0.3,0.2-0.3c0,0,0,0,0,0
			C41.6,4.6,41.7,4.7,41.7,4.8z"/>
	</g>
	<path class="st45" d="M169.4,82.3c0,44.9-35.9,81.4-80.6,82.3c-0.6,0-1.1,0-1.7,0c-2.3,0-4.6-0.1-6.9-0.3c-2.7-0.2-5.3-0.6-7.9-1
		c-3.1-0.6-6.1-1.3-9-2.2C29.4,150.9,4.7,119.5,4.7,82.3C4.7,36.8,41.6,0,87,0c33.2,0,61.9,19.7,74.9,48c0.1,0.2,0.2,0.3,0.2,0.5
		C166.8,58.8,169.4,70.3,169.4,82.3z"/>
</g>
</svg>
