<svg xmlns="http://www.w3.org/2000/svg" xmlns:xlink="http://www.w3.org/1999/xlink" width="200" height="197.63" viewBox="0 0 200 197.63">
  <defs>
    <linearGradient id="linear-gradient" x1="0.5" x2="0.5" y2="1" gradientUnits="objectBoundingBox">
      <stop offset="0" stop-color="#e83a99"/>
      <stop offset="1" stop-color="#e2906e"/>
    </linearGradient>
    <clipPath id="clip-path">
      <path id="Path_758" data-name="Path 758" d="M108.513,13a95.721,95.721,0,1,0,95.513,95.72A95.617,95.617,0,0,0,108.513,13Z" transform="translate(-13 -13)" fill="#edefff"/>
    </clipPath>
  </defs>
  <g id="Group_405" data-name="Group 405" transform="translate(0 -1.818)">
    <g id="icons8-classroom" transform="translate(0 1.818)">
      <path id="Path_518" data-name="Path 518" d="M78.634,12a2.634,2.634,0,1,0,2.634,2.634A2.634,2.634,0,0,0,78.634,12Z" transform="translate(89.755 -8.837)" fill="url(#linear-gradient)"/>
      <path id="Path_519" data-name="Path 519" d="M109.181,13a96.181,96.181,0,1,0,96.181,96.181A96.181,96.181,0,0,0,109.181,13Z" transform="translate(-7.732 -13)" fill="url(#linear-gradient)"/>
      <path id="Path_520" data-name="Path 520" d="M89.537,11a10.537,10.537,0,1,0,10.537,10.537A10.537,10.537,0,0,0,89.537,11Z" transform="translate(94.658 -10.471)" fill="#e83a99"/>
      <path id="Path_521" data-name="Path 521" d="M90.268,22a5.268,5.268,0,1,0,5.268,5.268A5.268,5.268,0,0,0,90.268,22Z" transform="translate(104.463 7.505)" fill="#e2906e"/>
      <path id="Path_522" data-name="Path 522" d="M192.9,98.513a5.269,5.269,0,1,0,5.2,5.268A5.233,5.233,0,0,0,192.9,98.513ZM21.394,59A10.538,10.538,0,1,0,31.788,69.537,10.466,10.466,0,0,0,21.394,59Z" transform="translate(-11 59.604)" fill="url(#linear-gradient)"/>
      <path id="Path_523" data-name="Path 523" d="M28.268,85a5.268,5.268,0,1,0,5.268,5.268A5.268,5.268,0,0,0,28.268,85Z" transform="translate(8.194 102.093)" fill="#e2906e"/>
      <path id="Path_524" data-name="Path 524" d="M22.487,76.781a6.586,6.586,0,1,0,6.487,6.585A6.537,6.537,0,0,0,22.487,76.781ZM180.762,32a3.952,3.952,0,1,0,3.892,3.951A3.922,3.922,0,0,0,180.762,32Z" transform="translate(-2.829 17.086)" fill="#fff"/>
    </g>
    <g id="Group_404" data-name="Group 404" transform="translate(6.19 1.818)">
      <g id="Mask_Group_2" data-name="Mask Group 2" transform="translate(0 0)" clip-path="url(#clip-path)">
        <g id="Group_347" data-name="Group 347" transform="translate(53.792 53.69)">
          <path id="Path_710" data-name="Path 710" d="M-227.044,61.157c-.776,1.406-4.184,3.57-8.244,5.031a28.021,28.021,0,0,1-4.846,1.287,35.424,35.424,0,0,1-7.757.284c-3.737-.244-7.015-.978-7.99-1.87-1.642-1.5-6.6-39.217-6.657-40.219s10.757-3.66,14.832-4.328,15.17-1.606,15.439-.639S-225.964,59.213-227.044,61.157Z" transform="translate(279.029 -8.599)" fill="#ffb9a9"/>
          <path id="Path_711" data-name="Path 711" d="M-219.328,117.737a44.292,44.292,0,0,1-5.1,10.222,21.943,21.943,0,0,1-7.836-7.649v-3.784a35.423,35.423,0,0,0,7.757-.284,28.02,28.02,0,0,0,4.846-1.287l.154,1.272.1.852Z" transform="translate(263.402 -57.365)" fill="#ffb9a9"/>
          <path id="Path_712" data-name="Path 712" d="M-209.869,168.319v.005a78.074,78.074,0,0,1-1.687,10.541c-1.8-2.862-3.433-5.764-4.876-8.522v0l-.776-15.148a18.171,18.171,0,0,0,3.035-.294Z" transform="translate(255.63 -77.94)" fill="#f2819f"/>
          <path id="Path_713" data-name="Path 713" d="M-206.34,135.59c-.149-.1-.294-.214-.443-.319-.483-.339-.965-.663-1.438-.977-1.329-.873-2.612-1.631-3.742-2.264-2.393-1.336-4.1-2.089-4.1-2.089a44.293,44.293,0,0,0,5.1-10.222l-.079-.658.577-.259,3.319,2.2c.044.229.085.454.124.683A64.272,64.272,0,0,1-206.34,135.59Z" transform="translate(255.041 -59.346)" fill="#eeebf4"/>
          <path id="Path_714" data-name="Path 714" d="M-205.571,148.347c-.224,6.382-.627,11.493-1.06,15.432l-4.3-13.423a1.438,1.438,0,0,0,.314-.09c.119-.1.985-3.057,1.308-4.183C-208.184,146.716-206.9,147.474-205.571,148.347Z" transform="translate(252.392 -73.4)" fill="#54c6e0"/>
          <path id="Path_715" data-name="Path 715" d="M-215.455,143.863c-.323,1.127-1.189,4.084-1.308,4.183a1.439,1.439,0,0,1-.314.09,18.171,18.171,0,0,1-3.035.294,1,1,0,0,1-.339-.05,20.394,20.394,0,0,1-2.383-3.485c1.049-1.047,2.169-2.124,3.274-3.122C-219.559,141.774-217.848,142.527-215.455,143.863Z" transform="translate(258.534 -71.18)" fill="#f2819f"/>
          <path id="Path_716" data-name="Path 716" d="M-222.993,166.9a154.72,154.72,0,0,1-6.926-15.133c.926-.987,2.12-2.244,3.428-3.55a20.4,20.4,0,0,0,2.383,3.485,1,1,0,0,0,.339.05Z" transform="translate(262.191 -74.497)" fill="#54c6e0"/>
          <path id="Path_717" data-name="Path 717" d="M-228.456,132.281c-1.1,1-2.224,2.074-3.274,3.122-1.309,1.306-2.5,2.563-3.428,3.55-.517.548-.945,1.017-1.259,1.366-.388.419-.6.663-.6.663a37.07,37.07,0,0,1-3.045-13.468c-.01-.469,0-.718,0-.718l3.11-3.45h.661v1.286A21.943,21.943,0,0,0-228.456,132.281Z" transform="translate(267.43 -61.687)" fill="#eeebf4"/>
          <path id="Path_718" data-name="Path 718" d="M-212.083,193.565a14.1,14.1,0,0,1-.712,3.76,66.134,66.134,0,0,1-26.43,5.47,66.3,66.3,0,0,1-22.579-3.939,31.81,31.81,0,0,1,1.831-4.353c.5-.748-.662-4.822-.662-6.981,0-.189-.02-.623-.05-1.256-.114-2.179-.4-6.722-.741-11.838-.09-1.341-.179-2.723-.274-4.114-.079-1.1-.154-2.2-.229-3.3-.547-7.853-1.079-15.1-1.194-15.772-.229-1.336-2.308-13.642-2.488-15.9a1.165,1.165,0,0,1,0-.349c.2-.294,3.771-1.292,4.6-1.581.711-.249,6.249-4.129,7.752-5.181a37.066,37.066,0,0,0,3.045,13.468s.214-.244.6-.663a144.237,144.237,0,0,0,7.637,16.564c.214.389.428.778.647,1.167.1.169.194.339.294.509,1,1.745,2.07,3.455,3.174,5.051.582.833,1.169,1.635,1.766,2.393,0,0,.3-.738.741-2.264.333-1.147.736-2.747,1.135-4.822.035-.16.064-.324.1-.489.065-.359.135-.738.2-1.127a119.8,119.8,0,0,0,1.552-19.691c.149.1.294.214.443.319a64.272,64.272,0,0,0-.687-13.9c1.194.469,3.911,1.511,4.936,1.77,1.323.329,5.677.872,5.926,1.037a1.393,1.393,0,0,1,.139.394c.552,2.009,2.353,11.144,2.721,14.191.308,2.523,1.318,10.87,1.891,17.6.1,1.162.184,2.274.253,3.3.07,1.062.115,2.035.139,2.867.164,6.313.328,19.113.413,19.775a22.2,22.2,0,0,0,1.433,3.635C-214.57,189.641-212.083,191.885-212.083,193.565Z" transform="translate(280.619 -62.413)" fill="#f39e4b"/>
          <path id="Path_719" data-name="Path 719" d="M-215.276,151.729c-.1,19.681-3.727,28.391-3.727,28.391-6.5-8.262-11.906-21.511-13.518-25.684.314-.349.742-.818,1.259-1.366a154.706,154.706,0,0,0,6.926,15.133v0c1.443,2.757,3.075,5.659,4.876,8.522a78.068,78.068,0,0,0,1.687-10.541v-.005c.433-3.939.836-9.05,1.06-15.432C-216.241,151.066-215.759,151.39-215.276,151.729Z" transform="translate(263.534 -75.805)" fill="#ffc05c"/>
          <g id="Group_341" data-name="Group 341" transform="translate(22.953 94.473)">
            <rect id="Rectangle_228" data-name="Rectangle 228" width="35.381" height="27.564" rx="1.831" transform="translate(0 35.336) rotate(-87.026)" fill="#eeebf4"/>
            <rect id="Rectangle_229" data-name="Rectangle 229" width="33.107" height="25.793" rx="1.713" transform="translate(0.943 34.247) rotate(-87.026)" fill="#54c6e0"/>
            <rect id="Rectangle_230" data-name="Rectangle 230" width="32.126" height="25.029" rx="1.662" transform="translate(1.351 33.777) rotate(-87.026)" fill="#eeebf4"/>
            <rect id="Rectangle_231" data-name="Rectangle 231" width="17.718" height="4.263" transform="matrix(0.999, 0.052, -0.052, 0.999, 6.413, 6.755)" fill="#54c6e0"/>
          </g>
          <path id="Path_720" data-name="Path 720" d="M-264.879,178.276c-.861-4.228-3.324-16.29-3.976-18.679-.577-2.129-1.741-7.495-2.244-10.287a7.451,7.451,0,0,1-.229-1.75c.174-.14,2.124-.748,2.766-.952.179,2.254,2.259,14.56,2.488,15.9C-265.959,163.172-265.426,170.422-264.879,178.276Z" transform="translate(283.573 -73.671)" fill="#ffc05c"/>
          <path id="Path_721" data-name="Path 721" d="M-170.032,147.353v15.8c-.572-6.731-1.582-15.078-1.891-17.6-.368-3.047-2.169-12.182-2.721-14.191a10.394,10.394,0,0,1,3.179.6,4.065,4.065,0,0,1,.274,1.277C-170.7,136.787-170.032,146.5-170.032,147.353Z" transform="translate(233.659 -65.814)" fill="#ffc05c"/>
          <path id="Path_722" data-name="Path 722" d="M-279.515,223.1s-1.154-.095-1.5-.095-3.458,1.037-4.2,1.955-3.816,7.684-3.816,8.6.169,2.463.169,2.463l3.189,1.316s-5.254,1.152-5.722.563-5.319-6.921-5.224-8.322a8.271,8.271,0,0,1,1.99-2.787c2.219-2.438,5.558-5.47,5.971-5.535.622-.1,1.836.683,2.144.623s3.856-.843,4.6-.9c.646-.055,1.965,1.57,2.314,2.009l0,0Z" transform="translate(296.622 -111.98)" fill="#eeebf4"/>
          <path id="Path_723" data-name="Path 723" d="M-275.709,184.443c-.359.962-1.07,2.847-1.165,2.967s-.522.135-.736.14c-.348-.439-1.667-2.064-2.314-2.009-.747.06-4.289.843-4.6.9s-1.523-.718-2.144-.623c-.413.065-3.752,3.1-5.971,5.535a3.246,3.246,0,0,1-.124-.7c.03-.19,2.583-6.308,3.11-8.033s3.856-16.679,4.04-17.806.532-9,.811-9.658a22.253,22.253,0,0,1,2.647-2.972c.5,2.792,1.667,8.157,2.244,10.287.652,2.388,3.115,14.45,3.976,18.679C-275.863,182.239-275.789,183.341-275.709,184.443Z" transform="translate(294.632 -76.542)" fill="#54c6e0"/>
          <path id="Path_724" data-name="Path 724" d="M-261.434,225.129l-.005,0" transform="translate(278.461 -114.117)" fill="none" stroke="#231f20" stroke-miterlimit="10" stroke-width="1"/>
          <path id="Path_725" data-name="Path 725" d="M-239.715,219.934c-.035.005-.064.015-.094.02l.015.229c.517-.084,2.667-.433,3.667-.523l.01-.005c.269-.025.165.094.21.119a5.169,5.169,0,0,1,.144,2.6,8.156,8.156,0,0,1-1.707.579.038.038,0,0,1-.015,0c-.816.24-1.647.474-2,.569l.005.035c.423-.045,1.438-.15,2.219-.2a3.952,3.952,0,0,1,1-.01,6.057,6.057,0,0,1-.249,2.513,1.474,1.474,0,0,1-.592.219s.3.1.3.294-.268,1.71-.517,1.805c-.164.06-1.647.179-2.662.254-.552.04-.965.065-.965.065s-10.961.872-11.483.813a11.77,11.77,0,0,1-2.07-.813l-23.076,3.864-3.189-1.316s-.169-1.551-.169-2.463,3.07-7.689,3.816-8.6,3.861-1.954,4.2-1.954,1.5.095,1.5.095l-.079-.1a13.747,13.747,0,0,0,2.876,1.192c.746.065,13.623.563,13.623.563l.1-.02a47.522,47.522,0,0,1,2.687-4,65.812,65.812,0,0,1,6.553-2.3c.851-.25,4.841-2.134,4.9-2.134a2.05,2.05,0,0,1,0,2.159c-.687.9-4.458,3.032-4.707,3.281-.129.129-.656.733-1.134,1.282l6.712-1.386s4.064-.818,4.218-.8c.4.03.791,2.354.448,2.792-.254.324-2.681.894-4.169,1.213-.005,0-.005,0-.01,0-.079.02-.159.035-.229.05a.191.191,0,0,1-.045.01.017.017,0,0,0-.01,0Z" transform="translate(288.525 -107.007)" fill="#ffb9a9"/>
          <path id="Path_726" data-name="Path 726" d="M-126.319,198.736v3.989s-4.791,4.487-5.289,5.3a10.7,10.7,0,0,1-2.488,2.369c-.374.19-5.473.459-6.782-.3-1.09-.633-2.836-4.882-3.379-7.454a6.718,6.718,0,0,1-.164-1.281c0-2.059,1.771-7.295,2.547-8.227.5-.6,2.548-2.339,3.941-3.506.771-.643,1.348-1.112,1.348-1.112a57.636,57.636,0,0,0-2.553,5.734c0,.563,1.309,8.417,3.672,9.6s8.209-2.932,8.518-3.306A6.852,6.852,0,0,0-126.319,198.736Z" transform="translate(218.058 -95.258)" fill="#eeebf4"/>
          <path id="Path_727" data-name="Path 727" d="M-149.849,162.18c-1.393,1.167-3.438,2.9-3.941,3.506-.776.932-2.547,6.168-2.547,8.227a6.718,6.718,0,0,0,.164,1.281l-9.921-6.746c-.07-1.027-.154-2.139-.254-3.3v-15.8c0-.858-.667-10.566-1.159-14.116a5.613,5.613,0,0,1,1.468.758c.413.419,6.881,14.545,7.587,15.956s6.926,9.12,6.926,9.12a3.186,3.186,0,0,1,1.368.479A1.882,1.882,0,0,1-149.849,162.18Z" transform="translate(229.975 -67.811)" fill="#54c6e0"/>
          <path id="Path_728" data-name="Path 728" d="M-106.845,111.179l-1.751,2.708,1.493,11.922s-5.309,4.737-5.642,5.031-1.533,1.326-1.533,1.326a5.186,5.186,0,0,1,0,1.167c-.084.289-.582,1.326-.582,1.326l-5.821,20.215a6.85,6.85,0,0,1-.627,1.81c-.308.374-6.154,4.487-8.518,3.306s-3.672-9.04-3.672-9.6a57.634,57.634,0,0,1,2.553-5.734l3.234-5.854,6.1-14.59s-1.154-8.91-.965-9.279,5.9-6.028,6.15-6.278,2.632-4.887,2.756-5.215,1.926.558,1.926,2.428a14.039,14.039,0,0,1-1.2,4.946c-.249.374-2.657,2.727-2.657,2.727l.373,1.426.035-.045c.363-.439,3.259-3.959,3.448-4.194.209-.249,5.1-7.23,5.1-7.23l2.946,2.827Z" transform="translate(212.421 -51.396)" fill="#ffb9a9"/>
          <path id="Path_729" data-name="Path 729" d="M-264.686,61.326s-3.691-4.446-6.22-3.573c-1.267.437-1,9.183-.249,10.263s6.551,4.238,7.795,2.327S-264.686,61.326-264.686,61.326Z" transform="translate(283.801 -27.84)" fill="#ffb9a9"/>
          <path id="Path_730" data-name="Path 730" d="M-197.239,50.574s2.391-5.263,5.06-5.089c1.337.087,3.374,8.6,2.938,9.835s-5.206,5.818-6.908,4.3S-197.239,50.574-197.239,50.574Z" transform="translate(245.378 -21.576)" fill="#ffb9a9"/>
          <path id="Path_731" data-name="Path 731" d="M-235.2,21.564l-.343,1.75h-1.428s-3.174-3.839-3.269-4.742-.831-6.816-.831-6.816a18.983,18.983,0,0,1-9,5.485l-.5-.2-1.274,1.247-1.547-.294-.249.294a35.059,35.059,0,0,1-13.637-2.328s.846,4.861,1.035,5.549-1.274,7.619-1.274,7.619l-3.12-1.242s-3.911-8.87-3.911-9.778,2.458-2.274,2.458-2.274A5.444,5.444,0,0,1-275,14.274a5.851,5.851,0,0,1-1.2-3.066,10.687,10.687,0,0,1-.109-1.267c1.15,2.369,3.732-.035,4.478-.842S-263-2.993-260.323-3.676s17.284,1.306,18.16,1.745a48.4,48.4,0,0,1,4.055,3.052c.452-1,0-3.55,0-3.55a7.29,7.29,0,0,1,1.667,4.921,19.515,19.515,0,0,1-1.667,5.983s3.717,1.182,3.776,1.93S-235.2,21.564-235.2,21.564Z" transform="translate(286.137 3.819)" fill="#403379"/>
          <path id="Path_732" data-name="Path 732" d="M-219.507,116.226c-2.169,1.581-7.394,4.8-12.757,3.74v-3.441a35.423,35.423,0,0,0,7.757-.284,28.02,28.02,0,0,0,4.846-1.287Z" transform="translate(263.402 -57.365)" fill="#f7937c"/>
          <path id="Path_733" data-name="Path 733" d="M-84.219,106.459l-3.139,4.856-8.388,3.785.035-.045c.363-.439,3.259-3.959,3.448-4.194.209-.249,5.1-7.23,5.1-7.23Z" transform="translate(192.934 -51.532)" fill="#f7937c"/>
          <path id="Path_734" data-name="Path 734" d="M-86.028,22.94l-.538-.039-.538-.039L-91.946,83l1.075.077,1.075.077Z" transform="translate(190.972 -9.926)" fill="#17a4c0"/>
          <path id="Path_735" data-name="Path 735" d="M-84.863,126.246c-.219.384-5.418,2.9-5.607,3.027s-3.782,1.023-4.03,1.057a2.85,2.85,0,0,1-.687-2.688c.438-.982,3.732-2.508,4.04-2.668s4.682-3.565,5.692-3.366C-84.49,121.8-84.644,125.868-84.863,126.246Z" transform="translate(192.707 -60.788)" fill="#ffb9a9"/>
          <path id="Path_736" data-name="Path 736" d="M-84.748,136.546c-.124.474-5.13,2.478-5.6,2.6a19.614,19.614,0,0,1-3.184.7c-.448-.1-1.194-2.334-.02-2.887.876-.414,2.8-1.306,2.926-1.336s4.323-2.543,5.379-2.478C-84.837,133.17-84.623,136.067-84.748,136.546Z" transform="translate(192.125 -66.734)" fill="#ffb9a9"/>
          <path id="Path_737" data-name="Path 737" d="M-84.3,144.529a27.936,27.936,0,0,1-4.707,1.78c-.353.02-2.632.274-2.965.339s-1.264-1.546-.288-2.269a13.9,13.9,0,0,1,3.383-1.311c.547-.215,3.891-1.885,4.453-1.82C-84.031,141.293-84.195,144.275-84.3,144.529Z" transform="translate(191.358 -70.908)" fill="#ffb9a9"/>
          <path id="Path_738" data-name="Path 738" d="M-84.863,129.831c-.219.384-5.418,2.9-5.607,3.027s-3.782,1.023-4.03,1.058a2.85,2.85,0,0,1-.687-2.688c.438-.982,3.732-2.508,4.04-2.668a17.579,17.579,0,0,0,0,2.224c.095.639.418,1.4.562,1.4S-85.923,130.684-84.863,129.831Z" transform="translate(192.707 -64.373)" fill="#f7937c"/>
          <path id="Path_739" data-name="Path 739" d="M-84.748,139.18c-.124.474-5.13,2.478-5.6,2.6a19.619,19.619,0,0,1-3.184.7c-.448-.1-1.194-2.334-.02-2.887.876-.414,2.8-1.306,2.926-1.336a9.06,9.06,0,0,0-.085,1.81c.085.683.333,1.077.458,1.077A19.013,19.013,0,0,0-84.748,139.18Z" transform="translate(192.125 -69.369)" fill="#f7937c"/>
          <path id="Path_740" data-name="Path 740" d="M-84.3,146.465a27.934,27.934,0,0,1-4.707,1.78c-.353.02-2.632.274-2.965.339s-1.264-1.546-.288-2.269A13.9,13.9,0,0,1-88.877,145a11.392,11.392,0,0,0-.174,1.92c.055.433.174.957.373.957A23.277,23.277,0,0,0-84.3,146.465Z" transform="translate(191.358 -72.844)" fill="#f7937c"/>
          <path id="Path_741" data-name="Path 741" d="M-80.016,105.819c.374-.5-1.638-3.511-2.757-3.428s-4.789,5.007-4.83,5.381,1.078,2.285,1.575,2.369S-80.389,106.318-80.016,105.819Z" transform="translate(188.731 -50.892)" fill="#ffb9a9"/>
          <path id="Path_742" data-name="Path 742" d="M-268.06,68.542s-.435-3.864.228-4.259,3.421,1.35,4.6,3.116c0,0-2.073.727-2.094,1.808s2.571,1.974,2.571,1.974-3.193-.166-3.421-1.891,2.674-1.911,2.674-1.911-3.151-2.472-3.794-2.036S-268.06,68.542-268.06,68.542Z" transform="translate(281.951 -31.233)" fill="#f7937c"/>
          <path id="Path_743" data-name="Path 743" d="M-189.073,54.76s-.8-3.806-1.553-3.972-2.824,2.359-3.392,4.408c0,0,2.2.037,2.555,1.056s-1.821,2.684-1.821,2.684,2.978-1.164,2.654-2.872-3.139-.972-3.139-.972,2.216-3.34,2.963-3.128S-189.073,54.76-189.073,54.76Z" transform="translate(243.659 -24.307)" fill="#f7937c"/>
          <path id="Path_744" data-name="Path 744" d="M-228.788,19.645s2.1-6.9,2.228-11.178-5.1-9.64-5.1-9.64,6.012,4.82,6.551,8.144-2.2,9.765-2.2,9.765a33.327,33.327,0,0,0,4.146-9.682A16.686,16.686,0,0,1-227.514,18.4Z" transform="translate(263.09 2.456)" fill="#302864"/>
          <path id="Path_745" data-name="Path 745" d="M-253.272,23.23s2.291-6.378,1.421-11.552-4.1-5.609-4.727-5.8S-261.553,5.487-264,8.4a6.666,6.666,0,0,1,6.634-1.413c3.814,1.371,4.968,7.689,4.614,11.718a16.525,16.525,0,0,0-1.712-5.883c-1.451-2.594-2.447-3.882-2.944-3.8s-3.441,3.375-7.588,5.489-6.343,1.741-6.343,1.741a13.112,13.112,0,0,0,8.748-2.036c4.271-2.825,5.183-3.2,5.8-3.033S-252.288,17-253.272,23.23Z" transform="translate(283.571 -1.129)" fill="#302864"/>
          <path id="Path_746" data-name="Path 746" d="M-267.391,45.088l-3.12-1.242s-3.911-8.87-3.911-9.778,2.458-2.274,2.458-2.274a5.444,5.444,0,0,1-2.92-1.556,5.85,5.85,0,0,1-1.2-3.066c.309.718,1.4,2.528,4.866,3.565,4.388,1.312,3.07-.149,4.065,1.182,0,0,.846,4.861,1.035,5.549S-267.391,45.088-267.391,45.088Z" transform="translate(286.02 -12.146)" fill="#302864"/>
          <path id="Path_747" data-name="Path 747" d="M-197.6,34.626l-.344,1.75h-1.428s-3.174-3.839-3.269-4.742-.831-6.816-.831-6.816a29.34,29.34,0,0,0,2.96-3.281s3.717,1.182,3.776,1.93S-197.6,34.626-197.6,34.626Z" transform="translate(248.538 -9.243)" fill="#302864"/>
          <path id="Path_748" data-name="Path 748" d="M-209.316,59.535c.212,1.173-.213,2.232-.948,2.366s-1.5-.709-1.716-1.882.213-2.232.948-2.365S-209.528,58.362-209.316,59.535Z" transform="translate(252.96 -27.84)" fill="#29215d"/>
          <path id="Path_749" data-name="Path 749" d="M-242.426,65.53c.212,1.173-.213,2.232-.948,2.366s-1.5-.709-1.716-1.882.213-2.232.948-2.365S-242.638,64.357-242.426,65.53Z" transform="translate(270.05 -30.928)" fill="#29215d"/>
          <g id="Group_346" data-name="Group 346" transform="translate(19.661 26.893)">
            <g id="Group_345" data-name="Group 345" transform="translate(0)">
              <g id="Group_342" data-name="Group 342" transform="translate(16.25)">
                <path id="Path_750" data-name="Path 750" d="M-209.461,59.56l-.786-4.468-.418-2.364a1.313,1.313,0,0,0-.542-.852,1.384,1.384,0,0,0-.925-.224c-1.518.11-2.632.229-3.378.324s-1.124.16-1.154.164c-.065.01-1.637.294-4.7,1.147a1.414,1.414,0,0,0-.8.534,1.309,1.309,0,0,0-.214.987l.209,1.186.194,1.1.8,4.542a3.66,3.66,0,0,0,4.239,2.967l4.513-.8a3.626,3.626,0,0,0,2.7-2.115A3.585,3.585,0,0,0-209.461,59.56Zm-3.169,3.061-4.513.8a2.459,2.459,0,0,1-2.846-1.995L-221.2,54.6a.12.12,0,0,1,.02-.09.257.257,0,0,1,.134-.06c3-.837,4.573-1.122,4.588-1.127s1.443-.249,4.413-.474c.109-.01.144.01.149.015a.109.109,0,0,1,.045.075l1.209,6.831A2.463,2.463,0,0,1-212.63,62.621Z" transform="translate(222.399 -51.645)" fill="#302864"/>
              </g>
              <g id="Group_343" data-name="Group 343" transform="translate(0 2.884)">
                <path id="Path_751" data-name="Path 751" d="M-243.048,65.505l-.806-4.563-.194-1.1-.2-1.167a1.342,1.342,0,0,0-.542-.852,1.416,1.416,0,0,0-.926-.224c-1.518.115-2.632.234-3.379.329s-1.124.155-1.154.16c-.065.015-1.637.294-4.7,1.152a1.384,1.384,0,0,0-.8.529,1.313,1.313,0,0,0-.214.987l1.2,6.831a3.668,3.668,0,0,0,4.239,2.972l4.513-.8A3.667,3.667,0,0,0-243.048,65.505Zm-3.169,3.061-4.513.8a2.455,2.455,0,0,1-2.846-1.995l-1.209-6.831a.121.121,0,0,1,.02-.09.26.26,0,0,1,.135-.06c3-.837,4.573-1.122,4.587-1.122s1.443-.254,4.413-.474c.109-.01.144.005.15.01a.122.122,0,0,1,.044.075l1.209,6.831A2.463,2.463,0,0,1-246.217,68.567Z" transform="translate(255.986 -57.592)" fill="#302864"/>
              </g>
              <g id="Group_344" data-name="Group 344" transform="translate(11.273 4.333)">
                <path id="Path_752" data-name="Path 752" d="M-232.2,62.656l-.489-.967a10.312,10.312,0,0,1,2.935-.968,10.2,10.2,0,0,1,2.9-.068l-.128,1.077a9.1,9.1,0,0,0-2.594.061A9.231,9.231,0,0,0-232.2,62.656Z" transform="translate(232.686 -60.581)" fill="#302864"/>
              </g>
            </g>
          </g>
          <path id="Path_753" data-name="Path 753" d="M-221.153,94.485a6.149,6.149,0,0,1-4.314,3.361,6.316,6.316,0,0,1-6.722-3.286,6.911,6.911,0,0,1-.612-1.536c-.04-.155-.08-.309-.109-.468a6.819,6.819,0,0,1-.1-.763l11.991-2.363.249-.05a6.976,6.976,0,0,1,.189.743A6.852,6.852,0,0,1-221.153,94.485Z" transform="translate(263.789 -44.19)" fill="#f2819f"/>
          <path id="Path_754" data-name="Path 754" d="M-220.924,90.569c-.129.239-6.14,2.064-11.876,2.508-.04-.155-.08-.309-.109-.468a6.819,6.819,0,0,1-.1-.763l11.991-2.363A2.649,2.649,0,0,1-220.924,90.569Z" transform="translate(263.789 -44.243)" fill="#fff"/>
          <path id="Path_755" data-name="Path 755" d="M-220.272,98.212a6.149,6.149,0,0,1-4.314,3.361,6.316,6.316,0,0,1-6.722-3.286C-229.605,97.41-224.167,95.051-220.272,98.212Z" transform="translate(262.908 -47.918)" fill="#a82f55"/>
          <path id="Path_756" data-name="Path 756" d="M-195.736,229.073a.375.375,0,0,1,.04-.01.017.017,0,0,0-.01,0Z" transform="translate(244.547 -116.146)" fill="#17a4c0"/>
          <path id="Path_757" data-name="Path 757" d="M-195.561,228.989c.055-.015.134-.03.229-.05C-195.411,228.959-195.491,228.974-195.561,228.989Z" transform="translate(244.456 -116.082)" fill="#17a4c0"/>
        </g>
      </g>
    </g>
  </g>
</svg>
