<svg xmlns="http://www.w3.org/2000/svg" width="35.524" height="28.421" viewBox="0 0 35.524 28.421">
  <path id="icons8-twitter_squared" d="M37.524,4a23.372,23.372,0,0,1-5.8,2.266c-.048.012-.087.028-.133.041a7.989,7.989,0,0,0-13.606,5.686c0,.233-.02.661,0,.888-5.956,0-10.488-3.119-13.739-7.1a10.816,10.816,0,0,0-.508,3.609c0,2.488,1.945,4.932,4.973,6.448a7.28,7.28,0,0,1-1.812.247,4.77,4.77,0,0,1-3.124-1.1v.091c0,3.478,3.691,5.845,6.973,6.5a6.364,6.364,0,0,1-2.664.432c-.462,0-2.1-.211-2.533-.293.913,2.851,4.206,4.453,7.345,4.51-2.455,1.925-4.158,2.639-9.185,2.639H2A21.53,21.53,0,0,0,13.274,32.42c13.2,0,20.7-10.059,20.7-19.54,0-.153,0-.472-.009-.794,0-.032.009-.062.009-.094,0-.048-.014-.094-.014-.142-.005-.242-.011-.467-.016-.584a14.6,14.6,0,0,0,3.583-3.714A14.334,14.334,0,0,1,33.4,8.681,10.759,10.759,0,0,0,37.524,4Z" transform="translate(-2 -3.999)" fill="#edefff"/>
</svg>
