<svg xmlns="http://www.w3.org/2000/svg" xmlns:xlink="http://www.w3.org/1999/xlink" width="49.561" height="54.517" viewBox="0 0 49.561 54.517">
  <defs>
    <linearGradient id="linear-gradient" x1="0.5" x2="0.5" y2="1" gradientUnits="objectBoundingBox">
      <stop offset="0" stop-color="#22cae6"/>
      <stop offset="1" stop-color="#5363d2"/>
    </linearGradient>
  </defs>
  <path id="icons8-administrator_male" d="M30.78,5A17.352,17.352,0,0,0,21.1,36.75,24.852,24.852,0,0,0,6,59.517h4.956a19.747,19.747,0,0,1,5.885-14.094l4.569,5.73L22.8,52.934,24.74,51.7l6.04-4.027,6.04,4.027,2.091,1.316L40.305,51l3.949-5.963A19.719,19.719,0,0,1,50.6,59.517h4.956A24.852,24.852,0,0,0,40.46,36.75,17.352,17.352,0,0,0,30.78,5Zm0,4.956a12.39,12.39,0,1,1-12.39,12.39A12.352,12.352,0,0,1,30.78,9.956Zm0,29.736a19.784,19.784,0,0,1,9.448,2.4l-2.71,4.027-5.343-3.562-1.394-.852-1.394.852-5.5,3.717L20.868,42.4A19.672,19.672,0,0,1,30.78,39.692Z" transform="translate(-6 -5)" fill="url(#linear-gradient)"/>
</svg>
