<svg xmlns="http://www.w3.org/2000/svg" width="35.868" height="28.694" viewBox="0 0 35.868 28.694">
  <path id="icons8-play_button" d="M37.118,7.92A4.494,4.494,0,0,0,33.947,4.75C31.15,4,19.934,4,19.934,4S8.718,4,5.92,4.75A4.494,4.494,0,0,0,2.75,7.92C2,10.718,2,18.347,2,18.347s0,7.629.75,10.427A4.494,4.494,0,0,0,5.92,31.944c2.8.75,14.013.75,14.013.75s11.216,0,14.013-.75a4.491,4.491,0,0,0,3.171-3.171c.75-2.8.75-10.427.75-10.427S37.868,10.718,37.118,7.92ZM16.347,24.559V12.135l10.76,6.212Z" transform="translate(-2 -4)" fill="#edefff"/>
</svg>
