<svg xmlns="http://www.w3.org/2000/svg" width="40.618" height="28.549" viewBox="0 0 40.618 28.549">
  <path id="icons8-youtube_squared" d="M35.22,20.064s-12.739,0-15.872.839a5.158,5.158,0,0,0-3.6,3.627c-.841,3.162-.839,9.837-.839,9.837s0,6.674.839,9.866a5.045,5.045,0,0,0,3.6,3.542c3.133.841,15.872.839,15.872.839s12.739,0,15.872-.839a5.082,5.082,0,0,0,3.6-3.57c.841-3.162.839-9.837.839-9.837s0-6.646-.839-9.837a5.158,5.158,0,0,0-3.6-3.627C47.959,20.061,35.22,20.064,35.22,20.064Zm-5.8,6.024,14.507,8.285L29.417,42.617Z" transform="translate(-14.911 -20.064)" fill="#fff"/>
</svg>
